# Blender 4.3.1
# www.blender.org
mtllib KnightWarriorDetailedBlend.mtl
o GnomeWarriorDetailed.001
v -0.250369 0.299055 0.099987
v -0.250369 0.299055 -0.000013
v -0.250369 0.399055 0.099987
v -0.250369 0.399055 -0.000013
v -0.250369 0.499055 0.199987
v -0.250369 0.499055 0.099987
v -0.250369 0.599055 0.099987
v -0.250369 0.599055 -0.000013
v -0.250369 0.699055 -0.000013
v -0.250369 0.699055 -0.100013
v -0.250369 0.899055 0.199987
v -0.250369 0.899055 0.099987
v -0.250369 0.899055 -0.000013
v -0.250369 0.899055 -0.100013
v -0.250369 0.999055 0.099987
v -0.250369 0.999055 -0.000013
v -0.150369 -0.000945 0.099987
v -0.150369 -0.000945 -0.000013
v -0.150369 0.199055 0.199987
v -0.150369 0.199055 0.099987
v -0.150369 0.199055 -0.000013
v -0.150369 0.199055 -0.100013
v -0.150369 0.299055 0.199987
v -0.150369 0.299055 0.099987
v -0.150369 0.299055 -0.000013
v -0.150369 0.299055 -0.100013
v -0.150369 0.399055 0.099987
v -0.150369 0.399055 -0.000013
v -0.150369 0.499055 0.299987
v -0.150369 0.499055 0.199987
v -0.150369 0.499055 0.099987
v -0.150369 0.599055 -0.000013
v -0.150369 0.599055 -0.100013
v -0.150369 0.699055 -0.000013
v -0.150369 0.699055 -0.100013
v -0.150369 0.899055 0.299987
v -0.150369 0.899055 0.199987
v -0.150369 0.899055 0.099987
v -0.150369 0.899055 -0.000013
v -0.150369 0.899055 -0.100013
v -0.150369 0.999055 0.199987
v -0.150369 0.999055 0.099987
v -0.150369 0.999055 -0.000013
v -0.150369 0.999055 -0.100013
v 0.049631 -0.000945 0.099987
v 0.049631 -0.000945 -0.000013
v 0.049631 0.199055 0.099987
v 0.049631 0.199055 -0.000013
v -0.050369 -0.000945 0.099987
v -0.050369 -0.000945 -0.000013
v -0.050369 0.199055 0.099987
v -0.050369 0.199055 -0.000013
v -0.050369 0.499055 0.299987
v -0.050369 0.499055 0.199987
v -0.050369 0.599055 0.299987
v -0.050369 0.599055 0.199987
v 0.049631 0.599055 0.299987
v 0.049631 0.599055 0.199987
v 0.049631 0.699055 0.299987
v 0.049631 0.699055 0.199987
v 0.049631 0.899055 -0.000013
v 0.049631 0.899055 -0.100013
v 0.049631 0.999055 -0.000013
v 0.049631 0.999055 -0.100013
v 0.149631 -0.000945 0.099987
v 0.149631 -0.000945 -0.000013
v 0.149631 0.199055 0.199987
v 0.149631 0.199055 0.099987
v 0.149631 0.199055 -0.000013
v 0.149631 0.199055 -0.100013
v 0.149631 0.299055 0.199987
v 0.149631 0.299055 0.099987
v 0.149631 0.299055 -0.000013
v 0.149631 0.299055 -0.100013
v 0.149631 0.399055 0.099987
v 0.149631 0.399055 -0.000013
v 0.149631 0.599055 0.199987
v 0.149631 0.599055 0.099987
v 0.149631 0.599055 -0.000013
v 0.149631 0.599055 -0.100013
v 0.149631 0.699055 0.299987
v 0.149631 0.699055 0.199987
v 0.149631 0.699055 -0.000013
v 0.149631 0.899055 0.299987
v 0.149631 0.899055 0.199987
v 0.149631 0.899055 -0.000013
v 0.149631 0.999055 0.199987
v 0.149631 0.999055 -0.000013
v 0.249631 0.299055 0.099987
v 0.249631 0.299055 -0.000013
v 0.249631 0.399055 0.099987
v 0.249631 0.399055 -0.000013
v 0.249631 0.599055 0.099987
v 0.249631 0.599055 -0.000013
v 0.249631 0.599055 -0.100013
v 0.249631 0.699055 0.199987
v 0.249631 0.699055 -0.000013
v 0.249631 0.899055 0.199987
v 0.249631 0.899055 -0.100013
v -0.150369 0.499055 0.299987
v -0.150369 0.899055 0.299987
v -0.050369 0.499055 0.299987
v -0.050369 0.599055 0.299987
v 0.049631 0.599055 0.299987
v 0.049631 0.699055 0.299987
v 0.149631 0.699055 0.299987
v 0.149631 0.899055 0.299987
v -0.250369 0.499055 0.199987
v -0.250369 0.899055 0.199987
v -0.150369 0.199055 0.199987
v -0.150369 0.299055 0.199987
v -0.150369 0.499055 0.199987
v -0.150369 0.899055 0.199987
v -0.150369 0.999055 0.199987
v -0.050369 0.499055 0.199987
v -0.050369 0.599055 0.199987
v 0.049631 0.599055 0.199987
v 0.049631 0.699055 0.199987
v 0.149631 0.199055 0.199987
v 0.149631 0.299055 0.199987
v 0.149631 0.599055 0.199987
v 0.149631 0.699055 0.199987
v 0.149631 0.899055 0.199987
v 0.149631 0.999055 0.199987
v 0.249631 0.699055 0.199987
v 0.249631 0.899055 0.199987
v -0.250369 0.299055 0.099987
v -0.250369 0.399055 0.099987
v -0.250369 0.499055 0.099987
v -0.250369 0.899055 0.099987
v -0.250369 0.999055 0.099987
v -0.150369 -0.000945 0.099987
v -0.150369 0.199055 0.099987
v -0.150369 0.299055 0.099987
v -0.150369 0.399055 0.099987
v -0.150369 0.499055 0.099987
v -0.150369 0.899055 0.099987
v -0.150369 0.999055 0.099987
v -0.050369 -0.000945 0.099987
v -0.050369 0.199055 0.099987
v 0.049631 -0.000945 0.099987
v 0.049631 0.199055 0.099987
v 0.149631 -0.000945 0.099987
v 0.149631 0.199055 0.099987
v 0.149631 0.299055 0.099987
v 0.149631 0.399055 0.099987
v 0.149631 0.599055 0.099987
v 0.249631 0.299055 0.099987
v 0.249631 0.399055 0.099987
v 0.249631 0.599055 0.099987
v 0.149631 0.599055 -0.000013
v 0.149631 0.699055 -0.000013
v 0.249631 0.599055 -0.000013
v 0.249631 0.699055 -0.000013
v -0.250369 0.299055 -0.000013
v -0.250369 0.399055 -0.000013
v -0.250369 0.599055 -0.000013
v -0.250369 0.699055 -0.000013
v -0.250369 0.899055 -0.000013
v -0.250369 0.999055 -0.000013
v -0.150369 -0.000945 -0.000013
v -0.150369 0.199055 -0.000013
v -0.150369 0.299055 -0.000013
v -0.150369 0.399055 -0.000013
v -0.150369 0.599055 -0.000013
v -0.150369 0.699055 -0.000013
v -0.150369 0.899055 -0.000013
v -0.150369 0.999055 -0.000013
v -0.050369 -0.000945 -0.000013
v -0.050369 0.199055 -0.000013
v 0.049631 -0.000945 -0.000013
v 0.049631 0.199055 -0.000013
v 0.049631 0.899055 -0.000013
v 0.049631 0.999055 -0.000013
v 0.149631 -0.000945 -0.000013
v 0.149631 0.199055 -0.000013
v 0.149631 0.299055 -0.000013
v 0.149631 0.399055 -0.000013
v 0.149631 0.599055 -0.000013
v 0.149631 0.899055 -0.000013
v 0.149631 0.999055 -0.000013
v 0.249631 0.299055 -0.000013
v 0.249631 0.399055 -0.000013
v 0.249631 0.599055 -0.000013
v -0.250369 0.699055 -0.100013
v -0.250369 0.899055 -0.100013
v -0.150369 0.199055 -0.100013
v -0.150369 0.299055 -0.100013
v -0.150369 0.599055 -0.100013
v -0.150369 0.699055 -0.100013
v -0.150369 0.799055 -0.100013
v -0.150369 0.899055 -0.100013
v -0.150369 0.999055 -0.100013
v -0.050369 0.499055 -0.100013
v -0.050369 0.599055 -0.100013
v -0.050369 0.699055 -0.100013
v -0.050369 0.799055 -0.100013
v 0.049631 0.499055 -0.100013
v 0.049631 0.599055 -0.100013
v 0.049631 0.699055 -0.100013
v 0.049631 0.799055 -0.100013
v 0.049631 0.899055 -0.100013
v 0.049631 0.999055 -0.100013
v 0.149631 0.199055 -0.100013
v 0.149631 0.299055 -0.100013
v 0.149631 0.599055 -0.100013
v 0.149631 0.699055 -0.100013
v 0.149631 0.799055 -0.100013
v 0.249631 0.599055 -0.100013
v 0.249631 0.899055 -0.100013
v -0.150369 -0.000945 0.099987
v -0.050369 -0.000945 0.099987
v 0.049631 -0.000945 0.099987
v 0.149631 -0.000945 0.099987
v -0.150369 -0.000945 -0.000013
v -0.050369 -0.000945 -0.000013
v 0.049631 -0.000945 -0.000013
v 0.149631 -0.000945 -0.000013
v -0.150369 0.199055 0.199987
v 0.149631 0.199055 0.199987
v -0.150369 0.199055 0.099987
v -0.050369 0.199055 0.099987
v 0.049631 0.199055 0.099987
v 0.149631 0.199055 0.099987
v -0.150369 0.199055 -0.000013
v -0.050369 0.199055 -0.000013
v 0.049631 0.199055 -0.000013
v 0.149631 0.199055 -0.000013
v -0.150369 0.199055 -0.100013
v 0.149631 0.199055 -0.100013
v -0.250369 0.299055 0.099987
v -0.150369 0.299055 0.099987
v 0.149631 0.299055 0.099987
v 0.249631 0.299055 0.099987
v -0.250369 0.299055 -0.000013
v -0.150369 0.299055 -0.000013
v 0.149631 0.299055 -0.000013
v 0.249631 0.299055 -0.000013
v -0.150369 0.499055 0.299987
v -0.050369 0.499055 0.299987
v -0.250369 0.499055 0.199987
v -0.150369 0.499055 0.199987
v -0.050369 0.499055 0.199987
v -0.250369 0.499055 0.099987
v -0.150369 0.499055 0.099987
v -0.050369 0.599055 0.299987
v 0.049631 0.599055 0.299987
v -0.050369 0.599055 0.199987
v 0.049631 0.599055 0.199987
v 0.149631 0.599055 -0.000013
v 0.249631 0.599055 -0.000013
v 0.149631 0.599055 -0.100013
v 0.249631 0.599055 -0.100013
v 0.049631 0.699055 0.299987
v 0.149631 0.699055 0.299987
v 0.049631 0.699055 0.199987
v 0.149631 0.699055 0.199987
v 0.249631 0.699055 0.199987
v -0.250369 0.699055 -0.000013
v -0.150369 0.699055 -0.000013
v 0.149631 0.699055 -0.000013
v 0.249631 0.699055 -0.000013
v -0.250369 0.699055 -0.100013
v -0.150369 0.699055 -0.100013
v 0.149631 0.599055 0.099987
v 0.249631 0.599055 0.099987
v 0.149631 0.599055 -0.000013
v 0.249631 0.599055 -0.000013
v -0.150369 0.899055 0.299987
v 0.149631 0.899055 0.299987
v -0.250369 0.899055 0.199987
v -0.150369 0.899055 0.199987
v 0.149631 0.899055 0.199987
v 0.249631 0.899055 0.199987
v -0.250369 0.899055 0.099987
v -0.150369 0.899055 0.099987
v -0.250369 0.899055 -0.000013
v -0.150369 0.899055 -0.000013
v 0.049631 0.899055 -0.000013
v 0.149631 0.899055 -0.000013
v -0.250369 0.899055 -0.100013
v -0.150369 0.899055 -0.100013
v 0.049631 0.899055 -0.100013
v 0.249631 0.899055 -0.100013
v -0.150369 0.999055 0.199987
v 0.149631 0.999055 0.199987
v -0.250369 0.999055 0.099987
v -0.150369 0.999055 0.099987
v -0.250369 0.999055 -0.000013
v -0.150369 0.999055 -0.000013
v 0.049631 0.999055 -0.000013
v 0.149631 0.999055 -0.000013
v -0.150369 0.999055 -0.100013
v 0.049631 0.999055 -0.100013
vn -1.0000 -0.0000 -0.0000
vn 1.0000 -0.0000 -0.0000
vn -0.0000 -0.0000 1.0000
vn -0.0000 -0.0000 -1.0000
vn -0.0000 -1.0000 -0.0000
vn -0.0000 1.0000 -0.0000
vt 0.279297 0.500000
vt 0.798828 0.500000
vt 0.115234 0.500000
vt 0.720703 0.500000
vt 0.771484 0.500000
vt 0.001953 0.500000
s 1
usemtl palette.001
f 3/1/1 2/1/1 1/1/1
f 4/1/1 2/1/1 3/1/1
f 6/2/1 4/2/1 3/2/1
f 7/2/1 4/2/1 6/2/1
f 7/3/1 6/3/1 5/3/1
f 8/2/1 4/2/1 7/2/1
f 9/3/1 8/3/1 7/3/1
f 11/3/1 9/3/1 7/3/1
f 11/3/1 10/3/1 9/3/1
f 11/3/1 7/3/1 5/3/1
f 12/3/1 10/3/1 11/3/1
f 13/3/1 10/3/1 12/3/1
f 14/3/1 10/3/1 13/3/1
f 15/3/1 13/3/1 12/3/1
f 16/3/1 13/3/1 15/3/1
f 20/4/1 18/4/1 17/4/1
f 21/4/1 18/4/1 20/4/1
f 23/4/1 20/4/1 19/4/1
f 23/4/1 22/4/1 21/4/1
f 23/4/1 21/4/1 20/4/1
f 24/4/1 22/4/1 23/4/1
f 25/4/1 22/4/1 24/4/1
f 26/4/1 22/4/1 25/4/1
f 27/5/1 24/5/1 23/5/1
f 28/5/1 26/5/1 25/5/1
f 30/5/1 27/5/1 23/5/1
f 31/5/1 27/5/1 30/5/1
f 32/5/1 26/5/1 28/5/1
f 33/5/1 26/5/1 32/5/1
f 34/1/1 33/1/1 32/1/1
f 35/1/1 33/1/1 34/1/1
f 36/3/1 30/3/1 29/3/1
f 37/3/1 30/3/1 36/3/1
f 41/3/1 38/3/1 37/3/1
f 42/3/1 38/3/1 41/3/1
f 43/3/1 40/3/1 39/3/1
f 44/3/1 40/3/1 43/3/1
f 47/4/1 46/4/1 45/4/1
f 48/4/1 46/4/1 47/4/1
f 49/4/2 50/4/2 51/4/2
f 51/4/2 50/4/2 52/4/2
f 53/3/2 54/3/2 55/3/2
f 55/3/2 54/3/2 56/3/2
f 57/3/2 58/3/2 59/3/2
f 59/3/2 58/3/2 60/3/2
f 61/3/2 62/3/2 63/3/2
f 63/3/2 62/3/2 64/3/2
f 65/4/2 66/4/2 68/4/2
f 68/4/2 66/4/2 69/4/2
f 67/4/2 68/4/2 71/4/2
f 69/4/2 70/4/2 71/4/2
f 68/4/2 69/4/2 71/4/2
f 71/4/2 70/4/2 72/4/2
f 72/4/2 70/4/2 73/4/2
f 73/4/2 70/4/2 74/4/2
f 71/5/2 72/5/2 75/5/2
f 73/5/2 74/5/2 76/5/2
f 71/5/2 75/5/2 77/5/2
f 77/5/2 75/5/2 78/5/2
f 76/5/2 74/5/2 79/5/2
f 79/5/2 74/5/2 80/5/2
f 77/1/2 78/1/2 82/1/2
f 78/1/2 79/1/2 82/1/2
f 82/1/2 79/1/2 83/1/2
f 81/3/2 82/3/2 84/3/2
f 84/3/2 82/3/2 85/3/2
f 85/3/2 86/3/2 87/3/2
f 87/3/2 86/3/2 88/3/2
f 89/1/2 90/1/2 91/1/2
f 91/1/2 90/1/2 92/1/2
f 91/2/2 92/2/2 93/2/2
f 93/2/2 92/2/2 94/2/2
f 94/3/2 95/3/2 97/3/2
f 96/3/2 97/3/2 98/3/2
f 97/3/2 95/3/2 99/3/2
f 98/3/2 97/3/2 99/3/2
f 102/3/3 101/3/3 100/3/3
f 103/3/3 101/3/3 102/3/3
f 104/3/3 101/3/3 103/3/3
f 105/3/3 101/3/3 104/3/3
f 106/3/3 101/3/3 105/3/3
f 107/3/3 101/3/3 106/3/3
f 112/3/3 109/3/3 108/3/3
f 113/3/3 109/3/3 112/3/3
f 115/5/3 112/5/3 111/5/3
f 117/5/3 116/5/3 115/5/3
f 119/4/3 111/4/3 110/4/3
f 120/5/3 115/5/3 111/5/3
f 120/4/3 111/4/3 119/4/3
f 120/5/3 117/5/3 115/5/3
f 121/1/3 118/1/3 117/1/3
f 121/5/3 117/5/3 120/5/3
f 122/1/3 118/1/3 121/1/3
f 123/3/3 114/3/3 113/3/3
f 124/3/3 114/3/3 123/3/3
f 125/3/3 123/3/3 122/3/3
f 126/3/3 123/3/3 125/3/3
f 134/1/3 128/1/3 127/1/3
f 135/2/3 129/2/3 128/2/3
f 135/1/3 128/1/3 134/1/3
f 136/2/3 129/2/3 135/2/3
f 137/3/3 131/3/3 130/3/3
f 138/3/3 131/3/3 137/3/3
f 139/4/3 133/4/3 132/4/3
f 140/4/3 133/4/3 139/4/3
f 143/4/3 142/4/3 141/4/3
f 144/4/3 142/4/3 143/4/3
f 148/1/3 146/1/3 145/1/3
f 149/2/3 147/2/3 146/2/3
f 149/1/3 146/1/3 148/1/3
f 150/2/3 147/2/3 149/2/3
f 153/3/3 152/3/3 151/3/3
f 154/3/3 152/3/3 153/3/3
f 155/1/4 156/1/4 163/1/4
f 156/2/4 157/2/4 164/2/4
f 163/1/4 156/1/4 164/1/4
f 157/3/4 158/3/4 165/3/4
f 164/2/4 157/2/4 165/2/4
f 165/3/4 158/3/4 166/3/4
f 159/3/4 160/3/4 167/3/4
f 167/3/4 160/3/4 168/3/4
f 161/4/4 162/4/4 169/4/4
f 169/4/4 162/4/4 170/4/4
f 171/4/4 172/4/4 175/4/4
f 175/4/4 172/4/4 176/4/4
f 173/3/4 174/3/4 180/3/4
f 180/3/4 174/3/4 181/3/4
f 177/1/4 178/1/4 182/1/4
f 178/2/4 179/2/4 183/2/4
f 182/1/4 178/1/4 183/1/4
f 183/2/4 179/2/4 184/2/4
f 185/3/4 186/3/4 190/3/4
f 190/3/4 186/3/4 191/3/4
f 191/3/4 186/3/4 192/3/4
f 188/5/4 189/5/4 194/5/4
f 189/1/4 190/1/4 195/1/4
f 194/5/4 189/5/4 195/5/4
f 190/6/4 191/6/4 196/6/4
f 195/1/4 190/1/4 196/1/4
f 192/3/4 193/3/4 197/3/4
f 196/6/4 191/6/4 197/6/4
f 191/3/4 192/3/4 197/3/4
f 188/5/4 194/5/4 198/5/4
f 194/2/4 195/2/4 198/2/4
f 195/1/4 196/1/4 199/1/4
f 198/2/4 195/2/4 199/2/4
f 196/1/4 197/1/4 199/1/4
f 199/1/4 197/1/4 200/1/4
f 197/3/4 193/3/4 201/3/4
f 200/1/4 197/1/4 201/1/4
f 201/3/4 193/3/4 202/3/4
f 202/3/4 193/3/4 203/3/4
f 187/4/4 188/4/4 204/4/4
f 188/5/4 198/5/4 205/5/4
f 204/4/4 188/4/4 205/4/4
f 198/5/4 199/5/4 205/5/4
f 199/1/4 200/1/4 206/1/4
f 205/5/4 199/5/4 206/5/4
f 200/6/4 201/6/4 207/6/4
f 206/1/4 200/1/4 207/1/4
f 201/3/4 202/3/4 208/3/4
f 207/6/4 201/6/4 208/6/4
f 206/3/4 207/3/4 209/3/4
f 207/3/4 208/3/4 209/3/4
f 208/3/4 202/3/4 210/3/4
f 209/3/4 208/3/4 210/3/4
f 215/4/5 212/4/5 211/4/5
f 216/4/5 212/4/5 215/4/5
f 217/4/5 214/4/5 213/4/5
f 218/4/5 214/4/5 217/4/5
f 221/4/5 220/4/5 219/4/5
f 222/4/5 220/4/5 221/4/5
f 223/4/5 220/4/5 222/4/5
f 224/4/5 220/4/5 223/4/5
f 226/4/5 223/4/5 222/4/5
f 227/4/5 223/4/5 226/4/5
f 229/4/5 226/4/5 225/4/5
f 229/4/5 228/4/5 227/4/5
f 229/4/5 227/4/5 226/4/5
f 230/4/5 228/4/5 229/4/5
f 235/1/5 232/1/5 231/1/5
f 236/1/5 232/1/5 235/1/5
f 237/1/5 234/1/5 233/1/5
f 238/1/5 234/1/5 237/1/5
f 242/3/5 240/3/5 239/3/5
f 243/3/5 240/3/5 242/3/5
f 244/3/5 242/3/5 241/3/5
f 245/3/5 242/3/5 244/3/5
f 248/3/5 247/3/5 246/3/5
f 249/3/5 247/3/5 248/3/5
f 252/3/5 251/3/5 250/3/5
f 253/3/5 251/3/5 252/3/5
f 256/3/5 255/3/5 254/3/5
f 257/3/5 255/3/5 256/3/5
f 261/3/5 258/3/5 257/3/5
f 262/3/5 258/3/5 261/3/5
f 263/3/5 260/3/5 259/3/5
f 264/3/5 260/3/5 263/3/5
f 265/2/6 266/2/6 267/2/6
f 267/2/6 266/2/6 268/2/6
f 269/3/6 270/3/6 272/3/6
f 272/3/6 270/3/6 273/3/6
f 271/3/6 272/3/6 275/3/6
f 275/3/6 272/3/6 276/3/6
f 273/3/6 274/3/6 280/3/6
f 277/3/6 278/3/6 281/3/6
f 281/3/6 278/3/6 282/3/6
f 279/3/6 280/3/6 283/3/6
f 280/3/6 274/3/6 284/3/6
f 283/3/6 280/3/6 284/3/6
f 285/3/6 286/3/6 288/3/6
f 287/3/6 288/3/6 289/3/6
f 288/3/6 286/3/6 290/3/6
f 289/3/6 288/3/6 290/3/6
f 290/3/6 286/3/6 291/3/6
f 291/3/6 286/3/6 292/3/6
f 290/3/6 291/3/6 293/3/6
f 293/3/6 291/3/6 294/3/6
