# MagicaVoxel @ Ephtracy

# group
o Core

# material
mtllib Core.mtl
usemtl palette

# normals
vn -1 0 0
vn 1 0 0
vn 0 0 1
vn 0 0 -1
vn 0 -1 0
vn 0 1 0

# texcoords
vt 0.0449219 0.5
vt 0.0605469 0.5

# verts
v -0.4 3.7 0
v -0.4 3.7 -0.1
v -0.4 3.8 0
v -0.4 3.8 -0.1
v -0.4 4 0.4
v -0.4 4 0.3
v -0.4 4 0
v -0.4 4 -0.1
v -0.4 4 -0.3
v -0.4 4 -0.4
v -0.4 4.1 0.4
v -0.4 4.1 0.3
v -0.4 4.1 0
v -0.4 4.1 -0.1
v -0.4 4.1 -0.3
v -0.4 4.1 -0.4
v -0.4 4.3 0
v -0.4 4.3 -0.1
v -0.4 4.4 0
v -0.4 4.4 -0.1
v -0.1 3.7 0.4
v -0.1 3.7 0.3
v -0.1 3.7 0.1
v -0.1 3.7 0
v -0.1 3.8 0.4
v -0.1 3.8 0.3
v -0.1 3.8 0.1
v -0.1 3.8 0
v -0.1 4 0.4
v -0.1 4 0.3
v -0.1 4.1 0.4
v -0.1 4.1 0.3
v -0.1 4.3 0.4
v -0.1 4.3 0.3
v -0.1 4.3 0.1
v -0.1 4.3 0
v -0.1 4.4 0.4
v -0.1 4.4 0.3
v -0.1 4.4 0.1
v -0.1 4.4 0
v 0 3.7 -0.1
v 0 3.7 -0.3
v 0 3.7 -0.4
v 0 3.8 -0.1
v 0 3.8 -0.3
v 0 3.8 -0.4
v 0 4 -0.3
v 0 4 -0.4
v 0 4.1 -0.3
v 0 4.1 -0.4
v 0 4.3 -0.1
v 0 4.3 -0.3
v 0 4.3 -0.4
v 0 4.4 -0.1
v 0 4.4 -0.3
v 0 4.4 -0.4
v 0.3 3.8 0.1
v 0.3 3.8 0
v 0.3 4 0.3
v 0.3 4 0.1
v 0.3 4 0
v 0.3 4 -0.3
v 0.3 4.1 0.3
v 0.3 4.1 0.1
v 0.3 4.1 0
v 0.3 4.1 -0.3
v 0.3 4.3 0.1
v 0.3 4.3 0
v -0.3 3.8 0
v -0.3 3.8 -0.1
v -0.3 4 0.3
v -0.3 4 0
v -0.3 4 -0.1
v -0.3 4 -0.3
v -0.3 4.1 0.3
v -0.3 4.1 0
v -0.3 4.1 -0.1
v -0.3 4.1 -0.3
v -0.3 4.3 0
v -0.3 4.3 -0.1
v 0 3.7 0.4
v 0 3.7 0.3
v 0 3.7 0.1
v 0 3.8 0.4
v 0 3.8 0.3
v 0 3.8 0.1
v 0 4 0.4
v 0 4 0.3
v 0 4.1 0.4
v 0 4.1 0.3
v 0 4.3 0.4
v 0 4.3 0.3
v 0 4.3 0.1
v 0 4.4 0.4
v 0 4.4 0.3
v 0 4.4 0.1
v 0.1 3.7 0
v 0.1 3.7 -0.1
v 0.1 3.7 -0.3
v 0.1 3.7 -0.4
v 0.1 3.8 0
v 0.1 3.8 -0.1
v 0.1 3.8 -0.3
v 0.1 3.8 -0.4
v 0.1 4 -0.3
v 0.1 4 -0.4
v 0.1 4.1 -0.3
v 0.1 4.1 -0.4
v 0.1 4.3 0
v 0.1 4.3 -0.1
v 0.1 4.3 -0.3
v 0.1 4.3 -0.4
v 0.1 4.4 0
v 0.1 4.4 -0.1
v 0.1 4.4 -0.3
v 0.1 4.4 -0.4
v 0.4 3.7 0.1
v 0.4 3.7 0
v 0.4 3.8 0.1
v 0.4 3.8 0
v 0.4 4 0.4
v 0.4 4 0.3
v 0.4 4 0.1
v 0.4 4 0
v 0.4 4 -0.3
v 0.4 4 -0.4
v 0.4 4.1 0.4
v 0.4 4.1 0.3
v 0.4 4.1 0.1
v 0.4 4.1 0
v 0.4 4.1 -0.3
v 0.4 4.1 -0.4
v 0.4 4.3 0.1
v 0.4 4.3 0
v 0.4 4.4 0.1
v 0.4 4.4 0
v -0.4 4 0.4
v -0.4 4.1 0.4
v -0.3 4 0.4
v -0.3 4.1 0.4
v -0.1 3.7 0.4
v -0.1 3.8 0.4
v -0.1 4 0.4
v -0.1 4.1 0.4
v -0.1 4.3 0.4
v -0.1 4.4 0.4
v 0 3.7 0.4
v 0 3.8 0.4
v 0 4 0.4
v 0 4.1 0.4
v 0 4.3 0.4
v 0 4.4 0.4
v 0.3 4 0.4
v 0.3 4.1 0.4
v 0.4 4 0.4
v 0.4 4.1 0.4
v 0 3.7 0.1
v 0 3.8 0.1
v 0 4.3 0.1
v 0 4.4 0.1
v 0.1 3.7 0.1
v 0.1 3.8 0.1
v 0.1 4.3 0.1
v 0.1 4.4 0.1
v 0.3 3.7 0.1
v 0.3 3.8 0.1
v 0.3 4 0.1
v 0.3 4.1 0.1
v 0.3 4.3 0.1
v 0.3 4.4 0.1
v 0.4 3.7 0.1
v 0.4 3.8 0.1
v 0.4 4 0.1
v 0.4 4.1 0.1
v 0.4 4.3 0.1
v 0.4 4.4 0.1
v -0.4 3.7 0
v -0.4 3.8 0
v -0.4 4 0
v -0.4 4.1 0
v -0.4 4.3 0
v -0.4 4.4 0
v -0.3 3.7 0
v -0.3 3.8 0
v -0.3 4 0
v -0.3 4.1 0
v -0.3 4.3 0
v -0.3 4.4 0
v -0.1 3.7 0
v -0.1 3.8 0
v -0.1 4.3 0
v -0.1 4.4 0
v -0.3 4 -0.3
v -0.3 4.1 -0.3
v 0 3.8 -0.3
v 0 4 -0.3
v 0 4.1 -0.3
v 0 4.3 -0.3
v 0.1 3.8 -0.3
v 0.1 4 -0.3
v 0.1 4.1 -0.3
v 0.1 4.3 -0.3
v 0.3 4 -0.3
v 0.3 4.1 -0.3
v -0.3 4 0.3
v -0.3 4.1 0.3
v -0.1 3.8 0.3
v -0.1 4 0.3
v -0.1 4.1 0.3
v -0.1 4.3 0.3
v 0 3.8 0.3
v 0 4 0.3
v 0 4.1 0.3
v 0 4.3 0.3
v 0.3 4 0.3
v 0.3 4.1 0.3
v 0.1 3.7 0
v 0.1 3.8 0
v 0.1 4.3 0
v 0.1 4.4 0
v 0.3 3.7 0
v 0.3 3.8 0
v 0.3 4 0
v 0.3 4.1 0
v 0.3 4.3 0
v 0.3 4.4 0
v 0.4 3.7 0
v 0.4 3.8 0
v 0.4 4 0
v 0.4 4.1 0
v 0.4 4.3 0
v 0.4 4.4 0
v -0.4 3.7 -0.1
v -0.4 3.8 -0.1
v -0.4 4 -0.1
v -0.4 4.1 -0.1
v -0.4 4.3 -0.1
v -0.4 4.4 -0.1
v -0.3 3.7 -0.1
v -0.3 3.8 -0.1
v -0.3 4 -0.1
v -0.3 4.1 -0.1
v -0.3 4.3 -0.1
v -0.3 4.4 -0.1
v -0.1 3.7 -0.1
v -0.1 3.8 -0.1
v -0.1 4.3 -0.1
v -0.1 4.4 -0.1
v 0 3.7 -0.1
v 0 3.8 -0.1
v 0 4.3 -0.1
v 0 4.4 -0.1
v -0.4 4 -0.4
v -0.4 4.1 -0.4
v -0.3 4 -0.4
v -0.3 4.1 -0.4
v 0 3.7 -0.4
v 0 3.8 -0.4
v 0 4 -0.4
v 0 4.1 -0.4
v 0 4.3 -0.4
v 0 4.4 -0.4
v 0.1 3.7 -0.4
v 0.1 3.8 -0.4
v 0.1 4 -0.4
v 0.1 4.1 -0.4
v 0.1 4.3 -0.4
v 0.1 4.4 -0.4
v 0.3 4 -0.4
v 0.3 4.1 -0.4
v 0.4 4 -0.4
v 0.4 4.1 -0.4
v -0.1 3.7 0.4
v 0 3.7 0.4
v -0.1 3.7 0.3
v 0 3.7 0.3
v -0.1 3.7 0.1
v 0 3.7 0.1
v 0.1 3.7 0.1
v 0.3 3.7 0.1
v 0.4 3.7 0.1
v -0.4 3.7 0
v -0.3 3.7 0
v -0.1 3.7 0
v 0.1 3.7 0
v 0.3 3.7 0
v 0.4 3.7 0
v -0.4 3.7 -0.1
v -0.3 3.7 -0.1
v -0.1 3.7 -0.1
v 0 3.7 -0.1
v 0.1 3.7 -0.1
v 0 3.7 -0.3
v 0.1 3.7 -0.3
v 0 3.7 -0.4
v 0.1 3.7 -0.4
v -0.4 4 0.4
v -0.3 4 0.4
v -0.1 4 0.4
v 0 4 0.4
v 0.3 4 0.4
v 0.4 4 0.4
v -0.4 4 0.3
v -0.3 4 0.3
v -0.1 4 0.3
v 0 4 0.3
v 0.3 4 0.3
v 0.4 4 0.3
v 0.3 4 0.1
v 0.4 4 0.1
v -0.4 4 0
v -0.3 4 0
v 0.3 4 0
v 0.4 4 0
v -0.4 4 -0.1
v -0.3 4 -0.1
v -0.4 4 -0.3
v -0.3 4 -0.3
v 0 4 -0.3
v 0.1 4 -0.3
v 0.3 4 -0.3
v 0.4 4 -0.3
v -0.4 4 -0.4
v -0.3 4 -0.4
v 0 4 -0.4
v 0.1 4 -0.4
v 0.3 4 -0.4
v 0.4 4 -0.4
v -0.1 4.3 0.3
v 0 4.3 0.3
v -0.1 4.3 0.1
v 0 4.3 0.1
v 0.1 4.3 0.1
v 0.3 4.3 0.1
v -0.3 4.3 0
v -0.1 4.3 0
v 0.1 4.3 0
v 0.3 4.3 0
v -0.3 4.3 -0.1
v -0.1 4.3 -0.1
v 0 4.3 -0.1
v 0.1 4.3 -0.1
v 0 4.3 -0.3
v 0.1 4.3 -0.3
v -0.1 3.8 0.3
v 0 3.8 0.3
v -0.1 3.8 0.1
v 0 3.8 0.1
v 0.1 3.8 0.1
v 0.3 3.8 0.1
v -0.3 3.8 0
v -0.1 3.8 0
v 0.1 3.8 0
v 0.3 3.8 0
v -0.3 3.8 -0.1
v -0.1 3.8 -0.1
v 0 3.8 -0.1
v 0.1 3.8 -0.1
v 0 3.8 -0.3
v 0.1 3.8 -0.3
v -0.4 4.1 0.4
v -0.3 4.1 0.4
v -0.1 4.1 0.4
v 0 4.1 0.4
v 0.3 4.1 0.4
v 0.4 4.1 0.4
v -0.4 4.1 0.3
v -0.3 4.1 0.3
v -0.1 4.1 0.3
v 0 4.1 0.3
v 0.3 4.1 0.3
v 0.4 4.1 0.3
v 0.3 4.1 0.1
v 0.4 4.1 0.1
v -0.4 4.1 0
v -0.3 4.1 0
v 0.3 4.1 0
v 0.4 4.1 0
v -0.4 4.1 -0.1
v -0.3 4.1 -0.1
v -0.4 4.1 -0.3
v -0.3 4.1 -0.3
v 0 4.1 -0.3
v 0.1 4.1 -0.3
v 0.3 4.1 -0.3
v 0.4 4.1 -0.3
v -0.4 4.1 -0.4
v -0.3 4.1 -0.4
v 0 4.1 -0.4
v 0.1 4.1 -0.4
v 0.3 4.1 -0.4
v 0.4 4.1 -0.4
v -0.1 4.4 0.4
v 0 4.4 0.4
v -0.1 4.4 0.3
v 0 4.4 0.3
v -0.1 4.4 0.1
v 0 4.4 0.1
v 0.1 4.4 0.1
v 0.3 4.4 0.1
v 0.4 4.4 0.1
v -0.4 4.4 0
v -0.3 4.4 0
v -0.1 4.4 0
v 0.1 4.4 0
v 0.3 4.4 0
v 0.4 4.4 0
v -0.4 4.4 -0.1
v -0.3 4.4 -0.1
v -0.1 4.4 -0.1
v 0 4.4 -0.1
v 0.1 4.4 -0.1
v 0 4.4 -0.3
v 0.1 4.4 -0.3
v 0 4.4 -0.4
v 0.1 4.4 -0.4

# faces
f 3/2/1 2/2/1 1/2/1
f 4/2/1 2/2/1 3/2/1
f 7/1/1 4/1/1 3/1/1
f 8/1/1 4/1/1 7/1/1
f 11/2/1 6/2/1 5/2/1
f 12/1/1 7/1/1 6/1/1
f 12/2/1 6/2/1 11/2/1
f 13/2/1 8/2/1 7/2/1
f 13/1/1 7/1/1 12/1/1
f 14/1/1 9/1/1 8/1/1
f 14/2/1 8/2/1 13/2/1
f 15/2/1 10/2/1 9/2/1
f 15/1/1 9/1/1 14/1/1
f 16/2/1 10/2/1 15/2/1
f 17/1/1 14/1/1 13/1/1
f 18/1/1 14/1/1 17/1/1
f 19/2/1 18/2/1 17/2/1
f 20/2/1 18/2/1 19/2/1
f 25/2/1 22/2/1 21/2/1
f 26/1/1 23/1/1 22/1/1
f 26/2/1 22/2/1 25/2/1
f 27/2/1 24/2/1 23/2/1
f 27/1/1 23/1/1 26/1/1
f 28/2/1 24/2/1 27/2/1
f 29/1/1 26/1/1 25/1/1
f 30/1/1 26/1/1 29/1/1
f 33/1/1 32/1/1 31/1/1
f 34/1/1 32/1/1 33/1/1
f 37/2/1 34/2/1 33/2/1
f 38/1/1 35/1/1 34/1/1
f 38/2/1 34/2/1 37/2/1
f 39/2/1 36/2/1 35/2/1
f 39/1/1 35/1/1 38/1/1
f 40/2/1 36/2/1 39/2/1
f 44/1/1 42/1/1 41/1/1
f 45/2/1 43/2/1 42/2/1
f 45/1/1 42/1/1 44/1/1
f 46/2/1 43/2/1 45/2/1
f 47/1/1 46/1/1 45/1/1
f 48/1/1 46/1/1 47/1/1
f 52/1/1 50/1/1 49/1/1
f 53/1/1 50/1/1 52/1/1
f 54/1/1 52/1/1 51/1/1
f 55/2/1 53/2/1 52/2/1
f 55/1/1 52/1/1 54/1/1
f 56/2/1 53/2/1 55/2/1
f 60/1/1 58/1/1 57/1/1
f 61/1/1 58/1/1 60/1/1
f 63/1/1 60/1/1 59/1/1
f 64/2/1 61/2/1 60/2/1
f 64/1/1 60/1/1 63/1/1
f 65/1/1 62/1/1 61/1/1
f 65/2/1 61/2/1 64/2/1
f 66/1/1 62/1/1 65/1/1
f 67/1/1 65/1/1 64/1/1
f 68/1/1 65/1/1 67/1/1
f 69/1/2 70/1/2 72/1/2
f 72/1/2 70/1/2 73/1/2
f 71/1/2 72/1/2 75/1/2
f 72/2/2 73/2/2 76/2/2
f 75/1/2 72/1/2 76/1/2
f 73/1/2 74/1/2 77/1/2
f 76/2/2 73/2/2 77/2/2
f 77/1/2 74/1/2 78/1/2
f 76/1/2 77/1/2 79/1/2
f 79/1/2 77/1/2 80/1/2
f 81/2/2 82/2/2 84/2/2
f 82/1/2 83/1/2 85/1/2
f 84/2/2 82/2/2 85/2/2
f 85/1/2 83/1/2 86/1/2
f 84/1/2 85/1/2 87/1/2
f 87/1/2 85/1/2 88/1/2
f 89/1/2 90/1/2 91/1/2
f 91/1/2 90/1/2 92/1/2
f 91/2/2 92/2/2 94/2/2
f 92/1/2 93/1/2 95/1/2
f 94/2/2 92/2/2 95/2/2
f 95/1/2 93/1/2 96/1/2
f 97/2/2 98/2/2 101/2/2
f 98/1/2 99/1/2 102/1/2
f 101/2/2 98/2/2 102/2/2
f 99/2/2 100/2/2 103/2/2
f 102/1/2 99/1/2 103/1/2
f 103/2/2 100/2/2 104/2/2
f 103/1/2 104/1/2 105/1/2
f 105/1/2 104/1/2 106/1/2
f 107/1/2 108/1/2 111/1/2
f 111/1/2 108/1/2 112/1/2
f 109/2/2 110/2/2 113/2/2
f 110/1/2 111/1/2 114/1/2
f 113/2/2 110/2/2 114/2/2
f 111/2/2 112/2/2 115/2/2
f 114/1/2 111/1/2 115/1/2
f 115/2/2 112/2/2 116/2/2
f 117/2/2 118/2/2 119/2/2
f 119/2/2 118/2/2 120/2/2
f 119/1/2 120/1/2 123/1/2
f 123/1/2 120/1/2 124/1/2
f 121/2/2 122/2/2 127/2/2
f 122/1/2 123/1/2 128/1/2
f 127/2/2 122/2/2 128/2/2
f 123/2/2 124/2/2 129/2/2
f 128/1/2 123/1/2 129/1/2
f 124/1/2 125/1/2 130/1/2
f 129/2/2 124/2/2 130/2/2
f 125/2/2 126/2/2 131/2/2
f 130/1/2 125/1/2 131/1/2
f 131/2/2 126/2/2 132/2/2
f 129/1/2 130/1/2 133/1/2
f 133/1/2 130/1/2 134/1/2
f 133/2/2 134/2/2 135/2/2
f 135/2/2 134/2/2 136/2/2
f 139/2/3 138/2/3 137/2/3
f 140/2/3 138/2/3 139/2/3
f 143/1/3 140/1/3 139/1/3
f 144/1/3 140/1/3 143/1/3
f 147/2/3 142/2/3 141/2/3
f 148/1/3 143/1/3 142/1/3
f 148/2/3 142/2/3 147/2/3
f 149/2/3 144/2/3 143/2/3
f 149/1/3 143/1/3 148/1/3
f 150/1/3 145/1/3 144/1/3
f 150/2/3 144/2/3 149/2/3
f 151/2/3 146/2/3 145/2/3
f 151/1/3 145/1/3 150/1/3
f 152/2/3 146/2/3 151/2/3
f 153/1/3 150/1/3 149/1/3
f 154/1/3 150/1/3 153/1/3
f 155/2/3 154/2/3 153/2/3
f 156/2/3 154/2/3 155/2/3
f 161/2/3 158/2/3 157/2/3
f 162/2/3 158/2/3 161/2/3
f 163/2/3 160/2/3 159/2/3
f 164/2/3 160/2/3 163/2/3
f 165/1/3 162/1/3 161/1/3
f 166/1/3 162/1/3 165/1/3
f 169/1/3 164/1/3 163/1/3
f 170/1/3 164/1/3 169/1/3
f 171/2/3 166/2/3 165/2/3
f 172/1/3 167/1/3 166/1/3
f 172/2/3 166/2/3 171/2/3
f 173/1/3 167/1/3 172/1/3
f 174/1/3 169/1/3 168/1/3
f 175/2/3 170/2/3 169/2/3
f 175/1/3 169/1/3 174/1/3
f 176/2/3 170/2/3 175/2/3
f 183/2/3 178/2/3 177/2/3
f 184/1/3 179/1/3 178/1/3
f 184/2/3 178/2/3 183/2/3
f 185/1/3 179/1/3 184/1/3
f 186/1/3 181/1/3 180/1/3
f 187/2/3 182/2/3 181/2/3
f 187/1/3 181/1/3 186/1/3
f 188/2/3 182/2/3 187/2/3
f 189/1/3 184/1/3 183/1/3
f 190/1/3 184/1/3 189/1/3
f 191/1/3 188/1/3 187/1/3
f 192/1/3 188/1/3 191/1/3
f 196/1/3 194/1/3 193/1/3
f 197/1/3 194/1/3 196/1/3
f 199/1/3 196/1/3 195/1/3
f 200/2/3 197/2/3 196/2/3
f 200/1/3 196/1/3 199/1/3
f 201/1/3 198/1/3 197/1/3
f 201/2/3 197/2/3 200/2/3
f 202/1/3 198/1/3 201/1/3
f 203/1/3 201/1/3 200/1/3
f 204/1/3 201/1/3 203/1/3
f 205/1/4 206/1/4 208/1/4
f 208/1/4 206/1/4 209/1/4
f 207/1/4 208/1/4 211/1/4
f 208/2/4 209/2/4 212/2/4
f 211/1/4 208/1/4 212/1/4
f 209/1/4 210/1/4 213/1/4
f 212/2/4 209/2/4 213/2/4
f 213/1/4 210/1/4 214/1/4
f 212/1/4 213/1/4 215/1/4
f 215/1/4 213/1/4 216/1/4
f 217/1/4 218/1/4 221/1/4
f 221/1/4 218/1/4 222/1/4
f 219/1/4 220/1/4 225/1/4
f 225/1/4 220/1/4 226/1/4
f 221/2/4 222/2/4 227/2/4
f 222/1/4 223/1/4 228/1/4
f 227/2/4 222/2/4 228/2/4
f 228/1/4 223/1/4 229/1/4
f 224/1/4 225/1/4 230/1/4
f 225/2/4 226/2/4 231/2/4
f 230/1/4 225/1/4 231/1/4
f 231/2/4 226/2/4 232/2/4
f 233/2/4 234/2/4 239/2/4
f 234/1/4 235/1/4 240/1/4
f 239/2/4 234/2/4 240/2/4
f 240/1/4 235/1/4 241/1/4
f 236/1/4 237/1/4 242/1/4
f 237/2/4 238/2/4 243/2/4
f 242/1/4 237/1/4 243/1/4
f 243/2/4 238/2/4 244/2/4
f 239/1/4 240/1/4 245/1/4
f 245/1/4 240/1/4 246/1/4
f 243/1/4 244/1/4 247/1/4
f 247/1/4 244/1/4 248/1/4
f 245/2/4 246/2/4 249/2/4
f 249/2/4 246/2/4 250/2/4
f 247/2/4 248/2/4 251/2/4
f 251/2/4 248/2/4 252/2/4
f 253/2/4 254/2/4 255/2/4
f 255/2/4 254/2/4 256/2/4
f 255/1/4 256/1/4 259/1/4
f 259/1/4 256/1/4 260/1/4
f 257/2/4 258/2/4 263/2/4
f 258/1/4 259/1/4 264/1/4
f 263/2/4 258/2/4 264/2/4
f 259/2/4 260/2/4 265/2/4
f 264/1/4 259/1/4 265/1/4
f 260/1/4 261/1/4 266/1/4
f 265/2/4 260/2/4 266/2/4
f 261/2/4 262/2/4 267/2/4
f 266/1/4 261/1/4 267/1/4
f 267/2/4 262/2/4 268/2/4
f 265/1/4 266/1/4 269/1/4
f 269/1/4 266/1/4 270/1/4
f 269/2/4 270/2/4 271/2/4
f 271/2/4 270/2/4 272/2/4
f 275/2/5 274/2/5 273/2/5
f 276/2/5 274/2/5 275/2/5
f 277/1/5 276/1/5 275/1/5
f 278/1/5 276/1/5 277/1/5
f 284/2/5 278/2/5 277/2/5
f 284/2/5 279/2/5 278/2/5
f 285/1/5 280/1/5 279/1/5
f 285/2/5 279/2/5 284/2/5
f 286/2/5 281/2/5 280/2/5
f 286/1/5 280/1/5 285/1/5
f 287/2/5 281/2/5 286/2/5
f 288/2/5 283/2/5 282/2/5
f 289/1/5 284/1/5 283/1/5
f 289/2/5 283/2/5 288/2/5
f 290/2/5 285/2/5 284/2/5
f 290/1/5 284/1/5 289/1/5
f 291/2/5 285/2/5 290/2/5
f 292/2/5 285/2/5 291/2/5
f 293/1/5 292/1/5 291/1/5
f 294/1/5 292/1/5 293/1/5
f 295/2/5 294/2/5 293/2/5
f 296/2/5 294/2/5 295/2/5
f 303/2/5 298/2/5 297/2/5
f 304/1/5 299/1/5 298/1/5
f 304/2/5 298/2/5 303/2/5
f 305/1/5 299/1/5 304/1/5
f 306/1/5 301/1/5 300/1/5
f 307/2/5 302/2/5 301/2/5
f 307/1/5 301/1/5 306/1/5
f 308/2/5 302/2/5 307/2/5
f 309/1/5 308/1/5 307/1/5
f 310/1/5 308/1/5 309/1/5
f 311/1/5 304/1/5 303/1/5
f 312/1/5 304/1/5 311/1/5
f 317/1/5 316/1/5 315/1/5
f 318/1/5 316/1/5 317/1/5
f 321/1/5 314/1/5 313/1/5
f 322/1/5 314/1/5 321/1/5
f 323/2/5 318/2/5 317/2/5
f 324/1/5 319/1/5 318/1/5
f 324/2/5 318/2/5 323/2/5
f 325/1/5 319/1/5 324/1/5
f 326/1/5 321/1/5 320/1/5
f 327/2/5 322/2/5 321/2/5
f 327/1/5 321/1/5 326/1/5
f 328/2/5 322/2/5 327/2/5
f 331/1/5 330/1/5 329/1/5
f 332/1/5 330/1/5 331/1/5
f 336/2/5 332/2/5 331/2/5
f 336/2/5 333/2/5 332/2/5
f 337/1/5 334/1/5 333/1/5
f 337/2/5 333/2/5 336/2/5
f 338/1/5 334/1/5 337/1/5
f 339/1/5 336/1/5 335/1/5
f 340/2/5 337/2/5 336/2/5
f 340/1/5 336/1/5 339/1/5
f 341/2/5 337/2/5 340/2/5
f 342/2/5 337/2/5 341/2/5
f 343/1/5 342/1/5 341/1/5
f 344/1/5 342/1/5 343/1/5
f 345/1/6 346/1/6 347/1/6
f 347/1/6 346/1/6 348/1/6
f 347/2/6 348/2/6 352/2/6
f 348/2/6 349/2/6 352/2/6
f 349/1/6 350/1/6 353/1/6
f 352/2/6 349/2/6 353/2/6
f 353/1/6 350/1/6 354/1/6
f 351/1/6 352/1/6 355/1/6
f 352/2/6 353/2/6 356/2/6
f 355/1/6 352/1/6 356/1/6
f 356/2/6 353/2/6 357/2/6
f 357/2/6 353/2/6 358/2/6
f 357/1/6 358/1/6 359/1/6
f 359/1/6 358/1/6 360/1/6
f 361/2/6 362/2/6 367/2/6
f 362/1/6 363/1/6 368/1/6
f 367/2/6 362/2/6 368/2/6
f 368/1/6 363/1/6 369/1/6
f 364/1/6 365/1/6 370/1/6
f 365/2/6 366/2/6 371/2/6
f 370/1/6 365/1/6 371/1/6
f 371/2/6 366/2/6 372/2/6
f 371/1/6 372/1/6 373/1/6
f 373/1/6 372/1/6 374/1/6
f 367/1/6 368/1/6 375/1/6
f 375/1/6 368/1/6 376/1/6
f 379/1/6 380/1/6 381/1/6
f 381/1/6 380/1/6 382/1/6
f 377/1/6 378/1/6 385/1/6
f 385/1/6 378/1/6 386/1/6
f 381/2/6 382/2/6 387/2/6
f 382/1/6 383/1/6 388/1/6
f 387/2/6 382/2/6 388/2/6
f 388/1/6 383/1/6 389/1/6
f 384/1/6 385/1/6 390/1/6
f 385/2/6 386/2/6 391/2/6
f 390/1/6 385/1/6 391/1/6
f 391/2/6 386/2/6 392/2/6
f 393/2/6 394/2/6 395/2/6
f 395/2/6 394/2/6 396/2/6
f 395/1/6 396/1/6 397/1/6
f 397/1/6 396/1/6 398/1/6
f 397/2/6 398/2/6 404/2/6
f 398/2/6 399/2/6 404/2/6
f 399/1/6 400/1/6 405/1/6
f 404/2/6 399/2/6 405/2/6
f 400/2/6 401/2/6 406/2/6
f 405/1/6 400/1/6 406/1/6
f 406/2/6 401/2/6 407/2/6
f 402/2/6 403/2/6 408/2/6
f 403/1/6 404/1/6 409/1/6
f 408/2/6 403/2/6 409/2/6
f 404/2/6 405/2/6 410/2/6
f 409/1/6 404/1/6 410/1/6
f 410/2/6 405/2/6 411/2/6
f 411/2/6 405/2/6 412/2/6
f 411/1/6 412/1/6 413/1/6
f 413/1/6 412/1/6 414/1/6
f 413/2/6 414/2/6 415/2/6
f 415/2/6 414/2/6 416/2/6
