# MagicaVoxel @ Ephtracy

# group
o GnomeWarriorDetailed

# material
mtllib GnomeWarriorDetailed.mtl
usemtl palette

# normals
vn -1 0 0
vn 1 0 0
vn 0 0 1
vn 0 0 -1
vn 0 -1 0
vn 0 1 0

# texcoords
vt 0.00195312 0.5
vt 0.0332031 0.5
vt 0.0605469 0.5
vt 0.283203 0.5
vt 0.708984 0.5

# verts
v -1.4 0.6 1.2
v -1.4 0.6 1.1
v -1.4 0.7 1.2
v -1.4 0.7 1.1
v -1.4 0.8 1.4
v -1.4 0.8 0.9
v -1.4 0.9 1.4
v -1.4 0.9 0.9
v -1.3 0.4 1.2
v -1.3 0.4 1.1
v -1.3 0.5 1.3
v -1.3 0.5 1.2
v -1.3 0.5 1.1
v -1.3 0.5 1
v -1.3 0.5 0.9
v -1.3 0.6 1.2
v -1.3 0.6 1.1
v -1.3 0.7 1.2
v -1.3 0.7 1.1
v -1.3 0.7 1
v -1.3 0.7 0.9
v -1.3 0.8 1.3
v -1.3 0.8 1.1
v -1.3 0.8 1
v -1.3 0.9 1.3
v -1.3 0.9 1
v -1.3 1.1 1.3
v -1.3 1.1 1
v -1.2 1.1 1.2
v -1.2 1.1 1.1
v -1.2 1.2 1.2
v -1.2 1.2 1.1
v -1.1 0.4 1.2
v -1.1 0.4 1.1
v -1.1 0.5 1.2
v -1.1 0.5 1.1
v -1.2 0.4 1.2
v -1.2 0.4 1.1
v -1.2 0.5 1.2
v -1.2 0.5 1.1
v -1.1 0.5 1
v -1.1 0.5 0.9
v -1.1 0.6 1
v -1.1 0.6 0.9
v -1.1 1.1 1.2
v -1.1 1.1 1.1
v -1.1 1.2 1.2
v -1.1 1.2 1.1
v -1 0.4 1.2
v -1 0.4 1.1
v -1 0.5 1.3
v -1 0.5 1.2
v -1 0.5 1.1
v -1 0.5 1
v -1 0.6 1.2
v -1 0.6 1.1
v -1 0.6 1
v -1 0.6 0.9
v -1 0.7 1.2
v -1 0.7 1.1
v -1 0.7 1
v -1 0.7 0.9
v -1 0.8 1.3
v -1 0.8 1.1
v -1 0.8 1
v -1 0.9 1.3
v -1 0.9 1
v -1 1.1 1.3
v -1 1.1 1
v -0.9 0.6 1.2
v -0.9 0.6 1.1
v -0.9 0.7 1.2
v -0.9 0.7 1.1
v -0.9 0.8 1.4
v -0.9 0.8 0.9
v -0.9 0.9 1.4
v -0.9 0.9 0.9
v -1.4 0.8 1.4
v -1.4 0.9 1.4
v -0.9 0.8 1.4
v -0.9 0.9 1.4
v -1.3 0.5 1.3
v -1.3 0.8 1.3
v -1.3 0.9 1.3
v -1.3 1.1 1.3
v -1 0.5 1.3
v -1 0.8 1.3
v -1 0.9 1.3
v -1 1.1 1.3
v -1.4 0.6 1.2
v -1.4 0.7 1.2
v -1.3 0.4 1.2
v -1.3 0.5 1.2
v -1.3 0.6 1.2
v -1.3 0.7 1.2
v -1.2 0.4 1.2
v -1.2 0.5 1.2
v -1.2 1.1 1.2
v -1.2 1.2 1.2
v -1.1 0.4 1.2
v -1.1 0.5 1.2
v -1.1 1.1 1.2
v -1.1 1.2 1.2
v -1 0.4 1.2
v -1 0.5 1.2
v -1 0.6 1.2
v -1 0.7 1.2
v -0.9 0.6 1.2
v -0.9 0.7 1.2
v -1.4 0.6 1.1
v -1.4 0.7 1.1
v -1.3 0.4 1.1
v -1.3 0.5 1.1
v -1.3 0.6 1.1
v -1.3 0.7 1.1
v -1.2 0.4 1.1
v -1.2 0.5 1.1
v -1.2 1.1 1.1
v -1.2 1.2 1.1
v -1.1 0.4 1.1
v -1.1 0.5 1.1
v -1.1 1.1 1.1
v -1.1 1.2 1.1
v -1 0.4 1.1
v -1 0.5 1.1
v -1 0.6 1.1
v -1 0.7 1.1
v -0.9 0.6 1.1
v -0.9 0.7 1.1
v -1.3 0.7 1
v -1.3 0.8 1
v -1.3 0.9 1
v -1.3 1.1 1
v -1.2 0.7 1
v -1.2 0.8 1
v -1.1 0.5 1
v -1.1 0.6 1
v -1.1 0.7 1
v -1.1 0.8 1
v -1 0.5 1
v -1 0.6 1
v -1 0.7 1
v -1 0.8 1
v -1 0.9 1
v -1 1.1 1
v -1.4 0.8 0.9
v -1.4 0.9 0.9
v -1.3 0.5 0.9
v -1.3 0.7 0.9
v -1.1 0.5 0.9
v -1.1 0.6 0.9
v -1 0.6 0.9
v -1 0.7 0.9
v -0.9 0.8 0.9
v -0.9 0.9 0.9
v -1.3 0.4 1.2
v -1.2 0.4 1.2
v -1.1 0.4 1.2
v -1 0.4 1.2
v -1.3 0.4 1.1
v -1.2 0.4 1.1
v -1.1 0.4 1.1
v -1 0.4 1.1
v -1.3 0.5 1.3
v -1 0.5 1.3
v -1.3 0.5 1.2
v -1.2 0.5 1.2
v -1.1 0.5 1.2
v -1 0.5 1.2
v -1.3 0.5 1.1
v -1.2 0.5 1.1
v -1.1 0.5 1.1
v -1 0.5 1.1
v -1.3 0.5 1
v -1.1 0.5 1
v -1 0.5 1
v -1.3 0.5 0.9
v -1.1 0.5 0.9
v -1.4 0.6 1.2
v -1.3 0.6 1.2
v -1 0.6 1.2
v -0.9 0.6 1.2
v -1.4 0.6 1.1
v -1.3 0.6 1.1
v -1 0.6 1.1
v -0.9 0.6 1.1
v -1.1 0.6 1
v -1 0.6 1
v -1.1 0.6 0.9
v -1 0.6 0.9
v -1.4 0.8 1.4
v -0.9 0.8 1.4
v -1.3 0.8 1.3
v -1 0.8 1.3
v -1.3 0.8 1.1
v -1 0.8 1.1
v -1.3 0.8 1
v -1.2 0.8 1
v -1.1 0.8 1
v -1 0.8 1
v -1.4 0.8 0.9
v -0.9 0.8 0.9
v -1.4 0.7 1.2
v -1.3 0.7 1.2
v -1 0.7 1.2
v -0.9 0.7 1.2
v -1.4 0.7 1.1
v -1.3 0.7 1.1
v -1 0.7 1.1
v -0.9 0.7 1.1
v -1.3 0.7 1
v -1.2 0.7 1
v -1.1 0.7 1
v -1 0.7 1
v -1.3 0.7 0.9
v -1 0.7 0.9
v -1.4 0.9 1.4
v -0.9 0.9 1.4
v -1.3 0.9 1.3
v -1 0.9 1.3
v -1.3 0.9 1
v -1 0.9 1
v -1.4 0.9 0.9
v -0.9 0.9 0.9
v -1.3 1.1 1.3
v -1 1.1 1.3
v -1.2 1.1 1.2
v -1.1 1.1 1.2
v -1.2 1.1 1.1
v -1.1 1.1 1.1
v -1.3 1.1 1
v -1 1.1 1
v -1.2 1.2 1.2
v -1.1 1.2 1.2
v -1.2 1.2 1.1
v -1.1 1.2 1.1

# faces
f 3/4/1 2/4/1 1/4/1
f 4/4/1 2/4/1 3/4/1
f 7/3/1 6/3/1 5/3/1
f 8/3/1 6/3/1 7/3/1
f 12/4/1 10/4/1 9/4/1
f 13/4/1 10/4/1 12/4/1
f 16/5/1 12/5/1 11/5/1
f 16/5/1 13/5/1 12/5/1
f 16/5/1 14/5/1 13/5/1
f 17/5/1 14/5/1 16/5/1
f 18/5/1 16/5/1 11/5/1
f 19/5/1 14/5/1 17/5/1
f 20/2/1 15/2/1 14/2/1
f 20/5/1 14/5/1 19/5/1
f 21/2/1 15/2/1 20/2/1
f 22/5/1 19/5/1 18/5/1
f 22/5/1 18/5/1 11/5/1
f 23/1/1 20/1/1 19/1/1
f 23/5/1 19/5/1 22/5/1
f 24/1/1 20/1/1 23/1/1
f 27/3/1 26/3/1 25/3/1
f 28/3/1 26/3/1 27/3/1
f 31/3/1 30/3/1 29/3/1
f 32/3/1 30/3/1 31/3/1
f 35/4/1 34/4/1 33/4/1
f 36/4/1 34/4/1 35/4/1
f 37/4/2 38/4/2 39/4/2
f 39/4/2 38/4/2 40/4/2
f 41/2/2 42/2/2 43/2/2
f 43/2/2 42/2/2 44/2/2
f 45/3/2 46/3/2 47/3/2
f 47/3/2 46/3/2 48/3/2
f 49/4/2 50/4/2 52/4/2
f 52/4/2 50/4/2 53/4/2
f 51/5/2 52/5/2 55/5/2
f 53/5/2 54/5/2 55/5/2
f 52/5/2 53/5/2 55/5/2
f 55/5/2 54/5/2 56/5/2
f 56/5/2 54/5/2 57/5/2
f 51/5/2 55/5/2 59/5/2
f 56/5/2 57/5/2 60/5/2
f 57/2/2 58/2/2 61/2/2
f 60/5/2 57/5/2 61/5/2
f 61/2/2 58/2/2 62/2/2
f 59/5/2 60/5/2 63/5/2
f 51/5/2 59/5/2 63/5/2
f 60/1/2 61/1/2 64/1/2
f 63/5/2 60/5/2 64/5/2
f 64/1/2 61/1/2 65/1/2
f 66/3/2 67/3/2 68/3/2
f 68/3/2 67/3/2 69/3/2
f 70/4/2 71/4/2 72/4/2
f 72/4/2 71/4/2 73/4/2
f 74/3/2 75/3/2 76/3/2
f 76/3/2 75/3/2 77/3/2
f 80/3/3 79/3/3 78/3/3
f 81/3/3 79/3/3 80/3/3
f 86/5/3 83/5/3 82/5/3
f 87/5/3 83/5/3 86/5/3
f 88/3/3 85/3/3 84/3/3
f 89/3/3 85/3/3 88/3/3
f 94/4/3 91/4/3 90/4/3
f 95/4/3 91/4/3 94/4/3
f 96/4/3 93/4/3 92/4/3
f 97/4/3 93/4/3 96/4/3
f 102/3/3 99/3/3 98/3/3
f 103/3/3 99/3/3 102/3/3
f 104/4/3 101/4/3 100/4/3
f 105/4/3 101/4/3 104/4/3
f 108/4/3 107/4/3 106/4/3
f 109/4/3 107/4/3 108/4/3
f 110/4/4 111/4/4 114/4/4
f 114/4/4 111/4/4 115/4/4
f 112/4/4 113/4/4 116/4/4
f 116/4/4 113/4/4 117/4/4
f 118/3/4 119/3/4 122/3/4
f 122/3/4 119/3/4 123/3/4
f 120/4/4 121/4/4 124/4/4
f 124/4/4 121/4/4 125/4/4
f 126/4/4 127/4/4 128/4/4
f 128/4/4 127/4/4 129/4/4
f 130/1/4 131/1/4 134/1/4
f 134/1/4 131/1/4 135/1/4
f 134/4/4 135/4/4 138/4/4
f 138/4/4 135/4/4 139/4/4
f 136/5/4 137/5/4 140/5/4
f 140/5/4 137/5/4 141/5/4
f 138/1/4 139/1/4 142/1/4
f 142/1/4 139/1/4 143/1/4
f 132/3/4 133/3/4 144/3/4
f 144/3/4 133/3/4 145/3/4
f 148/2/4 149/2/4 150/2/4
f 150/2/4 149/2/4 151/2/4
f 151/2/4 149/2/4 152/2/4
f 152/2/4 149/2/4 153/2/4
f 146/3/4 147/3/4 154/3/4
f 154/3/4 147/3/4 155/3/4
f 160/4/5 157/4/5 156/4/5
f 161/4/5 157/4/5 160/4/5
f 162/4/5 159/4/5 158/4/5
f 163/4/5 159/4/5 162/4/5
f 166/5/5 165/5/5 164/5/5
f 167/5/5 165/5/5 166/5/5
f 168/5/5 165/5/5 167/5/5
f 169/5/5 165/5/5 168/5/5
f 171/5/5 168/5/5 167/5/5
f 172/5/5 168/5/5 171/5/5
f 174/5/5 171/5/5 170/5/5
f 174/5/5 173/5/5 172/5/5
f 174/5/5 172/5/5 171/5/5
f 175/5/5 173/5/5 174/5/5
f 176/5/5 173/5/5 175/5/5
f 177/2/5 175/2/5 174/2/5
f 178/2/5 175/2/5 177/2/5
f 183/4/5 180/4/5 179/4/5
f 184/4/5 180/4/5 183/4/5
f 185/4/5 182/4/5 181/4/5
f 186/4/5 182/4/5 185/4/5
f 189/2/5 188/2/5 187/2/5
f 190/2/5 188/2/5 189/2/5
f 193/3/5 192/3/5 191/3/5
f 194/3/5 192/3/5 193/3/5
f 195/3/5 193/3/5 191/3/5
f 196/3/5 192/3/5 194/3/5
f 197/3/5 195/3/5 191/3/5
f 200/3/5 192/3/5 196/3/5
f 201/3/5 199/3/5 198/3/5
f 201/3/5 200/3/5 199/3/5
f 201/3/5 197/3/5 191/3/5
f 201/3/5 198/3/5 197/3/5
f 202/3/5 192/3/5 200/3/5
f 202/3/5 200/3/5 201/3/5
f 203/4/6 204/4/6 207/4/6
f 207/4/6 204/4/6 208/4/6
f 205/4/6 206/4/6 209/4/6
f 209/4/6 206/4/6 210/4/6
f 211/2/6 212/2/6 215/2/6
f 213/2/6 214/2/6 215/2/6
f 212/2/6 213/2/6 215/2/6
f 215/2/6 214/2/6 216/2/6
f 217/3/6 218/3/6 219/3/6
f 219/3/6 218/3/6 220/3/6
f 217/3/6 219/3/6 221/3/6
f 220/3/6 218/3/6 222/3/6
f 217/3/6 221/3/6 223/3/6
f 221/3/6 222/3/6 223/3/6
f 222/3/6 218/3/6 224/3/6
f 223/3/6 222/3/6 224/3/6
f 225/3/6 226/3/6 227/3/6
f 227/3/6 226/3/6 228/3/6
f 225/3/6 227/3/6 229/3/6
f 228/3/6 226/3/6 230/3/6
f 225/3/6 229/3/6 231/3/6
f 229/3/6 230/3/6 231/3/6
f 230/3/6 226/3/6 232/3/6
f 231/3/6 230/3/6 232/3/6
f 233/3/6 234/3/6 235/3/6
f 235/3/6 234/3/6 236/3/6
