# MagicaVoxel @ Ephtracy

# group
o GnomeWarriorDetailed

# material
mtllib Knight.mtl
usemtl palette

# normals
vn -1 0 0
vn 1 0 0
vn 0 0 1
vn 0 0 -1
vn 0 -1 0
vn 0 1 0

# texcoords
vt 0.00195312 0.5
vt 0.0878906 0.5
vt 0.279297 0.5
vt 0.720703 0.5
vt 0.771484 0.5
vt 0.798828 0.5
vt 0.802734 0.5
vt 0.806641 0.5

# verts
v -0.2 0.2 0
v -0.2 0.2 -0.1
v -0.2 0.3 0
v -0.2 0.3 -0.1
v -0.2 0.4 0
v -0.2 0.4 -0.1
v -0.2 0.5 0.1
v -0.2 0.5 -0.2
v -0.2 0.7 0.1
v -0.2 0.7 -0.2
v -0.1 0 0
v -0.1 0 -0.1
v -0.1 0.1 0.1
v -0.1 0.1 0
v -0.1 0.1 -0.1
v -0.1 0.1 -0.2
v -0.1 0.2 0.1
v -0.1 0.2 0
v -0.1 0.2 -0.1
v -0.1 0.2 -0.2
v -0.1 0.3 0.1
v -0.1 0.3 0
v -0.1 0.3 -0.1
v -0.1 0.3 -0.2
v -0.1 0.4 0.1
v -0.1 0.4 0
v -0.1 0.4 -0.1
v -0.1 0.4 -0.2
v -0.1 0.5 0.2
v -0.1 0.5 0.1
v -0.1 0.5 -0.2
v -0.1 0.6 -0.2
v -0.1 0.6 -0.3
v -0.1 0.7 0.2
v -0.1 0.7 0.1
v -0.1 0.7 -0.2
v -0.1 0.7 -0.3
v -0.1 0.8 0.1
v -0.1 0.8 -0.2
v 0 0.4 -0.2
v 0 0.4 -0.3
v 0 0.5 -0.2
v 0 0.6 -0.2
v 0 0.6 -0.3
v 0.1 0 0
v 0.1 0 -0.1
v 0.1 0.1 0
v 0.1 0.1 -0.1
v 0 0 0
v 0 0 -0.1
v 0 0.1 0
v 0 0.1 -0.1
v 0.1 0.4 -0.2
v 0.1 0.4 -0.3
v 0.1 0.5 -0.2
v 0.1 0.6 -0.2
v 0.1 0.6 -0.3
v 0.2 0 0
v 0.2 0 -0.1
v 0.2 0.1 0.1
v 0.2 0.1 0
v 0.2 0.1 -0.1
v 0.2 0.1 -0.2
v 0.2 0.2 0.1
v 0.2 0.2 0
v 0.2 0.2 -0.1
v 0.2 0.2 -0.2
v 0.2 0.3 0.1
v 0.2 0.3 0
v 0.2 0.3 -0.1
v 0.2 0.3 -0.2
v 0.2 0.4 0.1
v 0.2 0.4 0
v 0.2 0.4 -0.1
v 0.2 0.4 -0.2
v 0.2 0.5 0.2
v 0.2 0.5 0.1
v 0.2 0.5 -0.2
v 0.2 0.6 -0.2
v 0.2 0.6 -0.3
v 0.2 0.7 0.2
v 0.2 0.7 0.1
v 0.2 0.7 -0.2
v 0.2 0.7 -0.3
v 0.2 0.8 0.1
v 0.2 0.8 -0.2
v 0.3 0.2 0
v 0.3 0.2 -0.1
v 0.3 0.3 0
v 0.3 0.3 -0.1
v 0.3 0.4 0
v 0.3 0.4 -0.1
v 0.3 0.5 0.1
v 0.3 0.5 -0.2
v 0.3 0.7 0.1
v 0.3 0.7 -0.2
v -0.1 0.5 0.2
v -0.1 0.7 0.2
v 0.2 0.5 0.2
v 0.2 0.7 0.2
v -0.2 0.5 0.1
v -0.2 0.7 0.1
v -0.1 0.1 0.1
v -0.1 0.2 0.1
v -0.1 0.3 0.1
v -0.1 0.4 0.1
v -0.1 0.5 0.1
v -0.1 0.7 0.1
v -0.1 0.8 0.1
v 0 0.1 0.1
v 0 0.2 0.1
v 0 0.3 0.1
v 0 0.4 0.1
v 0.1 0.1 0.1
v 0.1 0.2 0.1
v 0.1 0.3 0.1
v 0.1 0.4 0.1
v 0.2 0.1 0.1
v 0.2 0.2 0.1
v 0.2 0.3 0.1
v 0.2 0.4 0.1
v 0.2 0.5 0.1
v 0.2 0.7 0.1
v 0.2 0.8 0.1
v 0.3 0.5 0.1
v 0.3 0.7 0.1
v -0.2 0.2 0
v -0.2 0.3 0
v -0.2 0.4 0
v -0.1 0 0
v -0.1 0.1 0
v -0.1 0.2 0
v -0.1 0.3 0
v -0.1 0.4 0
v 0 0 0
v 0 0.1 0
v 0.1 0 0
v 0.1 0.1 0
v 0.2 0 0
v 0.2 0.1 0
v 0.2 0.2 0
v 0.2 0.3 0
v 0.2 0.4 0
v 0.3 0.2 0
v 0.3 0.3 0
v 0.3 0.4 0
v -0.2 0.2 -0.1
v -0.2 0.3 -0.1
v -0.2 0.4 -0.1
v -0.1 0 -0.1
v -0.1 0.1 -0.1
v -0.1 0.2 -0.1
v -0.1 0.3 -0.1
v -0.1 0.4 -0.1
v 0 0 -0.1
v 0 0.1 -0.1
v 0.1 0 -0.1
v 0.1 0.1 -0.1
v 0.2 0 -0.1
v 0.2 0.1 -0.1
v 0.2 0.2 -0.1
v 0.2 0.3 -0.1
v 0.2 0.4 -0.1
v 0.3 0.2 -0.1
v 0.3 0.3 -0.1
v 0.3 0.4 -0.1
v -0.2 0.5 -0.2
v -0.2 0.7 -0.2
v -0.1 0.1 -0.2
v -0.1 0.2 -0.2
v -0.1 0.3 -0.2
v -0.1 0.4 -0.2
v -0.1 0.5 -0.2
v -0.1 0.6 -0.2
v -0.1 0.7 -0.2
v -0.1 0.8 -0.2
v 0 0.1 -0.2
v 0 0.2 -0.2
v 0 0.3 -0.2
v 0 0.4 -0.2
v 0 0.5 -0.2
v 0 0.6 -0.2
v 0.1 0.1 -0.2
v 0.1 0.2 -0.2
v 0.1 0.3 -0.2
v 0.1 0.4 -0.2
v 0.1 0.5 -0.2
v 0.1 0.6 -0.2
v 0.2 0.1 -0.2
v 0.2 0.2 -0.2
v 0.2 0.3 -0.2
v 0.2 0.4 -0.2
v 0.2 0.5 -0.2
v 0.2 0.6 -0.2
v 0.2 0.7 -0.2
v 0.2 0.8 -0.2
v 0.3 0.5 -0.2
v 0.3 0.7 -0.2
v -0.1 0.6 -0.3
v -0.1 0.7 -0.3
v 0 0.4 -0.3
v 0 0.6 -0.3
v 0.1 0.4 -0.3
v 0.1 0.6 -0.3
v 0.2 0.6 -0.3
v 0.2 0.7 -0.3
v -0.1 0 0
v 0 0 0
v 0.1 0 0
v 0.2 0 0
v -0.1 0 -0.1
v 0 0 -0.1
v 0.1 0 -0.1
v 0.2 0 -0.1
v -0.1 0.1 0.1
v 0 0.1 0.1
v 0.1 0.1 0.1
v 0.2 0.1 0.1
v -0.1 0.1 0
v 0 0.1 0
v 0.1 0.1 0
v 0.2 0.1 0
v -0.1 0.1 -0.1
v 0 0.1 -0.1
v 0.1 0.1 -0.1
v 0.2 0.1 -0.1
v -0.1 0.1 -0.2
v 0 0.1 -0.2
v 0.1 0.1 -0.2
v 0.2 0.1 -0.2
v -0.2 0.2 0
v -0.1 0.2 0
v 0.2 0.2 0
v 0.3 0.2 0
v -0.2 0.2 -0.1
v -0.1 0.2 -0.1
v 0.2 0.2 -0.1
v 0.3 0.2 -0.1
v 0 0.4 -0.2
v 0.1 0.4 -0.2
v 0 0.4 -0.3
v 0.1 0.4 -0.3
v -0.1 0.5 0.2
v 0.2 0.5 0.2
v -0.2 0.5 0.1
v -0.1 0.5 0.1
v 0.2 0.5 0.1
v 0.3 0.5 0.1
v -0.2 0.5 -0.2
v -0.1 0.5 -0.2
v 0.2 0.5 -0.2
v 0.3 0.5 -0.2
v -0.1 0.6 -0.2
v 0 0.6 -0.2
v 0.1 0.6 -0.2
v 0.2 0.6 -0.2
v -0.1 0.6 -0.3
v 0 0.6 -0.3
v 0.1 0.6 -0.3
v 0.2 0.6 -0.3
v -0.2 0.4 0
v -0.1 0.4 0
v 0.2 0.4 0
v 0.3 0.4 0
v -0.2 0.4 -0.1
v -0.1 0.4 -0.1
v 0.2 0.4 -0.1
v 0.3 0.4 -0.1
v -0.1 0.7 0.2
v 0.2 0.7 0.2
v -0.2 0.7 0.1
v -0.1 0.7 0.1
v 0.2 0.7 0.1
v 0.3 0.7 0.1
v -0.2 0.7 -0.2
v -0.1 0.7 -0.2
v 0.2 0.7 -0.2
v 0.3 0.7 -0.2
v -0.1 0.7 -0.3
v 0.2 0.7 -0.3
v -0.1 0.8 0.1
v 0.2 0.8 0.1
v -0.1 0.8 -0.2
v 0.2 0.8 -0.2

# faces
f 3/3/1 2/3/1 1/3/1
f 4/3/1 2/3/1 3/3/1
f 5/2/1 4/2/1 3/2/1
f 6/2/1 4/2/1 5/2/1
f 9/7/1 8/7/1 7/7/1
f 10/7/1 8/7/1 9/7/1
f 14/4/1 12/4/1 11/4/1
f 15/4/1 12/4/1 14/4/1
f 17/8/1 14/8/1 13/8/1
f 18/7/1 15/7/1 14/7/1
f 18/8/1 14/8/1 17/8/1
f 19/8/1 16/8/1 15/8/1
f 19/7/1 15/7/1 18/7/1
f 20/8/1 16/8/1 19/8/1
f 21/7/1 18/7/1 17/7/1
f 22/7/1 18/7/1 21/7/1
f 23/7/1 20/7/1 19/7/1
f 24/7/1 20/7/1 23/7/1
f 25/8/1 22/8/1 21/8/1
f 26/8/1 22/8/1 25/8/1
f 27/8/1 24/8/1 23/8/1
f 28/8/1 24/8/1 27/8/1
f 30/3/1 26/3/1 25/3/1
f 30/3/1 27/3/1 26/3/1
f 30/3/1 28/3/1 27/3/1
f 31/3/1 28/3/1 30/3/1
f 34/7/1 30/7/1 29/7/1
f 35/7/1 30/7/1 34/7/1
f 36/7/1 33/7/1 32/7/1
f 37/7/1 33/7/1 36/7/1
f 38/7/1 36/7/1 35/7/1
f 39/7/1 36/7/1 38/7/1
f 42/7/1 41/7/1 40/7/1
f 43/7/1 41/7/1 42/7/1
f 44/7/1 41/7/1 43/7/1
f 47/4/1 46/4/1 45/4/1
f 48/4/1 46/4/1 47/4/1
f 49/4/2 50/4/2 51/4/2
f 51/4/2 50/4/2 52/4/2
f 53/7/2 54/7/2 55/7/2
f 55/7/2 54/7/2 56/7/2
f 56/7/2 54/7/2 57/7/2
f 58/4/2 59/4/2 61/4/2
f 61/4/2 59/4/2 62/4/2
f 60/8/2 61/8/2 64/8/2
f 61/7/2 62/7/2 65/7/2
f 64/8/2 61/8/2 65/8/2
f 62/8/2 63/8/2 66/8/2
f 65/7/2 62/7/2 66/7/2
f 66/8/2 63/8/2 67/8/2
f 64/7/2 65/7/2 68/7/2
f 68/7/2 65/7/2 69/7/2
f 66/7/2 67/7/2 70/7/2
f 70/7/2 67/7/2 71/7/2
f 68/8/2 69/8/2 72/8/2
f 72/8/2 69/8/2 73/8/2
f 70/8/2 71/8/2 74/8/2
f 74/8/2 71/8/2 75/8/2
f 72/3/2 73/3/2 77/3/2
f 73/3/2 74/3/2 77/3/2
f 74/3/2 75/3/2 77/3/2
f 77/3/2 75/3/2 78/3/2
f 76/7/2 77/7/2 81/7/2
f 81/7/2 77/7/2 82/7/2
f 79/7/2 80/7/2 83/7/2
f 83/7/2 80/7/2 84/7/2
f 82/7/2 83/7/2 85/7/2
f 85/7/2 83/7/2 86/7/2
f 87/3/2 88/3/2 89/3/2
f 89/3/2 88/3/2 90/3/2
f 89/2/2 90/2/2 91/2/2
f 91/2/2 90/2/2 92/2/2
f 93/7/2 94/7/2 95/7/2
f 95/7/2 94/7/2 96/7/2
f 99/7/3 98/7/3 97/7/3
f 100/7/3 98/7/3 99/7/3
f 107/7/3 102/7/3 101/7/3
f 108/7/3 102/7/3 107/7/3
f 110/8/3 104/8/3 103/8/3
f 111/7/3 105/7/3 104/7/3
f 111/8/3 104/8/3 110/8/3
f 112/8/3 106/8/3 105/8/3
f 112/7/3 105/7/3 111/7/3
f 113/3/3 107/3/3 106/3/3
f 113/8/3 106/8/3 112/8/3
f 114/7/3 111/7/3 110/7/3
f 115/8/3 112/8/3 111/8/3
f 115/7/3 111/7/3 114/7/3
f 116/7/3 113/7/3 112/7/3
f 116/8/3 112/8/3 115/8/3
f 117/3/3 107/3/3 113/3/3
f 117/7/3 113/7/3 116/7/3
f 118/8/3 115/8/3 114/8/3
f 119/7/3 116/7/3 115/7/3
f 119/8/3 115/8/3 118/8/3
f 120/8/3 117/8/3 116/8/3
f 120/7/3 116/7/3 119/7/3
f 121/3/3 107/3/3 117/3/3
f 121/8/3 117/8/3 120/8/3
f 122/3/3 107/3/3 121/3/3
f 123/7/3 109/7/3 108/7/3
f 124/7/3 109/7/3 123/7/3
f 125/7/3 123/7/3 122/7/3
f 126/7/3 123/7/3 125/7/3
f 132/3/3 128/3/3 127/3/3
f 133/2/3 129/2/3 128/2/3
f 133/3/3 128/3/3 132/3/3
f 134/2/3 129/2/3 133/2/3
f 135/4/3 131/4/3 130/4/3
f 136/4/3 131/4/3 135/4/3
f 139/4/3 138/4/3 137/4/3
f 140/4/3 138/4/3 139/4/3
f 144/3/3 142/3/3 141/3/3
f 145/2/3 143/2/3 142/2/3
f 145/3/3 142/3/3 144/3/3
f 146/2/3 143/2/3 145/2/3
f 147/3/4 148/3/4 152/3/4
f 148/2/4 149/2/4 153/2/4
f 152/3/4 148/3/4 153/3/4
f 153/2/4 149/2/4 154/2/4
f 150/4/4 151/4/4 155/4/4
f 155/4/4 151/4/4 156/4/4
f 157/4/4 158/4/4 159/4/4
f 159/4/4 158/4/4 160/4/4
f 161/3/4 162/3/4 164/3/4
f 162/2/4 163/2/4 165/2/4
f 164/3/4 162/3/4 165/3/4
f 165/2/4 163/2/4 166/2/4
f 167/7/4 168/7/4 173/7/4
f 173/7/4 168/7/4 174/7/4
f 174/7/4 168/7/4 175/7/4
f 169/8/4 170/8/4 177/8/4
f 170/7/4 171/7/4 178/7/4
f 177/8/4 170/8/4 178/8/4
f 171/8/4 172/8/4 179/8/4
f 178/7/4 171/7/4 179/7/4
f 172/3/4 173/3/4 180/3/4
f 179/8/4 172/8/4 180/8/4
f 173/1/4 174/1/4 181/1/4
f 180/3/4 173/3/4 181/3/4
f 181/1/4 174/1/4 182/1/4
f 177/7/4 178/7/4 183/7/4
f 178/8/4 179/8/4 184/8/4
f 183/7/4 178/7/4 184/7/4
f 179/6/4 180/6/4 185/6/4
f 184/8/4 179/8/4 185/8/4
f 185/6/4 180/6/4 186/6/4
f 183/8/4 184/8/4 189/8/4
f 184/7/4 185/7/4 190/7/4
f 189/8/4 184/8/4 190/8/4
f 185/8/4 186/8/4 191/8/4
f 190/7/4 185/7/4 191/7/4
f 186/3/4 187/3/4 192/3/4
f 191/8/4 186/8/4 192/8/4
f 187/1/4 188/1/4 193/1/4
f 192/3/4 187/3/4 193/3/4
f 193/1/4 188/1/4 194/1/4
f 175/7/4 176/7/4 195/7/4
f 195/7/4 176/7/4 196/7/4
f 193/7/4 194/7/4 197/7/4
f 194/7/4 195/7/4 197/7/4
f 197/7/4 195/7/4 198/7/4
f 199/7/4 200/7/4 202/7/4
f 201/7/4 202/7/4 203/7/4
f 202/7/4 200/7/4 204/7/4
f 203/7/4 202/7/4 204/7/4
f 204/7/4 200/7/4 205/7/4
f 205/7/4 200/7/4 206/7/4
f 211/4/5 208/4/5 207/4/5
f 212/4/5 208/4/5 211/4/5
f 213/4/5 210/4/5 209/4/5
f 214/4/5 210/4/5 213/4/5
f 219/8/5 216/8/5 215/8/5
f 220/7/5 217/7/5 216/7/5
f 220/8/5 216/8/5 219/8/5
f 221/8/5 218/8/5 217/8/5
f 221/7/5 217/7/5 220/7/5
f 222/8/5 218/8/5 221/8/5
f 224/8/5 221/8/5 220/8/5
f 225/8/5 221/8/5 224/8/5
f 227/8/5 224/8/5 223/8/5
f 228/7/5 225/7/5 224/7/5
f 228/8/5 224/8/5 227/8/5
f 229/8/5 226/8/5 225/8/5
f 229/7/5 225/7/5 228/7/5
f 230/8/5 226/8/5 229/8/5
f 235/3/5 232/3/5 231/3/5
f 236/3/5 232/3/5 235/3/5
f 237/3/5 234/3/5 233/3/5
f 238/3/5 234/3/5 237/3/5
f 241/7/5 240/7/5 239/7/5
f 242/7/5 240/7/5 241/7/5
f 246/7/5 244/7/5 243/7/5
f 247/7/5 244/7/5 246/7/5
f 249/7/5 246/7/5 245/7/5
f 250/7/5 246/7/5 249/7/5
f 251/7/5 248/7/5 247/7/5
f 252/7/5 248/7/5 251/7/5
f 257/7/5 254/7/5 253/7/5
f 258/7/5 254/7/5 257/7/5
f 259/7/5 256/7/5 255/7/5
f 260/7/5 256/7/5 259/7/5
f 261/2/6 262/2/6 265/2/6
f 265/2/6 262/2/6 266/2/6
f 263/2/6 264/2/6 267/2/6
f 267/2/6 264/2/6 268/2/6
f 269/7/6 270/7/6 272/7/6
f 272/7/6 270/7/6 273/7/6
f 271/7/6 272/7/6 275/7/6
f 275/7/6 272/7/6 276/7/6
f 273/7/6 274/7/6 277/7/6
f 277/7/6 274/7/6 278/7/6
f 276/7/6 277/7/6 279/7/6
f 279/7/6 277/7/6 280/7/6
f 281/7/6 282/7/6 283/7/6
f 283/7/6 282/7/6 284/7/6
