# MagicaVoxel @ Ephtracy

# group
o GnomeWarriorDetailed

# material
mtllib KnightDetailed.mtl
usemtl palette

# normals
vn -1 0 0
vn 1 0 0
vn 0 0 1
vn 0 0 -1
vn 0 -1 0
vn 0 1 0

# texcoords
vt 0.00195312 0.5
vt 0.115234 0.5
vt 0.279297 0.5
vt 0.720703 0.5
vt 0.771484 0.5
vt 0.798828 0.5

# verts
v -1.4 0.5 1.2
v -1.4 0.5 1.1
v -1.4 0.6 1.3
v -1.4 0.6 1.2
v -1.4 0.7 1.2
v -1.4 0.7 1.1
v -1.4 0.8 1.1
v -1.4 0.8 1
v -1.4 0.9 1.3
v -1.4 0.9 1.2
v -1.4 0.9 1.1
v -1.4 0.9 1
v -1.4 1 1.2
v -1.4 1 1.1
v -1.3 0.3 1.2
v -1.3 0.3 1.1
v -1.3 0.4 1.3
v -1.3 0.4 1.2
v -1.3 0.4 1.1
v -1.3 0.4 1
v -1.3 0.5 1.2
v -1.3 0.5 1.1
v -1.3 0.6 1.3
v -1.3 0.6 1.2
v -1.3 0.7 1.1
v -1.3 0.7 1
v -1.3 0.8 1.4
v -1.3 0.8 1.3
v -1.3 0.8 1.1
v -1.3 0.8 1
v -1.3 0.9 1.4
v -1.3 0.9 1.3
v -1.3 0.9 1.2
v -1.3 0.9 1.1
v -1.3 0.9 1
v -1.3 1 1.3
v -1.3 1 1.2
v -1.3 1 1.1
v -1.3 1 1
v -1.1 0.3 1.2
v -1.1 0.3 1.1
v -1.1 0.4 1.2
v -1.1 0.4 1.1
v -1.2 0.3 1.2
v -1.2 0.3 1.1
v -1.2 0.4 1.2
v -1.2 0.4 1.1
v -1 0.3 1.2
v -1 0.3 1.1
v -1 0.4 1.3
v -1 0.4 1.2
v -1 0.4 1.1
v -1 0.4 1
v -1 0.5 1.2
v -1 0.5 1.1
v -1 0.7 1.3
v -1 0.7 1.2
v -1 0.7 1.1
v -1 0.7 1
v -1 0.8 1.4
v -1 0.8 1.3
v -1 0.8 1
v -1 0.9 1.4
v -1 0.9 1.3
v -1 0.9 1
v -1 1 1.3
v -1 1 1
v -0.9 0.5 1.2
v -0.9 0.5 1.1
v -0.9 0.7 1.2
v -0.9 0.7 1.1
v -0.9 0.8 1.3
v -0.9 0.8 1
v -0.9 0.9 1.3
v -0.9 0.9 1
v -1.3 0.8 1.4
v -1.3 0.9 1.4
v -1 0.8 1.4
v -1 0.9 1.4
v -1.4 0.6 1.3
v -1.4 0.9 1.3
v -1.3 0.4 1.3
v -1.3 0.6 1.3
v -1.3 0.7 1.3
v -1.3 0.8 1.3
v -1.3 0.9 1.3
v -1.3 1 1.3
v -1 0.4 1.3
v -1 0.7 1.3
v -1 0.8 1.3
v -1 0.9 1.3
v -1 1 1.3
v -0.9 0.8 1.3
v -0.9 0.9 1.3
v -1.4 0.5 1.2
v -1.4 0.6 1.2
v -1.4 0.9 1.2
v -1.4 1 1.2
v -1.3 0.3 1.2
v -1.3 0.4 1.2
v -1.3 0.5 1.2
v -1.3 0.6 1.2
v -1.3 0.9 1.2
v -1.3 1 1.2
v -1.2 0.3 1.2
v -1.2 0.4 1.2
v -1.1 0.3 1.2
v -1.1 0.4 1.2
v -1 0.3 1.2
v -1 0.4 1.2
v -1 0.5 1.2
v -1 0.7 1.2
v -0.9 0.5 1.2
v -0.9 0.7 1.2
v -1.4 0.5 1.1
v -1.4 0.7 1.1
v -1.4 0.8 1.1
v -1.4 0.9 1.1
v -1.4 1 1.1
v -1.3 0.3 1.1
v -1.3 0.4 1.1
v -1.3 0.5 1.1
v -1.3 0.7 1.1
v -1.3 0.8 1.1
v -1.3 0.9 1.1
v -1.3 1 1.1
v -1.2 0.3 1.1
v -1.2 0.4 1.1
v -1.1 0.3 1.1
v -1.1 0.4 1.1
v -1 0.3 1.1
v -1 0.4 1.1
v -1 0.5 1.1
v -1 0.7 1.1
v -0.9 0.5 1.1
v -0.9 0.7 1.1
v -1.4 0.8 1
v -1.4 0.9 1
v -1.3 0.4 1
v -1.3 0.7 1
v -1.3 0.8 1
v -1.3 0.9 1
v -1.3 1 1
v -1.2 0.6 1
v -1.2 0.7 1
v -1.2 0.8 1
v -1.2 0.9 1
v -1.1 0.6 1
v -1.1 0.7 1
v -1.1 0.8 1
v -1.1 0.9 1
v -1 0.4 1
v -1 0.7 1
v -1 0.8 1
v -1 0.9 1
v -1 1 1
v -0.9 0.8 1
v -0.9 0.9 1
v -1.3 0.3 1.2
v -1.2 0.3 1.2
v -1.1 0.3 1.2
v -1 0.3 1.2
v -1.3 0.3 1.1
v -1.2 0.3 1.1
v -1.1 0.3 1.1
v -1 0.3 1.1
v -1.3 0.4 1.3
v -1 0.4 1.3
v -1.3 0.4 1.2
v -1.2 0.4 1.2
v -1.1 0.4 1.2
v -1 0.4 1.2
v -1.3 0.4 1.1
v -1.2 0.4 1.1
v -1.1 0.4 1.1
v -1 0.4 1.1
v -1.3 0.4 1
v -1 0.4 1
v -1.4 0.5 1.2
v -1.3 0.5 1.2
v -1 0.5 1.2
v -0.9 0.5 1.2
v -1.4 0.5 1.1
v -1.3 0.5 1.1
v -1 0.5 1.1
v -0.9 0.5 1.1
v -1.4 0.6 1.3
v -1.3 0.6 1.3
v -1.4 0.6 1.2
v -1.3 0.6 1.2
v -1.3 0.8 1.4
v -1 0.8 1.4
v -1.3 0.8 1.3
v -1 0.8 1.3
v -0.9 0.8 1.3
v -1.4 0.8 1.1
v -1.3 0.8 1.1
v -1.4 0.8 1
v -1.3 0.8 1
v -1 0.8 1
v -0.9 0.8 1
v -1 0.7 1.2
v -0.9 0.7 1.2
v -1 0.7 1.1
v -0.9 0.7 1.1
v -1.3 0.9 1.4
v -1 0.9 1.4
v -1.4 0.9 1.3
v -1.3 0.9 1.3
v -1 0.9 1.3
v -0.9 0.9 1.3
v -1.4 0.9 1.2
v -1.3 0.9 1.2
v -1.4 0.9 1.1
v -1.3 0.9 1.1
v -1.4 0.9 1
v -1.3 0.9 1
v -1 0.9 1
v -0.9 0.9 1
v -1.3 1 1.3
v -1 1 1.3
v -1.4 1 1.2
v -1.3 1 1.2
v -1.4 1 1.1
v -1.3 1 1.1
v -1.3 1 1
v -1 1 1

# faces
f 4/6/1 2/6/1 1/6/1
f 5/6/1 2/6/1 4/6/1
f 5/2/1 4/2/1 3/2/1
f 6/6/1 2/6/1 5/6/1
f 7/2/1 6/2/1 5/2/1
f 9/2/1 5/2/1 3/2/1
f 9/2/1 8/2/1 7/2/1
f 9/2/1 7/2/1 5/2/1
f 10/2/1 8/2/1 9/2/1
f 11/2/1 8/2/1 10/2/1
f 12/2/1 8/2/1 11/2/1
f 13/2/1 11/2/1 10/2/1
f 14/2/1 11/2/1 13/2/1
f 18/4/1 16/4/1 15/4/1
f 19/4/1 16/4/1 18/4/1
f 21/5/1 18/5/1 17/5/1
f 21/5/1 20/5/1 19/5/1
f 21/5/1 19/5/1 18/5/1
f 22/5/1 20/5/1 21/5/1
f 23/5/1 21/5/1 17/5/1
f 24/5/1 21/5/1 23/5/1
f 25/5/1 20/5/1 22/5/1
f 26/5/1 20/5/1 25/5/1
f 29/3/1 26/3/1 25/3/1
f 30/3/1 26/3/1 29/3/1
f 31/2/1 28/2/1 27/2/1
f 32/2/1 28/2/1 31/2/1
f 36/2/1 33/2/1 32/2/1
f 37/2/1 33/2/1 36/2/1
f 38/2/1 35/2/1 34/2/1
f 39/2/1 35/2/1 38/2/1
f 42/4/1 41/4/1 40/4/1
f 43/4/1 41/4/1 42/4/1
f 44/4/2 45/4/2 46/4/2
f 46/4/2 45/4/2 47/4/2
f 48/4/2 49/4/2 51/4/2
f 51/4/2 49/4/2 52/4/2
f 50/5/2 51/5/2 54/5/2
f 52/5/2 53/5/2 54/5/2
f 51/5/2 52/5/2 54/5/2
f 54/5/2 53/5/2 55/5/2
f 50/5/2 54/5/2 56/5/2
f 56/5/2 54/5/2 57/5/2
f 55/5/2 53/5/2 58/5/2
f 58/5/2 53/5/2 59/5/2
f 56/3/2 57/3/2 61/3/2
f 57/3/2 58/3/2 61/3/2
f 58/3/2 59/3/2 61/3/2
f 61/3/2 59/3/2 62/3/2
f 60/2/2 61/2/2 63/2/2
f 63/2/2 61/2/2 64/2/2
f 64/2/2 65/2/2 66/2/2
f 66/2/2 65/2/2 67/2/2
f 68/6/2 69/6/2 70/6/2
f 70/6/2 69/6/2 71/6/2
f 72/2/2 73/2/2 74/2/2
f 74/2/2 73/2/2 75/2/2
f 78/2/3 77/2/3 76/2/3
f 79/2/3 77/2/3 78/2/3
f 83/2/3 81/2/3 80/2/3
f 84/2/3 81/2/3 83/2/3
f 85/2/3 81/2/3 84/2/3
f 86/2/3 81/2/3 85/2/3
f 88/5/3 83/5/3 82/5/3
f 88/5/3 84/5/3 83/5/3
f 89/3/3 85/3/3 84/3/3
f 89/5/3 84/5/3 88/5/3
f 90/3/3 85/3/3 89/3/3
f 91/2/3 87/2/3 86/2/3
f 92/2/3 87/2/3 91/2/3
f 93/2/3 91/2/3 90/2/3
f 94/2/3 91/2/3 93/2/3
f 101/6/3 96/6/3 95/6/3
f 102/6/3 96/6/3 101/6/3
f 103/2/3 98/2/3 97/2/3
f 104/2/3 98/2/3 103/2/3
f 105/4/3 100/4/3 99/4/3
f 106/4/3 100/4/3 105/4/3
f 109/4/3 108/4/3 107/4/3
f 110/4/3 108/4/3 109/4/3
f 113/6/3 112/6/3 111/6/3
f 114/6/3 112/6/3 113/6/3
f 115/6/4 116/6/4 122/6/4
f 116/2/4 117/2/4 123/2/4
f 122/6/4 116/6/4 123/6/4
f 123/2/4 117/2/4 124/2/4
f 118/2/4 119/2/4 125/2/4
f 125/2/4 119/2/4 126/2/4
f 120/4/4 121/4/4 127/4/4
f 127/4/4 121/4/4 128/4/4
f 129/4/4 130/4/4 131/4/4
f 131/4/4 130/4/4 132/4/4
f 133/6/4 134/6/4 135/6/4
f 135/6/4 134/6/4 136/6/4
f 137/2/4 138/2/4 141/2/4
f 141/2/4 138/2/4 142/2/4
f 139/5/4 140/5/4 144/5/4
f 140/3/4 141/3/4 145/3/4
f 144/5/4 140/5/4 145/5/4
f 141/1/4 142/1/4 146/1/4
f 145/3/4 141/3/4 146/3/4
f 142/2/4 143/2/4 147/2/4
f 146/1/4 142/1/4 147/1/4
f 139/5/4 144/5/4 148/5/4
f 144/6/4 145/6/4 148/6/4
f 145/3/4 146/3/4 149/3/4
f 148/6/4 145/6/4 149/6/4
f 146/3/4 147/3/4 149/3/4
f 149/3/4 147/3/4 150/3/4
f 147/2/4 143/2/4 151/2/4
f 150/3/4 147/3/4 151/3/4
f 139/5/4 148/5/4 152/5/4
f 148/5/4 149/5/4 152/5/4
f 149/3/4 150/3/4 153/3/4
f 152/5/4 149/5/4 153/5/4
f 150/1/4 151/1/4 154/1/4
f 153/3/4 150/3/4 154/3/4
f 151/2/4 143/2/4 155/2/4
f 154/1/4 151/1/4 155/1/4
f 155/2/4 143/2/4 156/2/4
f 154/2/4 155/2/4 157/2/4
f 157/2/4 155/2/4 158/2/4
f 163/4/5 160/4/5 159/4/5
f 164/4/5 160/4/5 163/4/5
f 165/4/5 162/4/5 161/4/5
f 166/4/5 162/4/5 165/4/5
f 169/5/5 168/5/5 167/5/5
f 170/5/5 168/5/5 169/5/5
f 171/5/5 168/5/5 170/5/5
f 172/5/5 168/5/5 171/5/5
f 174/5/5 171/5/5 170/5/5
f 175/5/5 171/5/5 174/5/5
f 177/5/5 174/5/5 173/5/5
f 177/5/5 176/5/5 175/5/5
f 177/5/5 175/5/5 174/5/5
f 178/5/5 176/5/5 177/5/5
f 183/6/5 180/6/5 179/6/5
f 184/6/5 180/6/5 183/6/5
f 185/6/5 182/6/5 181/6/5
f 186/6/5 182/6/5 185/6/5
f 189/2/5 188/2/5 187/2/5
f 190/2/5 188/2/5 189/2/5
f 193/2/5 192/2/5 191/2/5
f 194/2/5 192/2/5 193/2/5
f 198/2/5 197/2/5 196/2/5
f 199/2/5 197/2/5 198/2/5
f 200/2/5 195/2/5 194/2/5
f 201/2/5 195/2/5 200/2/5
f 202/6/6 203/6/6 204/6/6
f 204/6/6 203/6/6 205/6/6
f 206/2/6 207/2/6 209/2/6
f 209/2/6 207/2/6 210/2/6
f 208/2/6 209/2/6 212/2/6
f 212/2/6 209/2/6 213/2/6
f 214/2/6 215/2/6 216/2/6
f 216/2/6 215/2/6 217/2/6
f 210/2/6 211/2/6 218/2/6
f 218/2/6 211/2/6 219/2/6
f 220/2/6 221/2/6 223/2/6
f 222/2/6 223/2/6 224/2/6
f 223/2/6 221/2/6 225/2/6
f 224/2/6 223/2/6 225/2/6
f 225/2/6 221/2/6 226/2/6
f 226/2/6 221/2/6 227/2/6
