# MagicaVoxel @ Ephtracy

# group
o Patch1

# material
mtllib Patch1.mtl
usemtl palette

# normals
vn -1 0 0
vn 1 0 0
vn 0 0 1
vn 0 0 -1
vn 0 -1 0
vn 0 1 0

# texcoords
vt 0.0292969 0.5
vt 0.447266 0.5

# verts
v -0.4 1.6 0.5
v -0.4 1.6 -0.3
v -0.4 1.7 0.5
v -0.4 1.7 -0.3
v 0.1 1.6 0.5
v 0.1 1.6 0.2
v 0.1 1.7 0.5
v 0.1 1.7 0.2
v 0.6 1.6 0.2
v 0.6 1.6 -0.3
v 0.6 1.7 0.2
v 0.6 1.7 -0.3
v -0.4 1.6 0.5
v -0.4 1.7 0.5
v 0.1 1.6 0.5
v 0.1 1.7 0.5
v 0.1 1.6 0.2
v 0.1 1.7 0.2
v 0.6 1.6 0.2
v 0.6 1.7 0.2
v -0.4 1.6 -0.3
v -0.4 1.7 -0.3
v 0.6 1.6 -0.3
v 0.6 1.7 -0.3
v -0.4 1.6 0.5
v 0.1 1.6 0.5
v -0.3 1.6 0.4
v 5.96046e-08 1.6 0.4
v 0.1 1.6 0.2
v 0.6 1.6 0.2
v 5.96046e-08 1.6 0.1
v 0.5 1.6 0.1
v -0.3 1.6 -0.2
v 0.5 1.6 -0.2
v -0.4 1.6 -0.3
v 0.6 1.6 -0.3
v -0.4 1.7 0.5
v 0.1 1.7 0.5
v -0.3 1.7 0.4
v 5.96046e-08 1.7 0.4
v 0.1 1.7 0.2
v 0.6 1.7 0.2
v 5.96046e-08 1.7 0.1
v 0.5 1.7 0.1
v -0.3 1.7 -0.2
v 0.5 1.7 -0.2
v -0.4 1.7 -0.3
v 0.6 1.7 -0.3

# faces
f 3/1/1 2/1/1 1/1/1
f 4/1/1 2/1/1 3/1/1
f 5/1/2 6/1/2 7/1/2
f 7/1/2 6/1/2 8/1/2
f 9/1/2 10/1/2 11/1/2
f 11/1/2 10/1/2 12/1/2
f 15/1/3 14/1/3 13/1/3
f 16/1/3 14/1/3 15/1/3
f 19/1/3 18/1/3 17/1/3
f 20/1/3 18/1/3 19/1/3
f 21/1/4 22/1/4 23/1/4
f 23/1/4 22/1/4 24/1/4
f 27/1/5 26/1/5 25/1/5
f 28/1/5 26/1/5 27/1/5
f 29/1/5 26/1/5 28/1/5
f 31/2/5 28/2/5 27/2/5
f 31/1/5 30/1/5 29/1/5
f 31/1/5 29/1/5 28/1/5
f 32/1/5 30/1/5 31/1/5
f 33/1/5 27/1/5 25/1/5
f 33/2/5 31/2/5 27/2/5
f 33/2/5 32/2/5 31/2/5
f 34/1/5 30/1/5 32/1/5
f 34/2/5 32/2/5 33/2/5
f 35/1/5 33/1/5 25/1/5
f 35/1/5 34/1/5 33/1/5
f 36/1/5 30/1/5 34/1/5
f 36/1/5 34/1/5 35/1/5
f 37/1/6 38/1/6 39/1/6
f 39/1/6 38/1/6 40/1/6
f 40/1/6 38/1/6 41/1/6
f 39/2/6 40/2/6 43/2/6
f 41/1/6 42/1/6 43/1/6
f 40/1/6 41/1/6 43/1/6
f 43/1/6 42/1/6 44/1/6
f 37/1/6 39/1/6 45/1/6
f 39/2/6 43/2/6 45/2/6
f 43/2/6 44/2/6 45/2/6
f 44/1/6 42/1/6 46/1/6
f 45/2/6 44/2/6 46/2/6
f 37/1/6 45/1/6 47/1/6
f 45/1/6 46/1/6 47/1/6
f 46/1/6 42/1/6 48/1/6
f 47/1/6 46/1/6 48/1/6
