# Blender 4.4.0
# www.blender.org
mtllib GnomeReptylia.mtl
o GnomeBase
v -0.100000 0.700000 -0.400000
v -0.100000 0.700000 -0.500000
v -0.100000 0.800000 -0.300000
v -0.100000 0.800000 -0.400000
v -0.100000 0.800000 -0.500000
v -0.100000 1.000000 -0.300000
v -0.100000 1.000000 -0.400000
v 0.000000 0.600000 -0.200000
v 0.000000 0.600000 -0.300000
v 0.000000 0.700000 -0.200000
v 0.000000 0.700000 -0.300000
v 0.000000 1.000000 -0.200000
v 0.000000 1.000000 -0.300000
v 0.000000 1.100000 -0.200000
v 0.000000 1.100000 -0.300000
v 0.100000 0.400000 -0.200000
v 0.100000 0.400000 -0.300000
v 0.100000 0.500000 -0.100000
v 0.100000 0.500000 -0.200000
v 0.100000 0.500000 -0.300000
v 0.100000 0.500000 -0.400000
v 0.100000 0.600000 -0.200000
v 0.100000 0.600000 -0.300000
v 0.100000 0.600000 -0.400000
v 0.100000 0.600000 -0.500000
v 0.100000 0.700000 -0.100000
v 0.100000 0.700000 -0.200000
v 0.100000 0.700000 -0.300000
v 0.100000 0.700000 -0.400000
v 0.100000 0.700000 -0.500000
v 0.100000 0.800000 -0.200000
v 0.100000 0.800000 -0.300000
v 0.100000 0.800000 -0.400000
v 0.100000 0.900000 -0.100000
v 0.100000 0.900000 -0.200000
v 0.100000 0.900000 -0.300000
v 0.100000 1.000000 -0.300000
v 0.100000 1.000000 -0.400000
v 0.300000 0.400000 -0.200000
v 0.300000 0.400000 -0.300000
v 0.300000 0.500000 -0.200000
v 0.300000 0.500000 -0.300000
v 0.300000 0.600000 -0.200000
v 0.300000 0.600000 -0.300000
v 0.300000 0.700000 -0.200000
v 0.300000 0.700000 -0.300000
v 0.300000 0.900000 -0.300000
v 0.300000 0.900000 -0.400000
v 0.300000 1.000000 -0.300000
v 0.300000 1.000000 -0.400000
v 0.400000 1.000000 -0.200000
v 0.400000 1.000000 -0.300000
v 0.400000 1.100000 -0.200000
v 0.400000 1.100000 -0.300000
v 0.500000 0.700000 -0.400000
v 0.500000 0.700000 -0.500000
v 0.500000 0.800000 -0.300000
v 0.500000 0.800000 -0.400000
v 0.500000 0.800000 -0.500000
v 0.500000 1.000000 -0.300000
v 0.500000 1.000000 -0.400000
v 0.000000 0.700000 -0.400000
v 0.000000 0.700000 -0.500000
v 0.000000 0.800000 -0.300000
v 0.000000 0.800000 -0.400000
v 0.000000 0.800000 -0.500000
v 0.000000 1.000000 -0.300000
v 0.000000 1.000000 -0.400000
v 0.100000 1.000000 -0.200000
v 0.100000 1.000000 -0.300000
v 0.100000 1.100000 -0.200000
v 0.100000 1.100000 -0.300000
v 0.200000 0.400000 -0.200000
v 0.200000 0.400000 -0.300000
v 0.200000 0.500000 -0.200000
v 0.200000 0.500000 -0.300000
v 0.200000 0.600000 -0.200000
v 0.200000 0.600000 -0.300000
v 0.200000 0.700000 -0.200000
v 0.200000 0.700000 -0.300000
v 0.200000 0.900000 -0.300000
v 0.200000 0.900000 -0.400000
v 0.200000 1.000000 -0.300000
v 0.200000 1.000000 -0.400000
v 0.400000 0.400000 -0.200000
v 0.400000 0.400000 -0.300000
v 0.400000 0.500000 -0.100000
v 0.400000 0.500000 -0.200000
v 0.400000 0.500000 -0.300000
v 0.400000 0.500000 -0.400000
v 0.400000 0.600000 -0.200000
v 0.400000 0.600000 -0.300000
v 0.400000 0.600000 -0.400000
v 0.400000 0.600000 -0.500000
v 0.400000 0.700000 -0.100000
v 0.400000 0.700000 -0.200000
v 0.400000 0.700000 -0.300000
v 0.400000 0.700000 -0.400000
v 0.400000 0.700000 -0.500000
v 0.400000 0.800000 -0.200000
v 0.400000 0.800000 -0.300000
v 0.400000 0.800000 -0.400000
v 0.400000 0.900000 -0.100000
v 0.400000 0.900000 -0.200000
v 0.400000 0.900000 -0.300000
v 0.400000 1.000000 -0.300000
v 0.400000 1.000000 -0.400000
v 0.500000 0.600000 -0.200000
v 0.500000 0.600000 -0.300000
v 0.500000 0.700000 -0.200000
v 0.500000 0.700000 -0.300000
v 0.500000 1.000000 -0.200000
v 0.500000 1.000000 -0.300000
v 0.500000 1.100000 -0.200000
v 0.500000 1.100000 -0.300000
v 0.600000 0.700000 -0.400000
v 0.600000 0.700000 -0.500000
v 0.600000 0.800000 -0.300000
v 0.600000 0.800000 -0.400000
v 0.600000 0.800000 -0.500000
v 0.600000 1.000000 -0.300000
v 0.600000 1.000000 -0.400000
v 0.100000 0.500000 -0.100000
v 0.100000 0.700000 -0.100000
v 0.100000 0.900000 -0.100000
v 0.200000 0.500000 -0.100000
v 0.200000 0.600000 -0.100000
v 0.300000 0.500000 -0.100000
v 0.300000 0.600000 -0.100000
v 0.400000 0.500000 -0.100000
v 0.400000 0.700000 -0.100000
v 0.400000 0.900000 -0.100000
v 0.000000 0.600000 -0.200000
v 0.000000 0.700000 -0.200000
v 0.000000 1.000000 -0.200000
v 0.000000 1.100000 -0.200000
v 0.100000 0.400000 -0.200000
v 0.100000 0.500000 -0.200000
v 0.100000 0.600000 -0.200000
v 0.100000 0.700000 -0.200000
v 0.100000 1.000000 -0.200000
v 0.100000 1.100000 -0.200000
v 0.200000 0.400000 -0.200000
v 0.200000 0.500000 -0.200000
v 0.300000 0.400000 -0.200000
v 0.300000 0.500000 -0.200000
v 0.400000 0.400000 -0.200000
v 0.400000 0.500000 -0.200000
v 0.400000 0.600000 -0.200000
v 0.400000 0.700000 -0.200000
v 0.400000 1.000000 -0.200000
v 0.400000 1.100000 -0.200000
v 0.500000 0.600000 -0.200000
v 0.500000 0.700000 -0.200000
v 0.500000 1.000000 -0.200000
v 0.500000 1.100000 -0.200000
v -0.100000 0.800000 -0.300000
v -0.100000 1.000000 -0.300000
v 0.000000 0.800000 -0.300000
v 0.000000 1.000000 -0.300000
v 0.100000 0.900000 -0.300000
v 0.100000 1.000000 -0.300000
v 0.200000 0.600000 -0.300000
v 0.200000 0.700000 -0.300000
v 0.200000 0.900000 -0.300000
v 0.200000 1.000000 -0.300000
v 0.300000 0.600000 -0.300000
v 0.300000 0.700000 -0.300000
v 0.300000 0.900000 -0.300000
v 0.300000 1.000000 -0.300000
v 0.400000 0.900000 -0.300000
v 0.400000 1.000000 -0.300000
v 0.500000 0.800000 -0.300000
v 0.500000 1.000000 -0.300000
v 0.600000 0.800000 -0.300000
v 0.600000 1.000000 -0.300000
v -0.100000 0.700000 -0.400000
v -0.100000 0.800000 -0.400000
v 0.000000 0.700000 -0.400000
v 0.000000 0.800000 -0.400000
v 0.500000 0.700000 -0.400000
v 0.500000 0.800000 -0.400000
v 0.600000 0.700000 -0.400000
v 0.600000 0.800000 -0.400000
v 0.200000 0.600000 -0.200000
v 0.200000 0.700000 -0.200000
v 0.300000 0.600000 -0.200000
v 0.300000 0.700000 -0.200000
v 0.000000 0.600000 -0.300000
v 0.000000 0.700000 -0.300000
v 0.000000 1.000000 -0.300000
v 0.000000 1.100000 -0.300000
v 0.100000 0.400000 -0.300000
v 0.100000 0.500000 -0.300000
v 0.100000 0.600000 -0.300000
v 0.100000 0.700000 -0.300000
v 0.100000 1.000000 -0.300000
v 0.100000 1.100000 -0.300000
v 0.200000 0.400000 -0.300000
v 0.200000 0.500000 -0.300000
v 0.300000 0.400000 -0.300000
v 0.300000 0.500000 -0.300000
v 0.400000 0.400000 -0.300000
v 0.400000 0.500000 -0.300000
v 0.400000 0.600000 -0.300000
v 0.400000 0.700000 -0.300000
v 0.400000 1.000000 -0.300000
v 0.400000 1.100000 -0.300000
v 0.500000 0.600000 -0.300000
v 0.500000 0.700000 -0.300000
v 0.500000 1.000000 -0.300000
v 0.500000 1.100000 -0.300000
v -0.100000 0.800000 -0.400000
v -0.100000 1.000000 -0.400000
v 0.000000 0.800000 -0.400000
v 0.000000 1.000000 -0.400000
v 0.100000 0.500000 -0.400000
v 0.100000 0.600000 -0.400000
v 0.100000 0.700000 -0.400000
v 0.100000 0.800000 -0.400000
v 0.100000 1.000000 -0.400000
v 0.200000 0.700000 -0.400000
v 0.200000 0.800000 -0.400000
v 0.200000 0.900000 -0.400000
v 0.200000 1.000000 -0.400000
v 0.300000 0.700000 -0.400000
v 0.300000 0.800000 -0.400000
v 0.300000 0.900000 -0.400000
v 0.300000 1.000000 -0.400000
v 0.400000 0.500000 -0.400000
v 0.400000 0.600000 -0.400000
v 0.400000 0.700000 -0.400000
v 0.400000 0.800000 -0.400000
v 0.400000 1.000000 -0.400000
v 0.500000 0.800000 -0.400000
v 0.500000 1.000000 -0.400000
v 0.600000 0.800000 -0.400000
v 0.600000 1.000000 -0.400000
v -0.100000 0.700000 -0.500000
v -0.100000 0.800000 -0.500000
v 0.000000 0.700000 -0.500000
v 0.000000 0.800000 -0.500000
v 0.100000 0.600000 -0.500000
v 0.100000 0.700000 -0.500000
v 0.400000 0.600000 -0.500000
v 0.400000 0.700000 -0.500000
v 0.500000 0.700000 -0.500000
v 0.500000 0.800000 -0.500000
v 0.600000 0.700000 -0.500000
v 0.600000 0.800000 -0.500000
v 0.100000 0.400000 -0.200000
v 0.200000 0.400000 -0.200000
v 0.300000 0.400000 -0.200000
v 0.400000 0.400000 -0.200000
v 0.100000 0.400000 -0.300000
v 0.200000 0.400000 -0.300000
v 0.300000 0.400000 -0.300000
v 0.400000 0.400000 -0.300000
v 0.100000 0.500000 -0.100000
v 0.200000 0.500000 -0.100000
v 0.300000 0.500000 -0.100000
v 0.400000 0.500000 -0.100000
v 0.100000 0.500000 -0.200000
v 0.200000 0.500000 -0.200000
v 0.300000 0.500000 -0.200000
v 0.400000 0.500000 -0.200000
v 0.100000 0.500000 -0.300000
v 0.200000 0.500000 -0.300000
v 0.300000 0.500000 -0.300000
v 0.400000 0.500000 -0.300000
v 0.100000 0.500000 -0.400000
v 0.400000 0.500000 -0.400000
v 0.000000 0.600000 -0.200000
v 0.100000 0.600000 -0.200000
v 0.400000 0.600000 -0.200000
v 0.500000 0.600000 -0.200000
v 0.000000 0.600000 -0.300000
v 0.100000 0.600000 -0.300000
v 0.400000 0.600000 -0.300000
v 0.500000 0.600000 -0.300000
v 0.100000 0.600000 -0.400000
v 0.400000 0.600000 -0.400000
v 0.100000 0.600000 -0.500000
v 0.400000 0.600000 -0.500000
v 0.200000 0.700000 -0.200000
v 0.300000 0.700000 -0.200000
v 0.200000 0.700000 -0.300000
v 0.300000 0.700000 -0.300000
v -0.100000 0.700000 -0.400000
v 0.000000 0.700000 -0.400000
v 0.500000 0.700000 -0.400000
v 0.600000 0.700000 -0.400000
v -0.100000 0.700000 -0.500000
v 0.000000 0.700000 -0.500000
v 0.500000 0.700000 -0.500000
v 0.600000 0.700000 -0.500000
v -0.100000 0.800000 -0.300000
v 0.000000 0.800000 -0.300000
v 0.500000 0.800000 -0.300000
v 0.600000 0.800000 -0.300000
v -0.100000 0.800000 -0.400000
v 0.000000 0.800000 -0.400000
v 0.500000 0.800000 -0.400000
v 0.600000 0.800000 -0.400000
v 0.000000 1.000000 -0.200000
v 0.100000 1.000000 -0.200000
v 0.400000 1.000000 -0.200000
v 0.500000 1.000000 -0.200000
v 0.000000 1.000000 -0.300000
v 0.100000 1.000000 -0.300000
v 0.400000 1.000000 -0.300000
v 0.500000 1.000000 -0.300000
v 0.200000 0.600000 -0.200000
v 0.300000 0.600000 -0.200000
v 0.200000 0.600000 -0.300000
v 0.300000 0.600000 -0.300000
v 0.000000 0.700000 -0.200000
v 0.100000 0.700000 -0.200000
v 0.400000 0.700000 -0.200000
v 0.500000 0.700000 -0.200000
v 0.000000 0.700000 -0.300000
v 0.100000 0.700000 -0.300000
v 0.400000 0.700000 -0.300000
v 0.500000 0.700000 -0.300000
v 0.100000 0.700000 -0.400000
v 0.200000 0.700000 -0.400000
v 0.300000 0.700000 -0.400000
v 0.400000 0.700000 -0.400000
v 0.100000 0.700000 -0.500000
v 0.400000 0.700000 -0.500000
v -0.100000 0.800000 -0.400000
v 0.000000 0.800000 -0.400000
v 0.500000 0.800000 -0.400000
v 0.600000 0.800000 -0.400000
v -0.100000 0.800000 -0.500000
v 0.000000 0.800000 -0.500000
v 0.500000 0.800000 -0.500000
v 0.600000 0.800000 -0.500000
v 0.100000 0.900000 -0.100000
v 0.400000 0.900000 -0.100000
v 0.100000 0.900000 -0.200000
v 0.200000 0.900000 -0.200000
v 0.300000 0.900000 -0.200000
v 0.400000 0.900000 -0.200000
v 0.100000 0.900000 -0.300000
v 0.200000 0.900000 -0.300000
v 0.300000 0.900000 -0.300000
v 0.400000 0.900000 -0.300000
v 0.200000 0.900000 -0.400000
v 0.300000 0.900000 -0.400000
v -0.100000 1.000000 -0.300000
v 0.000000 1.000000 -0.300000
v 0.100000 1.000000 -0.300000
v 0.200000 1.000000 -0.300000
v 0.300000 1.000000 -0.300000
v 0.400000 1.000000 -0.300000
v 0.500000 1.000000 -0.300000
v 0.600000 1.000000 -0.300000
v -0.100000 1.000000 -0.400000
v 0.000000 1.000000 -0.400000
v 0.100000 1.000000 -0.400000
v 0.200000 1.000000 -0.400000
v 0.300000 1.000000 -0.400000
v 0.400000 1.000000 -0.400000
v 0.500000 1.000000 -0.400000
v 0.600000 1.000000 -0.400000
v 0.000000 1.100000 -0.200000
v 0.100000 1.100000 -0.200000
v 0.400000 1.100000 -0.200000
v 0.500000 1.100000 -0.200000
v 0.000000 1.100000 -0.300000
v 0.100000 1.100000 -0.300000
v 0.400000 1.100000 -0.300000
v 0.500000 1.100000 -0.300000
vn -1.0000 -0.0000 -0.0000
vn 1.0000 -0.0000 -0.0000
vn -0.0000 -0.0000 1.0000
vn -0.0000 -0.0000 -1.0000
vn -0.0000 -1.0000 -0.0000
vn -0.0000 1.0000 -0.0000
vt 0.005859 0.500000
vt 0.009766 0.500000
vt 0.052734 0.500000
vt 0.001953 0.500000
s 1
usemtl palette
f 4/1/1 2/1/1 1/1/1
f 5/1/1 2/1/1 4/1/1
f 6/1/1 4/1/1 3/1/1
f 7/1/1 4/1/1 6/1/1
f 10/2/1 9/2/1 8/2/1
f 11/2/1 9/2/1 10/2/1
f 14/1/1 13/1/1 12/1/1
f 15/1/1 13/1/1 14/1/1
f 19/1/1 17/1/1 16/1/1
f 20/1/1 17/1/1 19/1/1
f 22/1/1 19/1/1 18/1/1
f 22/1/1 21/1/1 20/1/1
f 22/1/1 20/1/1 19/1/1
f 23/1/1 21/1/1 22/1/1
f 24/1/1 21/1/1 23/1/1
f 26/1/1 22/1/1 18/1/1
f 27/1/1 22/1/1 26/1/1
f 28/2/1 24/2/1 23/2/1
f 29/1/1 25/1/1 24/1/1
f 29/2/1 24/2/1 28/2/1
f 30/1/1 25/1/1 29/1/1
f 31/2/1 28/2/1 27/2/1
f 31/2/1 27/2/1 26/2/1
f 32/3/1 29/3/1 28/3/1
f 32/2/1 28/2/1 31/2/1
f 33/3/1 29/3/1 32/3/1
f 34/2/1 31/2/1 26/2/1
f 35/1/1 32/1/1 31/1/1
f 35/2/1 31/2/1 34/2/1
f 35/1/1 33/1/1 32/1/1
f 36/1/1 33/1/1 35/1/1
f 37/1/1 33/1/1 36/1/1
f 38/1/1 33/1/1 37/1/1
f 41/1/1 40/1/1 39/1/1
f 42/1/1 40/1/1 41/1/1
f 45/1/1 44/1/1 43/1/1
f 46/1/1 44/1/1 45/1/1
f 49/1/1 48/1/1 47/1/1
f 50/1/1 48/1/1 49/1/1
f 53/1/1 52/1/1 51/1/1
f 54/1/1 52/1/1 53/1/1
f 58/1/1 56/1/1 55/1/1
f 59/1/1 56/1/1 58/1/1
f 60/1/1 58/1/1 57/1/1
f 61/1/1 58/1/1 60/1/1
f 62/1/2 63/1/2 65/1/2
f 65/1/2 63/1/2 66/1/2
f 64/1/2 65/1/2 67/1/2
f 67/1/2 65/1/2 68/1/2
f 69/1/2 70/1/2 71/1/2
f 71/1/2 70/1/2 72/1/2
f 73/1/2 74/1/2 75/1/2
f 75/1/2 74/1/2 76/1/2
f 77/1/2 78/1/2 79/1/2
f 79/1/2 78/1/2 80/1/2
f 81/1/2 82/1/2 83/1/2
f 83/1/2 82/1/2 84/1/2
f 85/1/2 86/1/2 88/1/2
f 88/1/2 86/1/2 89/1/2
f 87/1/2 88/1/2 91/1/2
f 89/1/2 90/1/2 91/1/2
f 88/1/2 89/1/2 91/1/2
f 91/1/2 90/1/2 92/1/2
f 92/1/2 90/1/2 93/1/2
f 87/1/2 91/1/2 95/1/2
f 95/1/2 91/1/2 96/1/2
f 92/2/2 93/2/2 97/2/2
f 93/1/2 94/1/2 98/1/2
f 97/2/2 93/2/2 98/2/2
f 98/1/2 94/1/2 99/1/2
f 96/2/2 97/2/2 100/2/2
f 95/2/2 96/2/2 100/2/2
f 97/3/2 98/3/2 101/3/2
f 100/2/2 97/2/2 101/2/2
f 101/3/2 98/3/2 102/3/2
f 95/2/2 100/2/2 103/2/2
f 100/1/2 101/1/2 104/1/2
f 103/2/2 100/2/2 104/2/2
f 101/1/2 102/1/2 104/1/2
f 104/1/2 102/1/2 105/1/2
f 105/1/2 102/1/2 106/1/2
f 106/1/2 102/1/2 107/1/2
f 108/2/2 109/2/2 110/2/2
f 110/2/2 109/2/2 111/2/2
f 112/1/2 113/1/2 114/1/2
f 114/1/2 113/1/2 115/1/2
f 116/1/2 117/1/2 119/1/2
f 119/1/2 117/1/2 120/1/2
f 118/1/2 119/1/2 121/1/2
f 121/1/2 119/1/2 122/1/2
f 126/1/3 124/1/3 123/1/3
f 127/1/3 124/1/3 126/1/3
f 128/4/3 127/4/3 126/4/3
f 129/1/3 124/1/3 127/1/3
f 129/4/3 127/4/3 128/4/3
f 130/1/3 129/1/3 128/1/3
f 131/2/3 125/2/3 124/2/3
f 131/1/3 129/1/3 130/1/3
f 131/1/3 124/1/3 129/1/3
f 132/2/3 125/2/3 131/2/3
f 139/2/3 134/2/3 133/2/3
f 140/2/3 134/2/3 139/2/3
f 141/1/3 136/1/3 135/1/3
f 142/1/3 136/1/3 141/1/3
f 143/1/3 138/1/3 137/1/3
f 144/1/3 138/1/3 143/1/3
f 147/1/3 146/1/3 145/1/3
f 148/1/3 146/1/3 147/1/3
f 153/2/3 150/2/3 149/2/3
f 154/2/3 150/2/3 153/2/3
f 155/1/3 152/1/3 151/1/3
f 156/1/3 152/1/3 155/1/3
f 159/1/3 158/1/3 157/1/3
f 160/1/3 158/1/3 159/1/3
f 165/1/3 162/1/3 161/1/3
f 166/1/3 162/1/3 165/1/3
f 167/1/3 164/1/3 163/1/3
f 168/1/3 164/1/3 167/1/3
f 171/1/3 170/1/3 169/1/3
f 172/1/3 170/1/3 171/1/3
f 175/1/3 174/1/3 173/1/3
f 176/1/3 174/1/3 175/1/3
f 179/1/3 178/1/3 177/1/3
f 180/1/3 178/1/3 179/1/3
f 183/1/3 182/1/3 181/1/3
f 184/1/3 182/1/3 183/1/3
f 185/1/4 186/1/4 187/1/4
f 187/1/4 186/1/4 188/1/4
f 189/2/4 190/2/4 195/2/4
f 195/2/4 190/2/4 196/2/4
f 191/1/4 192/1/4 197/1/4
f 197/1/4 192/1/4 198/1/4
f 193/1/4 194/1/4 199/1/4
f 199/1/4 194/1/4 200/1/4
f 201/1/4 202/1/4 203/1/4
f 203/1/4 202/1/4 204/1/4
f 205/2/4 206/2/4 209/2/4
f 209/2/4 206/2/4 210/2/4
f 207/1/4 208/1/4 211/1/4
f 211/1/4 208/1/4 212/1/4
f 213/1/4 214/1/4 215/1/4
f 215/1/4 214/1/4 216/1/4
f 219/3/4 220/3/4 222/3/4
f 220/1/4 221/1/4 223/1/4
f 222/3/4 220/3/4 223/3/4
f 223/1/4 221/1/4 224/1/4
f 224/1/4 221/1/4 225/1/4
f 222/2/4 223/2/4 226/2/4
f 223/2/4 224/2/4 226/2/4
f 226/2/4 224/2/4 227/2/4
f 227/2/4 224/2/4 228/2/4
f 217/1/4 218/1/4 230/1/4
f 230/1/4 218/1/4 231/1/4
f 226/3/4 227/3/4 232/3/4
f 228/1/4 229/1/4 233/1/4
f 232/3/4 227/3/4 233/3/4
f 227/1/4 228/1/4 233/1/4
f 233/1/4 229/1/4 234/1/4
f 235/1/4 236/1/4 237/1/4
f 237/1/4 236/1/4 238/1/4
f 239/1/4 240/1/4 241/1/4
f 241/1/4 240/1/4 242/1/4
f 243/1/4 244/1/4 245/1/4
f 245/1/4 244/1/4 246/1/4
f 247/1/4 248/1/4 249/1/4
f 249/1/4 248/1/4 250/1/4
f 255/1/5 252/1/5 251/1/5
f 256/1/5 252/1/5 255/1/5
f 257/1/5 254/1/5 253/1/5
f 258/1/5 254/1/5 257/1/5
f 263/1/5 260/1/5 259/1/5
f 264/4/5 261/4/5 260/4/5
f 264/1/5 260/1/5 263/1/5
f 265/1/5 262/1/5 261/1/5
f 265/4/5 261/4/5 264/4/5
f 266/1/5 262/1/5 265/1/5
f 268/2/5 265/2/5 264/2/5
f 269/2/5 265/2/5 268/2/5
f 271/1/5 268/1/5 267/1/5
f 271/1/5 270/1/5 269/1/5
f 271/1/5 269/1/5 268/1/5
f 272/1/5 270/1/5 271/1/5
f 277/2/5 274/2/5 273/2/5
f 278/2/5 274/2/5 277/2/5
f 279/2/5 276/2/5 275/2/5
f 280/2/5 276/2/5 279/2/5
f 283/1/5 282/1/5 281/1/5
f 284/1/5 282/1/5 283/1/5
f 287/2/5 286/2/5 285/2/5
f 288/2/5 286/2/5 287/2/5
f 293/1/5 290/1/5 289/1/5
f 294/1/5 290/1/5 293/1/5
f 295/1/5 292/1/5 291/1/5
f 296/1/5 292/1/5 295/1/5
f 301/1/5 298/1/5 297/1/5
f 302/1/5 298/1/5 301/1/5
f 303/1/5 300/1/5 299/1/5
f 304/1/5 300/1/5 303/1/5
f 309/1/5 306/1/5 305/1/5
f 310/1/5 306/1/5 309/1/5
f 311/1/5 308/1/5 307/1/5
f 312/1/5 308/1/5 311/1/5
f 313/2/6 314/2/6 315/2/6
f 315/2/6 314/2/6 316/2/6
f 317/2/6 318/2/6 321/2/6
f 321/2/6 318/2/6 322/2/6
f 319/2/6 320/2/6 323/2/6
f 323/2/6 320/2/6 324/2/6
f 325/1/6 326/1/6 329/1/6
f 327/1/6 328/1/6 329/1/6
f 326/1/6 327/1/6 329/1/6
f 329/1/6 328/1/6 330/1/6
f 331/1/6 332/1/6 335/1/6
f 335/1/6 332/1/6 336/1/6
f 333/1/6 334/1/6 337/1/6
f 337/1/6 334/1/6 338/1/6
f 339/2/6 340/2/6 341/2/6
f 341/2/6 340/2/6 342/2/6
f 342/2/6 340/2/6 343/2/6
f 343/2/6 340/2/6 344/2/6
f 341/1/6 342/1/6 345/1/6
f 342/2/6 343/2/6 346/2/6
f 345/1/6 342/1/6 346/1/6
f 343/1/6 344/1/6 347/1/6
f 346/2/6 343/2/6 347/2/6
f 347/1/6 344/1/6 348/1/6
f 346/2/6 347/2/6 349/2/6
f 349/2/6 347/2/6 350/2/6
f 351/1/6 352/1/6 359/1/6
f 359/1/6 352/1/6 360/1/6
f 353/1/6 354/1/6 361/1/6
f 361/1/6 354/1/6 362/1/6
f 355/1/6 356/1/6 363/1/6
f 363/1/6 356/1/6 364/1/6
f 357/1/6 358/1/6 365/1/6
f 365/1/6 358/1/6 366/1/6
f 367/1/6 368/1/6 371/1/6
f 371/1/6 368/1/6 372/1/6
f 369/1/6 370/1/6 373/1/6
f 373/1/6 370/1/6 374/1/6
