# Blender 4.3.2
# www.blender.org
mtllib GnomeMaid.mtl
o GnomeMaid
v -0.244838 0.099098 0.351431
v -0.244838 0.099098 0.251431
v -0.244838 0.199098 0.351431
v -0.244838 0.199098 0.251431
v -0.244838 0.199098 0.051431
v -0.244838 0.199098 -0.048569
v -0.244838 0.299098 0.051431
v -0.244838 0.299098 -0.048569
v -0.144838 -0.000902 0.051431
v -0.144838 -0.000902 -0.048569
v -0.144838 0.099098 0.151431
v -0.144838 0.099098 0.051431
v -0.144838 0.099098 -0.048569
v -0.144838 0.099098 -0.148569
v -0.144838 0.099098 -0.248569
v -0.144838 0.199098 0.351431
v -0.144838 0.199098 0.251431
v -0.144838 0.199098 0.051431
v -0.144838 0.199098 -0.048569
v -0.144838 0.199098 -0.148569
v -0.144838 0.299098 0.151431
v -0.144838 0.299098 0.051431
v -0.144838 0.299098 -0.048569
v -0.144838 0.299098 -0.148569
v -0.144838 0.299098 -0.248569
v -0.144838 0.399098 0.151431
v -0.144838 0.399098 0.051431
v -0.144838 0.399098 -0.048569
v -0.144838 0.399098 -0.148569
v -0.144838 0.499098 0.351431
v -0.144838 0.499098 0.251431
v -0.144838 0.499098 0.151431
v -0.144838 0.499098 0.051431
v -0.144838 0.499098 -0.148569
v -0.144838 0.599098 0.251431
v -0.144838 0.599098 0.151431
v 0.055162 -0.000902 0.051431
v 0.055162 -0.000902 -0.048569
v 0.055162 0.099098 0.051431
v 0.055162 0.099098 -0.048569
v 0.055162 0.299098 0.351431
v 0.055162 0.299098 0.251431
v 0.055162 0.499098 0.351431
v 0.055162 0.499098 0.251431
v 0.055162 0.499098 0.151431
v 0.055162 0.599098 0.251431
v 0.055162 0.599098 0.151431
v 0.155162 0.199098 0.351431
v 0.155162 0.199098 0.251431
v 0.155162 0.299098 0.351431
v 0.155162 0.299098 0.251431
v -0.144838 0.099098 0.351431
v -0.144838 0.099098 0.251431
v -0.144838 0.199098 0.351431
v -0.144838 0.199098 0.251431
v -0.044838 -0.000902 0.051431
v -0.044838 -0.000902 -0.048569
v -0.044838 0.099098 0.051431
v -0.044838 0.099098 -0.048569
v -0.044838 0.199098 0.351431
v -0.044838 0.199098 0.251431
v -0.044838 0.499098 0.351431
v -0.044838 0.499098 0.251431
v -0.044838 0.499098 0.151431
v -0.044838 0.599098 0.251431
v -0.044838 0.599098 0.151431
v 0.055162 0.099098 -0.148569
v 0.055162 0.099098 -0.248569
v 0.055162 0.199098 -0.148569
v 0.055162 0.199098 -0.248569
v 0.155162 -0.000902 0.051431
v 0.155162 -0.000902 -0.048569
v 0.155162 0.099098 0.151431
v 0.155162 0.099098 0.051431
v 0.155162 0.099098 -0.048569
v 0.155162 0.099098 -0.148569
v 0.155162 0.199098 0.051431
v 0.155162 0.199098 -0.048569
v 0.155162 0.199098 -0.148569
v 0.155162 0.199098 -0.248569
v 0.155162 0.299098 0.351431
v 0.155162 0.299098 0.251431
v 0.155162 0.299098 0.151431
v 0.155162 0.299098 0.051431
v 0.155162 0.299098 -0.048569
v 0.155162 0.299098 -0.148569
v 0.155162 0.299098 -0.248569
v 0.155162 0.399098 0.151431
v 0.155162 0.399098 0.051431
v 0.155162 0.399098 -0.048569
v 0.155162 0.399098 -0.148569
v 0.155162 0.499098 0.351431
v 0.155162 0.499098 0.251431
v 0.155162 0.499098 0.151431
v 0.155162 0.499098 0.051431
v 0.155162 0.499098 -0.148569
v 0.155162 0.599098 0.251431
v 0.155162 0.599098 0.151431
v 0.255162 0.199098 0.351431
v 0.255162 0.199098 0.251431
v 0.255162 0.199098 0.051431
v 0.255162 0.199098 -0.048569
v 0.255162 0.299098 0.351431
v 0.255162 0.299098 0.251431
v 0.255162 0.299098 0.051431
v 0.255162 0.299098 -0.048569
v -0.244838 0.099098 0.351431
v -0.244838 0.199098 0.351431
v -0.144838 0.099098 0.351431
v -0.144838 0.199098 0.351431
v -0.144838 0.499098 0.351431
v -0.044838 0.199098 0.351431
v -0.044838 0.499098 0.351431
v 0.055162 0.299098 0.351431
v 0.055162 0.499098 0.351431
v 0.155162 0.199098 0.351431
v 0.155162 0.299098 0.351431
v 0.155162 0.499098 0.351431
v 0.255162 0.199098 0.351431
v 0.255162 0.299098 0.351431
v -0.144838 0.499098 0.251431
v -0.144838 0.599098 0.251431
v -0.044838 0.499098 0.251431
v -0.044838 0.599098 0.251431
v 0.055162 0.499098 0.251431
v 0.055162 0.599098 0.251431
v 0.155162 0.499098 0.251431
v 0.155162 0.599098 0.251431
v -0.144838 0.099098 0.151431
v -0.144838 0.299098 0.151431
v -0.144838 0.399098 0.151431
v -0.144838 0.499098 0.151431
v -0.044838 0.399098 0.151431
v -0.044838 0.499098 0.151431
v 0.055162 0.399098 0.151431
v 0.055162 0.499098 0.151431
v 0.155162 0.099098 0.151431
v 0.155162 0.299098 0.151431
v 0.155162 0.399098 0.151431
v 0.155162 0.499098 0.151431
v -0.244838 0.199098 0.051431
v -0.244838 0.299098 0.051431
v -0.144838 -0.000902 0.051431
v -0.144838 0.099098 0.051431
v -0.144838 0.199098 0.051431
v -0.144838 0.299098 0.051431
v -0.044838 -0.000902 0.051431
v -0.044838 0.099098 0.051431
v 0.055162 -0.000902 0.051431
v 0.055162 0.099098 0.051431
v 0.155162 -0.000902 0.051431
v 0.155162 0.099098 0.051431
v 0.155162 0.199098 0.051431
v 0.155162 0.299098 0.051431
v 0.255162 0.199098 0.051431
v 0.255162 0.299098 0.051431
v -0.244838 0.099098 0.251431
v -0.244838 0.199098 0.251431
v -0.144838 0.099098 0.251431
v -0.144838 0.199098 0.251431
v -0.144838 0.499098 0.251431
v -0.044838 0.199098 0.251431
v -0.044838 0.499098 0.251431
v 0.055162 0.299098 0.251431
v 0.055162 0.499098 0.251431
v 0.155162 0.199098 0.251431
v 0.155162 0.299098 0.251431
v 0.155162 0.499098 0.251431
v 0.255162 0.199098 0.251431
v 0.255162 0.299098 0.251431
v -0.144838 0.499098 0.151431
v -0.144838 0.599098 0.151431
v -0.044838 0.499098 0.151431
v -0.044838 0.599098 0.151431
v 0.055162 0.499098 0.151431
v 0.055162 0.599098 0.151431
v 0.155162 0.499098 0.151431
v 0.155162 0.599098 0.151431
v -0.244838 0.199098 -0.048569
v -0.244838 0.299098 -0.048569
v -0.144838 -0.000902 -0.048569
v -0.144838 0.099098 -0.048569
v -0.144838 0.199098 -0.048569
v -0.144838 0.299098 -0.048569
v -0.044838 -0.000902 -0.048569
v -0.044838 0.099098 -0.048569
v 0.055162 -0.000902 -0.048569
v 0.055162 0.099098 -0.048569
v 0.155162 -0.000902 -0.048569
v 0.155162 0.099098 -0.048569
v 0.155162 0.199098 -0.048569
v 0.155162 0.299098 -0.048569
v 0.255162 0.199098 -0.048569
v 0.255162 0.299098 -0.048569
v -0.144838 0.299098 -0.148569
v -0.144838 0.399098 -0.148569
v -0.144838 0.499098 -0.148569
v -0.044838 0.299098 -0.148569
v -0.044838 0.399098 -0.148569
v 0.055162 0.099098 -0.148569
v 0.055162 0.199098 -0.148569
v 0.055162 0.299098 -0.148569
v 0.055162 0.399098 -0.148569
v 0.155162 0.099098 -0.148569
v 0.155162 0.199098 -0.148569
v 0.155162 0.299098 -0.148569
v 0.155162 0.399098 -0.148569
v 0.155162 0.499098 -0.148569
v -0.144838 0.099098 -0.248569
v -0.144838 0.299098 -0.248569
v 0.055162 0.099098 -0.248569
v 0.055162 0.199098 -0.248569
v 0.155162 0.199098 -0.248569
v 0.155162 0.299098 -0.248569
v -0.144838 -0.000902 0.051431
v -0.044838 -0.000902 0.051431
v 0.055162 -0.000902 0.051431
v 0.155162 -0.000902 0.051431
v -0.144838 -0.000902 -0.048569
v -0.044838 -0.000902 -0.048569
v 0.055162 -0.000902 -0.048569
v 0.155162 -0.000902 -0.048569
v -0.244838 0.099098 0.351431
v -0.144838 0.099098 0.351431
v -0.244838 0.099098 0.251431
v -0.144838 0.099098 0.251431
v -0.144838 0.099098 0.151431
v 0.155162 0.099098 0.151431
v -0.144838 0.099098 0.051431
v -0.044838 0.099098 0.051431
v 0.055162 0.099098 0.051431
v 0.155162 0.099098 0.051431
v -0.144838 0.099098 -0.048569
v -0.044838 0.099098 -0.048569
v 0.055162 0.099098 -0.048569
v 0.155162 0.099098 -0.048569
v -0.144838 0.099098 -0.148569
v 0.055162 0.099098 -0.148569
v 0.155162 0.099098 -0.148569
v -0.144838 0.099098 -0.248569
v 0.055162 0.099098 -0.248569
v -0.144838 0.199098 0.351431
v -0.044838 0.199098 0.351431
v 0.155162 0.199098 0.351431
v 0.255162 0.199098 0.351431
v -0.144838 0.199098 0.251431
v -0.044838 0.199098 0.251431
v 0.155162 0.199098 0.251431
v 0.255162 0.199098 0.251431
v -0.244838 0.199098 0.051431
v -0.144838 0.199098 0.051431
v 0.155162 0.199098 0.051431
v 0.255162 0.199098 0.051431
v -0.244838 0.199098 -0.048569
v -0.144838 0.199098 -0.048569
v 0.155162 0.199098 -0.048569
v 0.255162 0.199098 -0.048569
v 0.055162 0.199098 -0.148569
v 0.155162 0.199098 -0.148569
v 0.055162 0.199098 -0.248569
v 0.155162 0.199098 -0.248569
v 0.055162 0.299098 0.351431
v 0.155162 0.299098 0.351431
v 0.055162 0.299098 0.251431
v 0.155162 0.299098 0.251431
v -0.144838 0.499098 0.251431
v -0.044838 0.499098 0.251431
v 0.055162 0.499098 0.251431
v 0.155162 0.499098 0.251431
v -0.144838 0.499098 0.151431
v -0.044838 0.499098 0.151431
v 0.055162 0.499098 0.151431
v 0.155162 0.499098 0.151431
v -0.244838 0.199098 0.351431
v -0.144838 0.199098 0.351431
v -0.244838 0.199098 0.251431
v -0.144838 0.199098 0.251431
v 0.155162 0.299098 0.351431
v 0.255162 0.299098 0.351431
v 0.155162 0.299098 0.251431
v 0.255162 0.299098 0.251431
v -0.244838 0.299098 0.051431
v -0.144838 0.299098 0.051431
v 0.155162 0.299098 0.051431
v 0.255162 0.299098 0.051431
v -0.244838 0.299098 -0.048569
v -0.144838 0.299098 -0.048569
v 0.155162 0.299098 -0.048569
v 0.255162 0.299098 -0.048569
v -0.144838 0.299098 -0.148569
v -0.044838 0.299098 -0.148569
v 0.055162 0.299098 -0.148569
v 0.155162 0.299098 -0.148569
v -0.144838 0.299098 -0.248569
v 0.155162 0.299098 -0.248569
v -0.144838 0.499098 0.351431
v -0.044838 0.499098 0.351431
v 0.055162 0.499098 0.351431
v 0.155162 0.499098 0.351431
v -0.144838 0.499098 0.251431
v -0.044838 0.499098 0.251431
v 0.055162 0.499098 0.251431
v 0.155162 0.499098 0.251431
v -0.144838 0.499098 0.151431
v -0.044838 0.499098 0.151431
v 0.055162 0.499098 0.151431
v 0.155162 0.499098 0.151431
v -0.144838 0.499098 0.051431
v -0.044838 0.499098 0.051431
v 0.055162 0.499098 0.051431
v 0.155162 0.499098 0.051431
v -0.144838 0.499098 -0.148569
v 0.155162 0.499098 -0.148569
v -0.144838 0.599098 0.251431
v -0.044838 0.599098 0.251431
v 0.055162 0.599098 0.251431
v 0.155162 0.599098 0.251431
v -0.144838 0.599098 0.151431
v -0.044838 0.599098 0.151431
v 0.055162 0.599098 0.151431
v 0.155162 0.599098 0.151431
vn -1.0000 -0.0000 -0.0000
vn 1.0000 -0.0000 -0.0000
vn -0.0000 -0.0000 1.0000
vn -0.0000 -0.0000 -1.0000
vn -0.0000 -1.0000 -0.0000
vn -0.0000 1.0000 -0.0000
vt 0.083984 0.500000
vt 0.283203 0.500000
vt 0.021484 0.500000
vt 0.044922 0.500000
vt 0.033203 0.500000
vt 0.080078 0.500000
vt 0.001953 0.500000
vt 0.072266 0.500000
s 1
usemtl palette
f 3/1/1 2/1/1 1/1/1
f 4/1/1 2/1/1 3/1/1
f 7/2/1 6/2/1 5/2/1
f 8/2/1 6/2/1 7/2/1
f 12/2/1 10/2/1 9/2/1
f 13/2/1 10/2/1 12/2/1
f 18/3/1 12/3/1 11/3/1
f 18/3/1 13/3/1 12/3/1
f 19/4/1 14/4/1 13/4/1
f 19/3/1 13/3/1 18/3/1
f 20/5/1 15/5/1 14/5/1
f 20/4/1 14/4/1 19/4/1
f 21/3/1 18/3/1 11/3/1
f 22/3/1 18/3/1 21/3/1
f 23/3/1 20/3/1 19/3/1
f 24/5/1 15/5/1 20/5/1
f 24/3/1 20/3/1 23/3/1
f 25/5/1 15/5/1 24/5/1
f 26/6/1 23/6/1 22/6/1
f 26/6/1 22/6/1 21/6/1
f 27/6/1 23/6/1 26/6/1
f 28/7/1 24/7/1 23/7/1
f 28/6/1 23/6/1 27/6/1
f 29/7/1 24/7/1 28/7/1
f 30/1/1 17/1/1 16/1/1
f 31/1/1 17/1/1 30/1/1
f 32/8/1 27/8/1 26/8/1
f 33/6/1 28/6/1 27/6/1
f 33/6/1 29/6/1 28/6/1
f 33/8/1 27/8/1 32/8/1
f 34/6/1 29/6/1 33/6/1
f 35/1/1 32/1/1 31/1/1
f 36/1/1 32/1/1 35/1/1
f 39/2/1 38/2/1 37/2/1
f 40/2/1 38/2/1 39/2/1
f 43/1/1 42/1/1 41/1/1
f 44/1/1 42/1/1 43/1/1
f 46/1/1 45/1/1 44/1/1
f 47/1/1 45/1/1 46/1/1
f 50/1/1 49/1/1 48/1/1
f 51/1/1 49/1/1 50/1/1
f 52/1/2 53/1/2 54/1/2
f 54/1/2 53/1/2 55/1/2
f 56/2/2 57/2/2 58/2/2
f 58/2/2 57/2/2 59/2/2
f 60/1/2 61/1/2 62/1/2
f 62/1/2 61/1/2 63/1/2
f 63/1/2 64/1/2 65/1/2
f 65/1/2 64/1/2 66/1/2
f 67/5/2 68/5/2 69/5/2
f 69/5/2 68/5/2 70/5/2
f 71/2/2 72/2/2 74/2/2
f 74/2/2 72/2/2 75/2/2
f 73/3/2 74/3/2 77/3/2
f 74/3/2 75/3/2 77/3/2
f 75/4/2 76/4/2 78/4/2
f 77/3/2 75/3/2 78/3/2
f 78/4/2 76/4/2 79/4/2
f 73/3/2 77/3/2 83/3/2
f 83/3/2 77/3/2 84/3/2
f 78/3/2 79/3/2 85/3/2
f 79/5/2 80/5/2 86/5/2
f 85/3/2 79/3/2 86/3/2
f 86/5/2 80/5/2 87/5/2
f 84/6/2 85/6/2 88/6/2
f 83/6/2 84/6/2 88/6/2
f 88/6/2 85/6/2 89/6/2
f 85/7/2 86/7/2 90/7/2
f 89/6/2 85/6/2 90/6/2
f 90/7/2 86/7/2 91/7/2
f 81/1/2 82/1/2 92/1/2
f 92/1/2 82/1/2 93/1/2
f 88/8/2 89/8/2 94/8/2
f 89/6/2 90/6/2 95/6/2
f 90/6/2 91/6/2 95/6/2
f 94/8/2 89/8/2 95/8/2
f 95/6/2 91/6/2 96/6/2
f 93/1/2 94/1/2 97/1/2
f 97/1/2 94/1/2 98/1/2
f 99/1/2 100/1/2 103/1/2
f 103/1/2 100/1/2 104/1/2
f 101/2/2 102/2/2 105/2/2
f 105/2/2 102/2/2 106/2/2
f 109/1/3 108/1/3 107/1/3
f 110/1/3 108/1/3 109/1/3
f 112/1/3 111/1/3 110/1/3
f 113/1/3 111/1/3 112/1/3
f 117/1/3 115/1/3 114/1/3
f 118/1/3 115/1/3 117/1/3
f 119/1/3 117/1/3 116/1/3
f 120/1/3 117/1/3 119/1/3
f 123/1/3 122/1/3 121/1/3
f 124/1/3 122/1/3 123/1/3
f 127/1/3 126/1/3 125/1/3
f 128/1/3 126/1/3 127/1/3
f 133/6/3 131/6/3 130/6/3
f 133/8/3 132/8/3 131/8/3
f 134/8/3 132/8/3 133/8/3
f 135/6/3 133/6/3 130/6/3
f 135/6/3 134/6/3 133/6/3
f 136/6/3 134/6/3 135/6/3
f 137/3/3 130/3/3 129/3/3
f 138/6/3 135/6/3 130/6/3
f 138/3/3 130/3/3 137/3/3
f 139/8/3 136/8/3 135/8/3
f 139/6/3 135/6/3 138/6/3
f 140/8/3 136/8/3 139/8/3
f 145/2/3 142/2/3 141/2/3
f 146/2/3 142/2/3 145/2/3
f 147/2/3 144/2/3 143/2/3
f 148/2/3 144/2/3 147/2/3
f 151/2/3 150/2/3 149/2/3
f 152/2/3 150/2/3 151/2/3
f 155/2/3 154/2/3 153/2/3
f 156/2/3 154/2/3 155/2/3
f 157/1/4 158/1/4 159/1/4
f 159/1/4 158/1/4 160/1/4
f 160/1/4 161/1/4 162/1/4
f 162/1/4 161/1/4 163/1/4
f 164/1/4 165/1/4 167/1/4
f 167/1/4 165/1/4 168/1/4
f 166/1/4 167/1/4 169/1/4
f 169/1/4 167/1/4 170/1/4
f 171/1/4 172/1/4 173/1/4
f 173/1/4 172/1/4 174/1/4
f 175/1/4 176/1/4 177/1/4
f 177/1/4 176/1/4 178/1/4
f 179/2/4 180/2/4 183/2/4
f 183/2/4 180/2/4 184/2/4
f 181/2/4 182/2/4 185/2/4
f 185/2/4 182/2/4 186/2/4
f 187/2/4 188/2/4 189/2/4
f 189/2/4 188/2/4 190/2/4
f 191/2/4 192/2/4 193/2/4
f 193/2/4 192/2/4 194/2/4
f 195/7/4 196/7/4 198/7/4
f 196/6/4 197/6/4 199/6/4
f 198/7/4 196/7/4 199/7/4
f 198/2/4 199/2/4 202/2/4
f 199/6/4 197/6/4 203/6/4
f 202/2/4 199/2/4 203/2/4
f 200/4/4 201/4/4 204/4/4
f 204/4/4 201/4/4 205/4/4
f 202/7/4 203/7/4 206/7/4
f 203/6/4 197/6/4 207/6/4
f 206/7/4 203/7/4 207/7/4
f 207/6/4 197/6/4 208/6/4
f 209/5/4 210/5/4 211/5/4
f 211/5/4 210/5/4 212/5/4
f 212/5/4 210/5/4 213/5/4
f 213/5/4 210/5/4 214/5/4
f 219/2/5 216/2/5 215/2/5
f 220/2/5 216/2/5 219/2/5
f 221/2/5 218/2/5 217/2/5
f 222/2/5 218/2/5 221/2/5
f 225/1/5 224/1/5 223/1/5
f 226/1/5 224/1/5 225/1/5
f 229/3/5 228/3/5 227/3/5
f 230/3/5 228/3/5 229/3/5
f 231/3/5 228/3/5 230/3/5
f 232/3/5 228/3/5 231/3/5
f 234/4/5 231/4/5 230/4/5
f 235/4/5 231/4/5 234/4/5
f 237/4/5 234/4/5 233/4/5
f 237/4/5 236/4/5 235/4/5
f 237/4/5 235/4/5 234/4/5
f 238/4/5 236/4/5 237/4/5
f 239/4/5 236/4/5 238/4/5
f 240/5/5 238/5/5 237/5/5
f 241/5/5 238/5/5 240/5/5
f 246/1/5 243/1/5 242/1/5
f 247/1/5 243/1/5 246/1/5
f 248/1/5 245/1/5 244/1/5
f 249/1/5 245/1/5 248/1/5
f 254/2/5 251/2/5 250/2/5
f 255/2/5 251/2/5 254/2/5
f 256/2/5 253/2/5 252/2/5
f 257/2/5 253/2/5 256/2/5
f 260/5/5 259/5/5 258/5/5
f 261/5/5 259/5/5 260/5/5
f 264/1/5 263/1/5 262/1/5
f 265/1/5 263/1/5 264/1/5
f 270/1/5 267/1/5 266/1/5
f 271/1/5 267/1/5 270/1/5
f 272/1/5 269/1/5 268/1/5
f 273/1/5 269/1/5 272/1/5
f 274/1/6 275/1/6 276/1/6
f 276/1/6 275/1/6 277/1/6
f 278/1/6 279/1/6 280/1/6
f 280/1/6 279/1/6 281/1/6
f 282/2/6 283/2/6 286/2/6
f 286/2/6 283/2/6 287/2/6
f 284/2/6 285/2/6 288/2/6
f 288/2/6 285/2/6 289/2/6
f 290/5/6 291/5/6 294/5/6
f 292/5/6 293/5/6 294/5/6
f 291/5/6 292/5/6 294/5/6
f 294/5/6 293/5/6 295/5/6
f 296/1/6 297/1/6 300/1/6
f 300/1/6 297/1/6 301/1/6
f 298/1/6 299/1/6 302/1/6
f 302/1/6 299/1/6 303/1/6
f 304/8/6 305/8/6 308/8/6
f 305/6/6 306/6/6 309/6/6
f 308/8/6 305/8/6 309/8/6
f 306/8/6 307/8/6 310/8/6
f 309/6/6 306/6/6 310/6/6
f 310/8/6 307/8/6 311/8/6
f 308/6/6 309/6/6 312/6/6
f 309/6/6 310/6/6 312/6/6
f 310/6/6 311/6/6 312/6/6
f 312/6/6 311/6/6 313/6/6
f 314/1/6 315/1/6 318/1/6
f 318/1/6 315/1/6 319/1/6
f 316/1/6 317/1/6 320/1/6
f 320/1/6 317/1/6 321/1/6
