# Blender 4.4.0
# www.blender.org
mtllib GnomeFox.mtl
o GnomeFox
v -0.250113 0.191185 0.048794
v -0.250113 0.191185 -0.051206
v -0.250113 0.291185 0.048794
v -0.250113 0.291185 -0.051206
v -0.150113 -0.008815 0.048794
v -0.150113 -0.008815 -0.051206
v -0.150113 0.091185 0.148794
v -0.150113 0.091185 0.048794
v -0.150113 0.091185 -0.051206
v -0.150113 0.091185 -0.151206
v -0.150113 0.091185 -0.251206
v -0.150113 0.191185 0.048794
v -0.150113 0.191185 -0.051206
v -0.150113 0.291185 0.048794
v -0.150113 0.291185 -0.051206
v -0.150113 0.291185 -0.151206
v -0.150113 0.291185 -0.251206
v -0.150113 0.391185 -0.051206
v -0.150113 0.391185 -0.151206
v -0.150113 0.491185 0.148794
v -0.150113 0.491185 0.048794
v -0.150113 0.491185 -0.051206
v -0.150113 0.491185 -0.151206
v -0.150113 0.591185 0.048794
v -0.150113 0.591185 -0.051206
v -0.150113 0.591185 -0.151206
v -0.150113 0.691185 -0.051206
v -0.150113 0.691185 -0.151206
v -0.050113 0.091185 0.248794
v -0.050113 0.091185 0.148794
v -0.050113 0.191185 0.348794
v -0.050113 0.191185 0.248794
v -0.050113 0.191185 0.148794
v -0.050113 0.291185 0.348794
v -0.050113 0.291185 0.248794
v -0.050113 0.391185 0.348794
v -0.050113 0.391185 0.248794
v 0.049887 -0.008815 0.048794
v 0.049887 -0.008815 -0.051206
v 0.049887 0.091185 0.048794
v 0.049887 0.091185 -0.051206
v 0.049887 0.491185 0.048794
v 0.049887 0.491185 -0.051206
v 0.049887 0.491185 -0.151206
v 0.049887 0.591185 0.048794
v 0.049887 0.591185 -0.051206
v 0.049887 0.591185 -0.151206
v 0.049887 0.691185 -0.051206
v 0.049887 0.691185 -0.151206
v -0.050113 -0.008815 0.048794
v -0.050113 -0.008815 -0.051206
v -0.050113 0.091185 0.048794
v -0.050113 0.091185 -0.051206
v -0.050113 0.491185 0.048794
v -0.050113 0.491185 -0.051206
v -0.050113 0.491185 -0.151206
v -0.050113 0.591185 0.048794
v -0.050113 0.591185 -0.051206
v -0.050113 0.591185 -0.151206
v -0.050113 0.691185 -0.051206
v -0.050113 0.691185 -0.151206
v 0.049887 0.091185 0.248794
v 0.049887 0.091185 0.148794
v 0.049887 0.091185 -0.151206
v 0.049887 0.091185 -0.251206
v 0.049887 0.191185 0.348794
v 0.049887 0.191185 0.248794
v 0.049887 0.191185 0.148794
v 0.049887 0.191185 -0.151206
v 0.049887 0.191185 -0.251206
v 0.049887 0.291185 0.348794
v 0.049887 0.291185 0.248794
v 0.049887 0.391185 0.348794
v 0.049887 0.391185 0.248794
v 0.149887 -0.008815 0.048794
v 0.149887 -0.008815 -0.051206
v 0.149887 0.091185 0.148794
v 0.149887 0.091185 0.048794
v 0.149887 0.091185 -0.051206
v 0.149887 0.091185 -0.151206
v 0.149887 0.191185 0.048794
v 0.149887 0.191185 -0.051206
v 0.149887 0.191185 -0.151206
v 0.149887 0.191185 -0.251206
v 0.149887 0.291185 0.048794
v 0.149887 0.291185 -0.051206
v 0.149887 0.291185 -0.151206
v 0.149887 0.291185 -0.251206
v 0.149887 0.391185 -0.051206
v 0.149887 0.391185 -0.151206
v 0.149887 0.491185 0.148794
v 0.149887 0.491185 0.048794
v 0.149887 0.491185 -0.051206
v 0.149887 0.491185 -0.151206
v 0.149887 0.591185 0.048794
v 0.149887 0.591185 -0.051206
v 0.149887 0.591185 -0.151206
v 0.149887 0.691185 -0.051206
v 0.149887 0.691185 -0.151206
v 0.249887 0.191185 0.048794
v 0.249887 0.191185 -0.051206
v 0.249887 0.291185 0.048794
v 0.249887 0.291185 -0.051206
v -0.050113 0.191185 0.348794
v -0.050113 0.291185 0.348794
v -0.050113 0.391185 0.348794
v 0.049887 0.191185 0.348794
v 0.049887 0.291185 0.348794
v 0.049887 0.391185 0.348794
v -0.050113 0.091185 0.248794
v -0.050113 0.191185 0.248794
v 0.049887 0.091185 0.248794
v 0.049887 0.191185 0.248794
v -0.150113 0.091185 0.148794
v -0.150113 0.491185 0.148794
v -0.050113 0.091185 0.148794
v -0.050113 0.191185 0.148794
v 0.049887 0.091185 0.148794
v 0.049887 0.191185 0.148794
v 0.149887 0.091185 0.148794
v 0.149887 0.491185 0.148794
v -0.250113 0.191185 0.048794
v -0.250113 0.291185 0.048794
v -0.150113 -0.008815 0.048794
v -0.150113 0.091185 0.048794
v -0.150113 0.191185 0.048794
v -0.150113 0.291185 0.048794
v -0.150113 0.491185 0.048794
v -0.150113 0.591185 0.048794
v -0.050113 -0.008815 0.048794
v -0.050113 0.091185 0.048794
v -0.050113 0.491185 0.048794
v -0.050113 0.591185 0.048794
v 0.049887 -0.008815 0.048794
v 0.049887 0.091185 0.048794
v 0.049887 0.491185 0.048794
v 0.049887 0.591185 0.048794
v 0.149887 -0.008815 0.048794
v 0.149887 0.091185 0.048794
v 0.149887 0.191185 0.048794
v 0.149887 0.291185 0.048794
v 0.149887 0.491185 0.048794
v 0.149887 0.591185 0.048794
v 0.249887 0.191185 0.048794
v 0.249887 0.291185 0.048794
v -0.150113 0.591185 -0.051206
v -0.150113 0.691185 -0.051206
v -0.050113 0.591185 -0.051206
v -0.050113 0.691185 -0.051206
v 0.049887 0.591185 -0.051206
v 0.049887 0.691185 -0.051206
v 0.149887 0.591185 -0.051206
v 0.149887 0.691185 -0.051206
v -0.050113 0.191185 0.248794
v -0.050113 0.291185 0.248794
v -0.050113 0.391185 0.248794
v 0.049887 0.191185 0.248794
v 0.049887 0.291185 0.248794
v 0.049887 0.391185 0.248794
v -0.250113 0.191185 -0.051206
v -0.250113 0.291185 -0.051206
v -0.150113 -0.008815 -0.051206
v -0.150113 0.091185 -0.051206
v -0.150113 0.191185 -0.051206
v -0.150113 0.291185 -0.051206
v -0.050113 -0.008815 -0.051206
v -0.050113 0.091185 -0.051206
v 0.049887 -0.008815 -0.051206
v 0.049887 0.091185 -0.051206
v 0.149887 -0.008815 -0.051206
v 0.149887 0.091185 -0.051206
v 0.149887 0.191185 -0.051206
v 0.149887 0.291185 -0.051206
v 0.249887 0.191185 -0.051206
v 0.249887 0.291185 -0.051206
v -0.150113 0.291185 -0.151206
v -0.150113 0.391185 -0.151206
v -0.150113 0.491185 -0.151206
v -0.150113 0.591185 -0.151206
v -0.150113 0.691185 -0.151206
v -0.050113 0.291185 -0.151206
v -0.050113 0.391185 -0.151206
v -0.050113 0.491185 -0.151206
v -0.050113 0.591185 -0.151206
v -0.050113 0.691185 -0.151206
v 0.049887 0.091185 -0.151206
v 0.049887 0.191185 -0.151206
v 0.049887 0.291185 -0.151206
v 0.049887 0.391185 -0.151206
v 0.049887 0.491185 -0.151206
v 0.049887 0.591185 -0.151206
v 0.049887 0.691185 -0.151206
v 0.149887 0.091185 -0.151206
v 0.149887 0.191185 -0.151206
v 0.149887 0.291185 -0.151206
v 0.149887 0.391185 -0.151206
v 0.149887 0.491185 -0.151206
v 0.149887 0.591185 -0.151206
v 0.149887 0.691185 -0.151206
v -0.150113 0.091185 -0.251206
v -0.150113 0.291185 -0.251206
v 0.049887 0.091185 -0.251206
v 0.049887 0.191185 -0.251206
v 0.149887 0.191185 -0.251206
v 0.149887 0.291185 -0.251206
v -0.150113 -0.008815 0.048794
v -0.050113 -0.008815 0.048794
v 0.049887 -0.008815 0.048794
v 0.149887 -0.008815 0.048794
v -0.150113 -0.008815 -0.051206
v -0.050113 -0.008815 -0.051206
v 0.049887 -0.008815 -0.051206
v 0.149887 -0.008815 -0.051206
v -0.050113 0.091185 0.248794
v 0.049887 0.091185 0.248794
v -0.150113 0.091185 0.148794
v -0.050113 0.091185 0.148794
v 0.049887 0.091185 0.148794
v 0.149887 0.091185 0.148794
v -0.150113 0.091185 0.048794
v -0.050113 0.091185 0.048794
v 0.049887 0.091185 0.048794
v 0.149887 0.091185 0.048794
v -0.150113 0.091185 -0.051206
v -0.050113 0.091185 -0.051206
v 0.049887 0.091185 -0.051206
v 0.149887 0.091185 -0.051206
v -0.150113 0.091185 -0.151206
v -0.050113 0.091185 -0.151206
v 0.049887 0.091185 -0.151206
v 0.149887 0.091185 -0.151206
v -0.150113 0.091185 -0.251206
v 0.049887 0.091185 -0.251206
v -0.050113 0.191185 0.348794
v 0.049887 0.191185 0.348794
v -0.050113 0.191185 0.248794
v 0.049887 0.191185 0.248794
v -0.250113 0.191185 0.048794
v -0.150113 0.191185 0.048794
v 0.149887 0.191185 0.048794
v 0.249887 0.191185 0.048794
v -0.250113 0.191185 -0.051206
v -0.150113 0.191185 -0.051206
v 0.149887 0.191185 -0.051206
v 0.249887 0.191185 -0.051206
v 0.049887 0.191185 -0.151206
v 0.149887 0.191185 -0.151206
v 0.049887 0.191185 -0.251206
v 0.149887 0.191185 -0.251206
v -0.050113 0.191185 0.248794
v 0.049887 0.191185 0.248794
v -0.050113 0.191185 0.148794
v 0.049887 0.191185 0.148794
v -0.250113 0.291185 0.048794
v -0.150113 0.291185 0.048794
v 0.149887 0.291185 0.048794
v 0.249887 0.291185 0.048794
v -0.250113 0.291185 -0.051206
v -0.150113 0.291185 -0.051206
v 0.149887 0.291185 -0.051206
v 0.249887 0.291185 -0.051206
v -0.150113 0.291185 -0.151206
v -0.050113 0.291185 -0.151206
v 0.049887 0.291185 -0.151206
v 0.149887 0.291185 -0.151206
v -0.150113 0.291185 -0.251206
v 0.149887 0.291185 -0.251206
v -0.050113 0.391185 0.348794
v 0.049887 0.391185 0.348794
v -0.050113 0.391185 0.248794
v 0.049887 0.391185 0.248794
v -0.150113 0.491185 0.148794
v 0.149887 0.491185 0.148794
v -0.150113 0.491185 0.048794
v -0.050113 0.491185 0.048794
v 0.049887 0.491185 0.048794
v 0.149887 0.491185 0.048794
v -0.050113 0.491185 -0.051206
v 0.049887 0.491185 -0.051206
v -0.050113 0.491185 -0.151206
v 0.049887 0.491185 -0.151206
v -0.150113 0.591185 0.048794
v -0.050113 0.591185 0.048794
v 0.049887 0.591185 0.048794
v 0.149887 0.591185 0.048794
v -0.150113 0.591185 -0.051206
v -0.050113 0.591185 -0.051206
v 0.049887 0.591185 -0.051206
v 0.149887 0.591185 -0.051206
v -0.150113 0.691185 -0.051206
v -0.050113 0.691185 -0.051206
v 0.049887 0.691185 -0.051206
v 0.149887 0.691185 -0.051206
v -0.150113 0.691185 -0.151206
v -0.050113 0.691185 -0.151206
v 0.049887 0.691185 -0.151206
v 0.149887 0.691185 -0.151206
vn -1.0000 -0.0000 -0.0000
vn 1.0000 -0.0000 -0.0000
vn -0.0000 -0.0000 1.0000
vn -0.0000 -0.0000 -1.0000
vn -0.0000 -1.0000 -0.0000
vn -0.0000 1.0000 -0.0000
vt 0.435547 0.500000
vt 0.427734 0.500000
vt 0.044922 0.500000
vt 0.001953 0.500000
vt 0.892578 0.500000
vt 0.384766 0.500000
vt 0.388672 0.500000
s 1
usemtl palette.001
f 3/1/1 2/1/1 1/1/1
f 4/1/1 2/1/1 3/1/1
f 8/1/1 6/1/1 5/1/1
f 9/1/1 6/1/1 8/1/1
f 12/2/1 8/2/1 7/2/1
f 12/2/1 9/2/1 8/2/1
f 12/2/1 10/2/1 9/2/1
f 13/2/1 10/2/1 12/2/1
f 14/2/1 12/2/1 7/2/1
f 15/2/1 10/2/1 13/2/1
f 16/3/1 11/3/1 10/3/1
f 16/2/1 10/2/1 15/2/1
f 17/3/1 11/3/1 16/3/1
f 18/2/1 15/2/1 14/2/1
f 18/4/1 16/4/1 15/4/1
f 19/4/1 16/4/1 18/4/1
f 20/2/1 14/2/1 7/2/1
f 20/2/1 18/2/1 14/2/1
f 20/2/1 19/2/1 18/2/1
f 21/2/1 19/2/1 20/2/1
f 22/2/1 19/2/1 21/2/1
f 23/2/1 19/2/1 22/2/1
f 24/2/1 22/2/1 21/2/1
f 25/5/1 23/5/1 22/5/1
f 25/2/1 22/2/1 24/2/1
f 26/5/1 23/5/1 25/5/1
f 27/2/1 26/2/1 25/2/1
f 28/2/1 26/2/1 27/2/1
f 32/2/1 30/2/1 29/2/1
f 33/2/1 30/2/1 32/2/1
f 34/2/1 32/2/1 31/2/1
f 35/2/1 32/2/1 34/2/1
f 36/3/1 35/3/1 34/3/1
f 37/3/1 35/3/1 36/3/1
f 40/1/1 39/1/1 38/1/1
f 41/1/1 39/1/1 40/1/1
f 45/2/1 43/2/1 42/2/1
f 46/5/1 44/5/1 43/5/1
f 46/2/1 43/2/1 45/2/1
f 47/5/1 44/5/1 46/5/1
f 48/2/1 47/2/1 46/2/1
f 49/2/1 47/2/1 48/2/1
f 50/1/2 51/1/2 52/1/2
f 52/1/2 51/1/2 53/1/2
f 54/2/2 55/2/2 57/2/2
f 55/5/2 56/5/2 58/5/2
f 57/2/2 55/2/2 58/2/2
f 58/5/2 56/5/2 59/5/2
f 58/2/2 59/2/2 60/2/2
f 60/2/2 59/2/2 61/2/2
f 62/2/2 63/2/2 67/2/2
f 67/2/2 63/2/2 68/2/2
f 64/3/2 65/3/2 69/3/2
f 69/3/2 65/3/2 70/3/2
f 66/2/2 67/2/2 71/2/2
f 71/2/2 67/2/2 72/2/2
f 71/3/2 72/3/2 73/3/2
f 73/3/2 72/3/2 74/3/2
f 75/1/2 76/1/2 78/1/2
f 78/1/2 76/1/2 79/1/2
f 77/2/2 78/2/2 81/2/2
f 79/2/2 80/2/2 81/2/2
f 78/2/2 79/2/2 81/2/2
f 81/2/2 80/2/2 82/2/2
f 82/2/2 80/2/2 83/2/2
f 77/2/2 81/2/2 85/2/2
f 82/2/2 83/2/2 86/2/2
f 83/3/2 84/3/2 87/3/2
f 86/2/2 83/2/2 87/2/2
f 87/3/2 84/3/2 88/3/2
f 85/2/2 86/2/2 89/2/2
f 86/4/2 87/4/2 89/4/2
f 89/4/2 87/4/2 90/4/2
f 77/2/2 85/2/2 91/2/2
f 85/2/2 89/2/2 91/2/2
f 89/2/2 90/2/2 91/2/2
f 91/2/2 90/2/2 92/2/2
f 92/2/2 90/2/2 93/2/2
f 93/2/2 90/2/2 94/2/2
f 92/2/2 93/2/2 95/2/2
f 93/5/2 94/5/2 96/5/2
f 95/2/2 93/2/2 96/2/2
f 96/5/2 94/5/2 97/5/2
f 96/2/2 97/2/2 98/2/2
f 98/2/2 97/2/2 99/2/2
f 100/1/2 101/1/2 102/1/2
f 102/1/2 101/1/2 103/1/2
f 107/2/3 105/2/3 104/2/3
f 108/3/3 106/3/3 105/3/3
f 108/2/3 105/2/3 107/2/3
f 109/3/3 106/3/3 108/3/3
f 112/2/3 111/2/3 110/2/3
f 113/2/3 111/2/3 112/2/3
f 116/2/3 115/2/3 114/2/3
f 117/2/3 115/2/3 116/2/3
f 119/2/3 115/2/3 117/2/3
f 120/2/3 119/2/3 118/2/3
f 121/2/3 115/2/3 119/2/3
f 121/2/3 119/2/3 120/2/3
f 126/1/3 123/1/3 122/1/3
f 127/1/3 123/1/3 126/1/3
f 130/1/3 125/1/3 124/1/3
f 131/1/3 125/1/3 130/1/3
f 132/2/3 129/2/3 128/2/3
f 133/2/3 129/2/3 132/2/3
f 138/1/3 135/1/3 134/1/3
f 139/1/3 135/1/3 138/1/3
f 142/2/3 137/2/3 136/2/3
f 143/2/3 137/2/3 142/2/3
f 144/1/3 141/1/3 140/1/3
f 145/1/3 141/1/3 144/1/3
f 148/2/3 147/2/3 146/2/3
f 149/2/3 147/2/3 148/2/3
f 152/2/3 151/2/3 150/2/3
f 153/2/3 151/2/3 152/2/3
f 154/2/4 155/2/4 157/2/4
f 155/3/4 156/3/4 158/3/4
f 157/2/4 155/2/4 158/2/4
f 158/3/4 156/3/4 159/3/4
f 160/1/4 161/1/4 164/1/4
f 164/1/4 161/1/4 165/1/4
f 162/1/4 163/1/4 166/1/4
f 166/1/4 163/1/4 167/1/4
f 168/1/4 169/1/4 170/1/4
f 170/1/4 169/1/4 171/1/4
f 172/1/4 173/1/4 174/1/4
f 174/1/4 173/1/4 175/1/4
f 176/4/4 177/4/4 181/4/4
f 177/2/4 178/2/4 182/2/4
f 181/4/4 177/4/4 182/4/4
f 178/5/4 179/5/4 183/5/4
f 182/2/4 178/2/4 183/2/4
f 179/2/4 180/2/4 184/2/4
f 183/5/4 179/5/4 184/5/4
f 184/2/4 180/2/4 185/2/4
f 182/2/4 183/2/4 188/2/4
f 181/2/4 182/2/4 188/2/4
f 188/2/4 183/2/4 189/2/4
f 189/2/4 183/2/4 190/2/4
f 186/2/4 187/2/4 193/2/4
f 193/2/4 187/2/4 194/2/4
f 188/4/4 189/4/4 195/4/4
f 189/2/4 190/2/4 196/2/4
f 195/4/4 189/4/4 196/4/4
f 190/5/4 191/5/4 197/5/4
f 196/2/4 190/2/4 197/2/4
f 191/2/4 192/2/4 198/2/4
f 197/5/4 191/5/4 198/5/4
f 198/2/4 192/2/4 199/2/4
f 200/3/4 201/3/4 202/3/4
f 202/3/4 201/3/4 203/3/4
f 203/3/4 201/3/4 204/3/4
f 204/3/4 201/3/4 205/3/4
f 210/1/5 207/1/5 206/1/5
f 211/1/5 207/1/5 210/1/5
f 212/1/5 209/1/5 208/1/5
f 213/1/5 209/1/5 212/1/5
f 217/2/5 215/2/5 214/2/5
f 218/2/5 215/2/5 217/2/5
f 220/2/5 217/2/5 216/2/5
f 221/6/5 218/6/5 217/6/5
f 221/2/5 217/2/5 220/2/5
f 222/2/5 219/2/5 218/2/5
f 222/6/5 218/6/5 221/6/5
f 223/2/5 219/2/5 222/2/5
f 225/7/5 222/7/5 221/7/5
f 226/7/5 222/7/5 225/7/5
f 228/2/5 225/2/5 224/2/5
f 229/7/5 226/7/5 225/7/5
f 229/2/5 225/2/5 228/2/5
f 230/2/5 227/2/5 226/2/5
f 230/7/5 226/7/5 229/7/5
f 231/2/5 227/2/5 230/2/5
f 232/3/5 229/3/5 228/3/5
f 232/3/5 230/3/5 229/3/5
f 233/3/5 230/3/5 232/3/5
f 236/2/5 235/2/5 234/2/5
f 237/2/5 235/2/5 236/2/5
f 242/1/5 239/1/5 238/1/5
f 243/1/5 239/1/5 242/1/5
f 244/1/5 241/1/5 240/1/5
f 245/1/5 241/1/5 244/1/5
f 248/3/5 247/3/5 246/3/5
f 249/3/5 247/3/5 248/3/5
f 250/2/6 251/2/6 252/2/6
f 252/2/6 251/2/6 253/2/6
f 254/1/6 255/1/6 258/1/6
f 258/1/6 255/1/6 259/1/6
f 256/1/6 257/1/6 260/1/6
f 260/1/6 257/1/6 261/1/6
f 262/3/6 263/3/6 266/3/6
f 264/3/6 265/3/6 266/3/6
f 263/3/6 264/3/6 266/3/6
f 266/3/6 265/3/6 267/3/6
f 268/3/6 269/3/6 270/3/6
f 270/3/6 269/3/6 271/3/6
f 272/2/6 273/2/6 274/2/6
f 274/2/6 273/2/6 275/2/6
f 275/2/6 273/2/6 276/2/6
f 276/2/6 273/2/6 277/2/6
f 275/2/6 276/2/6 278/2/6
f 278/2/6 276/2/6 279/2/6
f 278/2/6 279/2/6 280/2/6
f 280/2/6 279/2/6 281/2/6
f 282/2/6 283/2/6 286/2/6
f 286/2/6 283/2/6 287/2/6
f 284/2/6 285/2/6 288/2/6
f 288/2/6 285/2/6 289/2/6
f 290/2/6 291/2/6 294/2/6
f 294/2/6 291/2/6 295/2/6
f 292/2/6 293/2/6 296/2/6
f 296/2/6 293/2/6 297/2/6
