# MagicaVoxel @ Ephtracy

# group
o GnomeBase

# material
mtllib Rus.mtl
usemtl palette

# normals
vn -1 0 0
vn 1 0 0
vn 0 0 1
vn 0 0 -1
vn 0 -1 0
vn 0 1 0

# texcoords
vt 0.0410156 0.5
vt 0.119141 0.5
vt 0.306641 0.5
vt 0.412109 0.5
vt 0.455078 0.5
vt 0.791016 0.5
vt 0.794922 0.5
vt 0.802734 0.5
vt 0.806641 0.5
vt 0.810547 0.5
vt 0.873047 0.5
vt 0.900391 0.5
vt 0.970703 0.5

# verts
v -0.1 0.7 -0.1
v -0.1 0.7 -0.3
v -0.1 0.8 0
v -0.1 0.8 -0.1
v -0.1 0.8 -0.2
v -0.1 0.8 -0.3
v -0.1 1 0
v -0.1 1 -0.2
v 0 0.8 -0.2
v 0 0.8 -0.3
v 0 1 -0.2
v 0 1 -0.3
v 0.1 0.4 -0.1
v 0.1 0.4 -0.3
v 0.1 0.5 -0.2
v 0.1 0.5 -0.3
v 0.1 0.6 0
v 0.1 0.6 -0.1
v 0.1 0.6 -0.2
v 0.1 0.6 -0.3
v 0.1 0.7 -0.2
v 0.1 0.7 -0.3
v 0.1 0.8 0
v 0.1 0.8 -0.1
v 0.1 0.8 -0.2
v 0.1 0.8 -0.3
v 0.1 0.8 -0.4
v 0.1 1 0
v 0.1 1 -0.1
v 0.1 1 -0.2
v 0.1 1 -0.3
v 0.1 1 -0.4
v 0.1 1.1 -0.1
v 0.1 1.1 -0.2
v 0.1 1.1 -0.3
v 0.1 1.2 0
v 0.1 1.2 -0.3
v 0.2 0.5 -0.2
v 0.2 0.5 -0.3
v 0.2 0.6 -0.2
v 0.2 0.6 -0.3
v 0.2 0.7 -0.3
v 0.2 0.7 -0.4
v 0.2 0.8 -0.3
v 0.2 0.8 -0.4
v 0.2 1.2 -0.1
v 0.2 1.2 -0.2
v 0.2 1.3 -0.1
v 0.2 1.3 -0.2
v 0.3 0.4 -0.1
v 0.3 0.4 -0.3
v 0.3 0.5 -0.2
v 0.3 0.5 -0.3
v 0.3 0.6 -0.1
v 0.3 0.6 -0.2
v 0.5 0.6 0
v 0.5 0.6 -0.1
v 0.5 0.6 -0.2
v 0.5 0.6 -0.4
v 0.5 0.7 0
v 0.5 0.7 -0.1
v 0.5 0.7 -0.2
v 0.5 0.7 -0.3
v 0.5 0.7 -0.4
v 0.5 0.8 -0.1
v 0.5 0.8 -0.2
v 0.5 0.8 -0.3
v 0.5 0.8 -0.4
v 0.5 0.9 -0.3
v 0.5 0.9 -0.4
v 0.5 0.9 -0.5
v 0.5 1 -0.2
v 0.5 1 -0.3
v 0.5 1 -0.5
v 0.5 1 -0.6
v 0.5 1.1 -0.3
v 0.5 1.1 -0.4
v 0.5 1.2 -0.4
v 0.5 1.2 -0.6
v 0 0.7 -0.1
v 0 0.7 -0.3
v 0 0.8 -0.1
v 0 0.8 -0.2
v 0 0.8 -0.3
v 0.2 0.4 -0.1
v 0.2 0.4 -0.3
v 0.2 0.5 -0.2
v 0.2 0.5 -0.3
v 0.2 0.6 -0.1
v 0.2 0.6 -0.2
v 0.3 0.5 -0.2
v 0.3 0.5 -0.3
v 0.3 0.6 -0.2
v 0.3 0.6 -0.3
v 0.3 0.7 -0.3
v 0.3 0.7 -0.4
v 0.3 0.8 -0.3
v 0.3 0.8 -0.4
v 0.3 1.2 -0.1
v 0.3 1.2 -0.2
v 0.3 1.3 -0.1
v 0.3 1.3 -0.2
v 0.4 0.4 -0.1
v 0.4 0.4 -0.3
v 0.4 0.5 -0.2
v 0.4 0.5 -0.3
v 0.4 0.6 0
v 0.4 0.6 -0.1
v 0.4 0.6 -0.2
v 0.4 0.6 -0.3
v 0.4 0.7 -0.2
v 0.4 0.7 -0.3
v 0.4 0.8 0
v 0.4 0.8 -0.1
v 0.4 0.8 -0.2
v 0.4 0.8 -0.3
v 0.4 0.8 -0.4
v 0.4 1 0
v 0.4 1 -0.1
v 0.4 1 -0.2
v 0.4 1 -0.3
v 0.4 1 -0.4
v 0.4 1.1 -0.1
v 0.4 1.1 -0.2
v 0.4 1.1 -0.3
v 0.4 1.2 0
v 0.4 1.2 -0.3
v 0.5 0.9 -0.1
v 0.5 0.9 -0.2
v 0.5 1 -0.1
v 0.5 1 -0.2
v 0.6 0.6 0
v 0.6 0.6 -0.1
v 0.6 0.6 -0.2
v 0.6 0.6 -0.4
v 0.6 0.7 0
v 0.6 0.7 -0.1
v 0.6 0.7 -0.2
v 0.6 0.7 -0.3
v 0.6 0.7 -0.4
v 0.6 0.8 0
v 0.6 0.8 -0.1
v 0.6 0.8 -0.2
v 0.6 0.8 -0.3
v 0.6 0.8 -0.4
v 0.6 0.9 -0.1
v 0.6 0.9 -0.2
v 0.6 0.9 -0.3
v 0.6 0.9 -0.4
v 0.6 0.9 -0.5
v 0.6 1 0
v 0.6 1 -0.1
v 0.6 1 -0.2
v 0.6 1 -0.3
v 0.6 1 -0.5
v 0.6 1 -0.6
v 0.6 1.1 -0.3
v 0.6 1.1 -0.4
v 0.6 1.2 -0.4
v 0.6 1.2 -0.6
v -0.1 0.8 0
v -0.1 1 0
v 0 0.8 0
v 0 1 0
v 0.1 0.6 0
v 0.1 0.8 0
v 0.1 1 0
v 0.1 1.2 0
v 0.2 0.7 0
v 0.2 0.8 0
v 0.3 0.7 0
v 0.3 0.8 0
v 0.4 0.6 0
v 0.4 0.8 0
v 0.4 1 0
v 0.4 1.2 0
v 0.5 0.6 0
v 0.5 0.7 0
v 0.5 0.8 0
v 0.5 1 0
v 0.6 0.6 0
v 0.6 0.7 0
v 0.6 0.8 0
v 0.6 1 0
v -0.1 0.7 -0.1
v -0.1 0.8 -0.1
v 0 0.7 -0.1
v 0 0.8 -0.1
v 0.1 0.4 -0.1
v 0.1 0.6 -0.1
v 0.2 0.4 -0.1
v 0.2 0.6 -0.1
v 0.2 1.2 -0.1
v 0.2 1.3 -0.1
v 0.3 0.4 -0.1
v 0.3 0.6 -0.1
v 0.3 1.2 -0.1
v 0.3 1.3 -0.1
v 0.4 0.4 -0.1
v 0.4 0.6 -0.1
v 0.5 0.7 -0.1
v 0.5 0.8 -0.1
v 0.6 0.7 -0.1
v 0.6 0.8 -0.1
v 0.2 0.5 -0.2
v 0.2 0.6 -0.2
v 0.3 0.5 -0.2
v 0.3 0.6 -0.2
v 0.5 0.6 -0.2
v 0.5 0.7 -0.2
v 0.5 0.9 -0.2
v 0.5 1 -0.2
v 0.6 0.6 -0.2
v 0.6 0.7 -0.2
v 0.6 0.9 -0.2
v 0.6 1 -0.2
v 0.5 1 -0.3
v 0.5 1.1 -0.3
v 0.6 1 -0.3
v 0.6 1.1 -0.3
v 0.5 1.1 -0.4
v 0.5 1.2 -0.4
v 0.6 1.1 -0.4
v 0.6 1.2 -0.4
v 0.5 0.6 -0.1
v 0.5 0.7 -0.1
v 0.5 0.9 -0.1
v 0.5 1 -0.1
v 0.6 0.6 -0.1
v 0.6 0.7 -0.1
v 0.6 0.9 -0.1
v 0.6 1 -0.1
v -0.1 0.8 -0.2
v -0.1 1 -0.2
v 0 0.8 -0.2
v 0 1 -0.2
v 0.1 0.5 -0.2
v 0.1 0.6 -0.2
v 0.2 0.5 -0.2
v 0.2 0.6 -0.2
v 0.2 1.2 -0.2
v 0.2 1.3 -0.2
v 0.3 0.5 -0.2
v 0.3 0.6 -0.2
v 0.3 1.2 -0.2
v 0.3 1.3 -0.2
v 0.4 0.5 -0.2
v 0.4 0.6 -0.2
v 0.4 0.8 -0.2
v 0.4 1 -0.2
v 0.5 0.8 -0.2
v 0.5 1 -0.2
v -0.1 0.7 -0.3
v -0.1 0.8 -0.3
v 0 0.7 -0.3
v 0 0.8 -0.3
v 0 1 -0.3
v 0.1 0.4 -0.3
v 0.1 0.5 -0.3
v 0.1 0.6 -0.3
v 0.1 0.7 -0.3
v 0.1 0.8 -0.3
v 0.1 1 -0.3
v 0.1 1.1 -0.3
v 0.1 1.2 -0.3
v 0.2 0.4 -0.3
v 0.2 0.5 -0.3
v 0.2 0.6 -0.3
v 0.2 0.7 -0.3
v 0.2 0.8 -0.3
v 0.2 1 -0.3
v 0.2 1.1 -0.3
v 0.3 0.4 -0.3
v 0.3 0.5 -0.3
v 0.3 0.6 -0.3
v 0.3 0.7 -0.3
v 0.3 0.8 -0.3
v 0.3 1 -0.3
v 0.3 1.1 -0.3
v 0.4 0.4 -0.3
v 0.4 0.5 -0.3
v 0.4 0.6 -0.3
v 0.4 0.7 -0.3
v 0.4 0.8 -0.3
v 0.4 1 -0.3
v 0.4 1.1 -0.3
v 0.4 1.2 -0.3
v 0.5 0.7 -0.3
v 0.5 0.8 -0.3
v 0.6 0.7 -0.3
v 0.6 0.8 -0.3
v 0.1 0.8 -0.4
v 0.1 1 -0.4
v 0.2 0.7 -0.4
v 0.2 0.8 -0.4
v 0.3 0.7 -0.4
v 0.3 0.8 -0.4
v 0.4 0.8 -0.4
v 0.4 1 -0.4
v 0.5 0.6 -0.4
v 0.5 0.7 -0.4
v 0.5 0.8 -0.4
v 0.5 0.9 -0.4
v 0.6 0.6 -0.4
v 0.6 0.7 -0.4
v 0.6 0.8 -0.4
v 0.6 0.9 -0.4
v 0.5 0.9 -0.5
v 0.5 1 -0.5
v 0.6 0.9 -0.5
v 0.6 1 -0.5
v 0.5 1 -0.6
v 0.5 1.2 -0.6
v 0.6 1 -0.6
v 0.6 1.2 -0.6
v 0.1 0.4 -0.1
v 0.2 0.4 -0.1
v 0.3 0.4 -0.1
v 0.4 0.4 -0.1
v 0.1 0.4 -0.3
v 0.2 0.4 -0.3
v 0.3 0.4 -0.3
v 0.4 0.4 -0.3
v 0.2 0.5 -0.2
v 0.3 0.5 -0.2
v 0.2 0.5 -0.3
v 0.3 0.5 -0.3
v 0.1 0.6 0
v 0.4 0.6 0
v 0.5 0.6 0
v 0.6 0.6 0
v 0.1 0.6 -0.1
v 0.2 0.6 -0.1
v 0.3 0.6 -0.1
v 0.4 0.6 -0.1
v 0.5 0.6 -0.1
v 0.6 0.6 -0.1
v 0.1 0.6 -0.2
v 0.2 0.6 -0.2
v 0.3 0.6 -0.2
v 0.4 0.6 -0.2
v 0.5 0.6 -0.2
v 0.6 0.6 -0.2
v 0.1 0.6 -0.3
v 0.2 0.6 -0.3
v 0.3 0.6 -0.3
v 0.4 0.6 -0.3
v 0.5 0.6 -0.4
v 0.6 0.6 -0.4
v -0.1 0.7 -0.1
v 0 0.7 -0.1
v 0.5 0.7 -0.1
v 0.6 0.7 -0.1
v 0.5 0.7 -0.2
v 0.6 0.7 -0.2
v -0.1 0.7 -0.3
v 0 0.7 -0.3
v 0.2 0.7 -0.3
v 0.3 0.7 -0.3
v 0.2 0.7 -0.4
v 0.3 0.7 -0.4
v -0.1 0.8 0
v 0 0.8 0
v 0.1 0.8 0
v 0.4 0.8 0
v 0.5 0.8 0
v 0.6 0.8 0
v -0.1 0.8 -0.1
v 0 0.8 -0.1
v 0.1 0.8 -0.1
v 0.4 0.8 -0.1
v 0.5 0.8 -0.1
v 0.6 0.8 -0.1
v 0 0.8 -0.2
v 0.1 0.8 -0.2
v 0.4 0.8 -0.2
v 0.5 0.8 -0.2
v 0 0.8 -0.3
v 0.1 0.8 -0.3
v 0.2 0.8 -0.3
v 0.3 0.8 -0.3
v 0.4 0.8 -0.3
v 0.5 0.8 -0.3
v 0.6 0.8 -0.3
v 0.1 0.8 -0.4
v 0.2 0.8 -0.4
v 0.3 0.8 -0.4
v 0.4 0.8 -0.4
v 0.5 0.8 -0.4
v 0.6 0.8 -0.4
v 0.5 0.9 -0.4
v 0.6 0.9 -0.4
v 0.5 0.9 -0.5
v 0.6 0.9 -0.5
v 0.5 1 -0.5
v 0.6 1 -0.5
v 0.5 1 -0.6
v 0.6 1 -0.6
v 0.1 0.5 -0.2
v 0.2 0.5 -0.2
v 0.3 0.5 -0.2
v 0.4 0.5 -0.2
v 0.1 0.5 -0.3
v 0.2 0.5 -0.3
v 0.3 0.5 -0.3
v 0.4 0.5 -0.3
v 0.5 0.7 0
v 0.6 0.7 0
v 0.5 0.7 -0.1
v 0.6 0.7 -0.1
v 0.5 0.7 -0.3
v 0.6 0.7 -0.3
v 0.5 0.7 -0.4
v 0.6 0.7 -0.4
v -0.1 0.8 -0.2
v 0 0.8 -0.2
v -0.1 0.8 -0.3
v 0 0.8 -0.3
v 0.5 0.9 -0.1
v 0.6 0.9 -0.1
v 0.5 0.9 -0.2
v 0.6 0.9 -0.2
v -0.1 1 0
v 0 1 0
v 0.1 1 0
v 0.4 1 0
v 0.5 1 0
v 0.6 1 0
v 0.1 1 -0.1
v 0.4 1 -0.1
v 0.5 1 -0.1
v 0.6 1 -0.1
v -0.1 1 -0.2
v 0 1 -0.2
v 0.1 1 -0.2
v 0.4 1 -0.2
v 0.5 1 -0.2
v 0.6 1 -0.2
v 0 1 -0.3
v 0.1 1 -0.3
v 0.2 1 -0.3
v 0.3 1 -0.3
v 0.4 1 -0.3
v 0.5 1 -0.3
v 0.6 1 -0.3
v 0.1 1 -0.4
v 0.4 1 -0.4
v 0.5 1.1 -0.3
v 0.6 1.1 -0.3
v 0.5 1.1 -0.4
v 0.6 1.1 -0.4
v 0.1 1.2 0
v 0.4 1.2 0
v 0.2 1.2 -0.1
v 0.3 1.2 -0.1
v 0.2 1.2 -0.2
v 0.3 1.2 -0.2
v 0.1 1.2 -0.3
v 0.4 1.2 -0.3
v 0.5 1.2 -0.4
v 0.6 1.2 -0.4
v 0.5 1.2 -0.6
v 0.6 1.2 -0.6
v 0.2 1.3 -0.1
v 0.3 1.3 -0.1
v 0.2 1.3 -0.2
v 0.3 1.3 -0.2

# faces
f 4/8/1 2/8/1 1/8/1
f 5/8/1 2/8/1 4/8/1
f 6/8/1 2/8/1 5/8/1
f 7/8/1 4/8/1 3/8/1
f 7/8/1 5/8/1 4/8/1
f 8/8/1 5/8/1 7/8/1
f 11/6/1 10/6/1 9/6/1
f 12/6/1 10/6/1 11/6/1
f 15/11/1 14/11/1 13/11/1
f 16/11/1 14/11/1 15/11/1
f 18/11/1 15/11/1 13/11/1
f 19/11/1 15/11/1 18/11/1
f 21/8/1 19/8/1 18/8/1
f 21/9/1 20/9/1 19/9/1
f 22/9/1 20/9/1 21/9/1
f 23/9/1 18/9/1 17/9/1
f 24/8/1 21/8/1 18/8/1
f 24/9/1 18/9/1 23/9/1
f 24/8/1 22/8/1 21/8/1
f 25/8/1 22/8/1 24/8/1
f 26/8/1 22/8/1 25/8/1
f 31/5/1 27/5/1 26/5/1
f 32/5/1 27/5/1 31/5/1
f 33/12/1 30/12/1 29/12/1
f 33/4/1 29/4/1 28/4/1
f 34/1/1 31/1/1 30/1/1
f 34/12/1 30/12/1 33/12/1
f 35/1/1 31/1/1 34/1/1
f 36/4/1 33/4/1 28/4/1
f 36/4/1 34/4/1 33/4/1
f 36/4/1 35/4/1 34/4/1
f 37/4/1 35/4/1 36/4/1
f 40/9/1 39/9/1 38/9/1
f 41/9/1 39/9/1 40/9/1
f 44/5/1 43/5/1 42/5/1
f 45/5/1 43/5/1 44/5/1
f 48/4/1 47/4/1 46/4/1
f 49/4/1 47/4/1 48/4/1
f 52/11/1 51/11/1 50/11/1
f 53/11/1 51/11/1 52/11/1
f 54/11/1 52/11/1 50/11/1
f 55/11/1 52/11/1 54/11/1
f 60/10/1 57/10/1 56/10/1
f 61/10/1 57/10/1 60/10/1
f 62/10/1 59/10/1 58/10/1
f 63/10/1 59/10/1 62/10/1
f 64/10/1 59/10/1 63/10/1
f 65/6/1 62/6/1 61/6/1
f 66/10/1 63/10/1 62/10/1
f 66/6/1 62/6/1 65/6/1
f 67/10/1 63/10/1 66/10/1
f 69/2/1 68/2/1 67/2/1
f 69/2/1 67/2/1 66/2/1
f 70/2/1 68/2/1 69/2/1
f 72/2/1 69/2/1 66/2/1
f 73/10/1 70/10/1 69/10/1
f 73/2/1 69/2/1 72/2/1
f 73/10/1 71/10/1 70/10/1
f 74/10/1 71/10/1 73/10/1
f 76/10/1 75/10/1 74/10/1
f 76/10/1 74/10/1 73/10/1
f 77/10/1 75/10/1 76/10/1
f 78/10/1 75/10/1 77/10/1
f 79/10/1 75/10/1 78/10/1
f 80/8/2 81/8/2 82/8/2
f 82/8/2 81/8/2 83/8/2
f 83/8/2 81/8/2 84/8/2
f 85/11/2 86/11/2 87/11/2
f 87/11/2 86/11/2 88/11/2
f 85/11/2 87/11/2 89/11/2
f 89/11/2 87/11/2 90/11/2
f 91/9/2 92/9/2 93/9/2
f 93/9/2 92/9/2 94/9/2
f 95/5/2 96/5/2 97/5/2
f 97/5/2 96/5/2 98/5/2
f 99/4/2 100/4/2 101/4/2
f 101/4/2 100/4/2 102/4/2
f 103/11/2 104/11/2 105/11/2
f 105/11/2 104/11/2 106/11/2
f 103/11/2 105/11/2 108/11/2
f 108/11/2 105/11/2 109/11/2
f 108/8/2 109/8/2 111/8/2
f 109/9/2 110/9/2 111/9/2
f 111/9/2 110/9/2 112/9/2
f 107/9/2 108/9/2 113/9/2
f 108/8/2 111/8/2 114/8/2
f 113/9/2 108/9/2 114/9/2
f 111/8/2 112/8/2 114/8/2
f 114/8/2 112/8/2 115/8/2
f 115/8/2 112/8/2 116/8/2
f 115/5/2 116/5/2 120/5/2
f 116/5/2 117/5/2 120/5/2
f 120/5/2 117/5/2 121/5/2
f 121/5/2 117/5/2 122/5/2
f 118/4/2 119/4/2 123/4/2
f 119/12/2 120/12/2 123/12/2
f 120/1/2 121/1/2 124/1/2
f 123/12/2 120/12/2 124/12/2
f 124/1/2 121/1/2 125/1/2
f 118/4/2 123/4/2 126/4/2
f 123/4/2 124/4/2 126/4/2
f 124/4/2 125/4/2 126/4/2
f 126/4/2 125/4/2 127/4/2
f 128/6/2 129/6/2 130/6/2
f 130/6/2 129/6/2 131/6/2
f 132/10/2 133/10/2 136/10/2
f 136/10/2 133/10/2 137/10/2
f 134/10/2 135/10/2 138/10/2
f 138/10/2 135/10/2 139/10/2
f 139/10/2 135/10/2 140/10/2
f 137/6/2 138/6/2 142/6/2
f 138/10/2 139/10/2 143/10/2
f 142/6/2 138/6/2 143/6/2
f 143/10/2 139/10/2 144/10/2
f 141/10/2 142/10/2 146/10/2
f 142/10/2 143/10/2 146/10/2
f 144/2/2 145/2/2 147/2/2
f 146/10/2 143/10/2 147/10/2
f 143/2/2 144/2/2 147/2/2
f 147/2/2 145/2/2 148/2/2
f 148/2/2 145/2/2 149/2/2
f 141/10/2 146/10/2 151/10/2
f 151/10/2 146/10/2 152/10/2
f 147/2/2 148/2/2 153/2/2
f 148/10/2 149/10/2 154/10/2
f 153/2/2 148/2/2 154/2/2
f 149/10/2 150/10/2 154/10/2
f 154/10/2 150/10/2 155/10/2
f 155/10/2 156/10/2 157/10/2
f 154/10/2 155/10/2 157/10/2
f 157/10/2 156/10/2 158/10/2
f 158/10/2 156/10/2 159/10/2
f 159/10/2 156/10/2 160/10/2
f 163/8/3 162/8/3 161/8/3
f 164/8/3 162/8/3 163/8/3
f 166/6/3 164/6/3 163/6/3
f 167/6/3 164/6/3 166/6/3
f 169/9/3 166/9/3 165/9/3
f 170/8/3 167/8/3 166/8/3
f 170/9/3 166/9/3 169/9/3
f 171/9/3 169/9/3 165/9/3
f 171/8/3 170/8/3 169/8/3
f 172/8/3 167/8/3 170/8/3
f 172/8/3 170/8/3 171/8/3
f 173/9/3 171/9/3 165/9/3
f 173/9/3 172/9/3 171/9/3
f 174/8/3 167/8/3 172/8/3
f 174/9/3 172/9/3 173/9/3
f 175/4/3 168/4/3 167/4/3
f 175/8/3 167/8/3 174/8/3
f 176/4/3 168/4/3 175/4/3
f 179/6/3 175/6/3 174/6/3
f 180/6/3 175/6/3 179/6/3
f 181/10/3 178/10/3 177/10/3
f 182/10/3 178/10/3 181/10/3
f 183/10/3 180/10/3 179/10/3
f 184/10/3 180/10/3 183/10/3
f 187/8/3 186/8/3 185/8/3
f 188/8/3 186/8/3 187/8/3
f 191/11/3 190/11/3 189/11/3
f 192/11/3 190/11/3 191/11/3
f 197/4/3 194/4/3 193/4/3
f 198/4/3 194/4/3 197/4/3
f 199/11/3 196/11/3 195/11/3
f 200/11/3 196/11/3 199/11/3
f 203/6/3 202/6/3 201/6/3
f 204/6/3 202/6/3 203/6/3
f 207/9/3 206/9/3 205/9/3
f 208/9/3 206/9/3 207/9/3
f 213/10/3 210/10/3 209/10/3
f 214/10/3 210/10/3 213/10/3
f 215/2/3 212/2/3 211/2/3
f 216/2/3 212/2/3 215/2/3
f 219/10/3 218/10/3 217/10/3
f 220/10/3 218/10/3 219/10/3
f 223/10/3 222/10/3 221/10/3
f 224/10/3 222/10/3 223/10/3
f 225/10/4 226/10/4 229/10/4
f 229/10/4 226/10/4 230/10/4
f 227/10/4 228/10/4 231/10/4
f 231/10/4 228/10/4 232/10/4
f 233/8/4 234/8/4 235/8/4
f 235/8/4 234/8/4 236/8/4
f 237/11/4 238/11/4 239/11/4
f 239/11/4 238/11/4 240/11/4
f 241/4/4 242/4/4 245/4/4
f 245/4/4 242/4/4 246/4/4
f 243/11/4 244/11/4 247/11/4
f 247/11/4 244/11/4 248/11/4
f 249/6/4 250/6/4 251/6/4
f 251/6/4 250/6/4 252/6/4
f 253/8/4 254/8/4 255/8/4
f 255/8/4 254/8/4 256/8/4
f 256/6/4 257/6/4 262/6/4
f 262/6/4 257/6/4 263/6/4
f 258/11/4 259/11/4 266/11/4
f 266/11/4 259/11/4 267/11/4
f 260/9/4 261/9/4 268/9/4
f 261/8/4 262/8/4 269/8/4
f 268/9/4 261/9/4 269/9/4
f 269/8/4 262/8/4 270/8/4
f 263/1/4 264/1/4 271/1/4
f 264/4/4 265/4/4 272/4/4
f 271/1/4 264/1/4 272/1/4
f 267/9/4 268/9/4 274/9/4
f 268/8/4 269/8/4 275/8/4
f 274/9/4 268/9/4 275/9/4
f 275/8/4 269/8/4 276/8/4
f 271/4/4 272/4/4 278/4/4
f 272/4/4 265/4/4 279/4/4
f 278/4/4 272/4/4 279/4/4
f 273/11/4 274/11/4 280/11/4
f 280/11/4 274/11/4 281/11/4
f 275/9/4 276/9/4 282/9/4
f 276/8/4 277/8/4 283/8/4
f 282/9/4 276/9/4 283/9/4
f 283/8/4 277/8/4 284/8/4
f 278/1/4 279/1/4 285/1/4
f 279/4/4 265/4/4 286/4/4
f 285/1/4 279/1/4 286/1/4
f 286/4/4 265/4/4 287/4/4
f 288/10/4 289/10/4 290/10/4
f 290/10/4 289/10/4 291/10/4
f 292/5/4 293/5/4 295/5/4
f 294/5/4 295/5/4 296/5/4
f 295/5/4 293/5/4 297/5/4
f 296/5/4 295/5/4 297/5/4
f 297/5/4 293/5/4 298/5/4
f 298/5/4 293/5/4 299/5/4
f 300/10/4 301/10/4 304/10/4
f 304/10/4 301/10/4 305/10/4
f 302/2/4 303/2/4 306/2/4
f 306/2/4 303/2/4 307/2/4
f 308/10/4 309/10/4 310/10/4
f 310/10/4 309/10/4 311/10/4
f 312/10/4 313/10/4 314/10/4
f 314/10/4 313/10/4 315/10/4
f 320/11/5 317/11/5 316/11/5
f 321/11/5 317/11/5 320/11/5
f 322/11/5 319/11/5 318/11/5
f 323/11/5 319/11/5 322/11/5
f 326/9/5 325/9/5 324/9/5
f 327/9/5 325/9/5 326/9/5
f 332/9/5 329/9/5 328/9/5
f 333/9/5 329/9/5 332/9/5
f 334/9/5 329/9/5 333/9/5
f 335/9/5 329/9/5 334/9/5
f 336/10/5 331/10/5 330/10/5
f 337/10/5 331/10/5 336/10/5
f 339/9/5 334/9/5 333/9/5
f 340/9/5 334/9/5 339/9/5
f 344/9/5 339/9/5 338/9/5
f 345/9/5 339/9/5 344/9/5
f 346/9/5 341/9/5 340/9/5
f 347/9/5 341/9/5 346/9/5
f 348/10/5 343/10/5 342/10/5
f 349/10/5 343/10/5 348/10/5
f 354/6/5 353/6/5 352/6/5
f 355/6/5 353/6/5 354/6/5
f 356/8/5 351/8/5 350/8/5
f 357/8/5 351/8/5 356/8/5
f 360/5/5 359/5/5 358/5/5
f 361/5/5 359/5/5 360/5/5
f 368/8/5 363/8/5 362/8/5
f 369/6/5 364/6/5 363/6/5
f 369/8/5 363/8/5 368/8/5
f 370/6/5 364/6/5 369/6/5
f 371/6/5 366/6/5 365/6/5
f 372/10/5 367/10/5 366/10/5
f 372/6/5 366/6/5 371/6/5
f 373/10/5 367/10/5 372/10/5
f 374/7/5 370/7/5 369/7/5
f 375/7/5 370/7/5 374/7/5
f 376/6/5 372/6/5 371/6/5
f 377/6/5 372/6/5 376/6/5
f 378/6/5 375/6/5 374/6/5
f 379/6/5 375/6/5 378/6/5
f 385/5/5 380/5/5 379/5/5
f 386/5/5 380/5/5 385/5/5
f 387/5/5 382/5/5 381/5/5
f 388/5/5 382/5/5 387/5/5
f 389/2/5 384/2/5 383/2/5
f 390/2/5 384/2/5 389/2/5
f 393/10/5 392/10/5 391/10/5
f 394/10/5 392/10/5 393/10/5
f 397/10/5 396/10/5 395/10/5
f 398/10/5 396/10/5 397/10/5
f 399/11/6 400/11/6 403/11/6
f 403/11/6 400/11/6 404/11/6
f 401/11/6 402/11/6 405/11/6
f 405/11/6 402/11/6 406/11/6
f 407/10/6 408/10/6 409/10/6
f 409/10/6 408/10/6 410/10/6
f 411/10/6 412/10/6 413/10/6
f 413/10/6 412/10/6 414/10/6
f 415/8/6 416/8/6 417/8/6
f 417/8/6 416/8/6 418/8/6
f 419/10/6 420/10/6 421/10/6
f 421/10/6 420/10/6 422/10/6
f 424/6/6 425/6/6 429/6/6
f 426/6/6 427/6/6 430/6/6
f 427/10/6 428/10/6 431/10/6
f 430/6/6 427/6/6 431/6/6
f 431/10/6 428/10/6 432/10/6
f 423/8/6 424/8/6 433/8/6
f 424/6/6 429/6/6 434/6/6
f 433/8/6 424/8/6 434/8/6
f 434/6/6 429/6/6 435/6/6
f 430/6/6 431/6/6 436/6/6
f 436/6/6 431/6/6 437/6/6
f 434/6/6 435/6/6 439/6/6
f 439/6/6 435/6/6 440/6/6
f 437/2/6 438/2/6 444/2/6
f 444/2/6 438/2/6 445/2/6
f 442/5/6 443/5/6 446/5/6
f 440/5/6 441/5/6 446/5/6
f 441/5/6 442/5/6 446/5/6
f 446/5/6 443/5/6 447/5/6
f 448/10/6 449/10/6 450/10/6
f 450/10/6 449/10/6 451/10/6
f 452/4/6 453/4/6 454/4/6
f 454/4/6 453/4/6 455/4/6
f 452/4/6 454/4/6 456/4/6
f 455/4/6 453/4/6 457/4/6
f 452/4/6 456/4/6 458/4/6
f 456/4/6 457/4/6 458/4/6
f 457/4/6 453/4/6 459/4/6
f 458/4/6 457/4/6 459/4/6
f 460/10/6 461/10/6 462/10/6
f 462/10/6 461/10/6 463/10/6
f 464/4/6 465/4/6 466/4/6
f 466/4/6 465/4/6 467/4/6
