# MagicaVoxel @ Ephtracy

# group
o GnomeBase

# material
mtllib Dab.mtl
usemtl palette

# normals
vn -1 0 0
vn 1 0 0
vn 0 0 1
vn 0 0 -1
vn 0 -1 0
vn 0 1 0

# texcoords
vt 0.0800781 0.5
vt 0.130859 0.5
vt 0.193359 0.5
vt 0.306641 0.5
vt 0.310547 0.5
vt 0.376953 0.5
vt 0.416016 0.5
vt 0.419922 0.5
vt 0.427734 0.5
vt 0.435547 0.5
vt 0.498047 0.5
vt 0.794922 0.5
vt 0.873047 0.5
vt 0.970703 0.5

# verts
v -0.1 1 0.1
v -0.1 1 0
v -0.1 1.1 0.1
v -0.1 1.1 0
v 0 0.6 -0.1
v 0 0.6 -0.2
v 0 0.7 -0.1
v 0 0.7 -0.2
v 0 0.8 -0.1
v 0 0.8 -0.2
v 0 0.9 0
v 0 0.9 -0.1
v 0 0.9 -0.2
v 0 1 0
v 0 1 -0.2
v 0 1 -0.3
v 0 1.1 0.1
v 0 1.1 0
v 0 1.1 -0.2
v 0 1.1 -0.3
v 0 1.2 0.1
v 0 1.2 -0.2
v 0.1 0.4 -0.1
v 0.1 0.4 -0.3
v 0.1 0.5 -0.1
v 0.1 0.5 -0.2
v 0.1 0.5 -0.3
v 0.1 0.6 -0.1
v 0.1 0.6 -0.2
v 0.1 0.6 -0.3
v 0.1 0.7 0
v 0.1 0.7 -0.1
v 0.1 0.7 -0.2
v 0.1 0.7 -0.3
v 0.1 0.8 0
v 0.1 0.8 -0.1
v 0.1 0.8 -0.2
v 0.1 0.8 -0.3
v 0.1 0.9 0.1
v 0.1 0.9 0
v 0.1 0.9 -0.1
v 0.1 0.9 -0.2
v 0.1 0.9 -0.3
v 0.1 1 0.1
v 0.1 1 0
v 0.1 1 -0.2
v 0.1 1 -0.3
v 0.1 1 -0.4
v 0.1 1.1 0
v 0.1 1.1 -0.2
v 0.1 1.1 -0.3
v 0.1 1.1 -0.4
v 0.1 1.2 0
v 0.1 1.2 -0.2
v 0.1 1.2 -0.3
v 0.1 1.3 0
v 0.1 1.3 -0.2
v 0.2 0.6 0
v 0.2 0.6 -0.1
v 0.2 0.7 0
v 0.2 0.7 -0.1
v 0.2 0.8 -0.3
v 0.2 0.8 -0.4
v 0.2 0.9 -0.3
v 0.2 0.9 -0.4
v 0.3 0.4 -0.1
v 0.3 0.4 -0.3
v 0.3 0.5 -0.1
v 0.3 0.5 -0.2
v 0.3 0.5 -0.3
v 0.3 0.6 -0.1
v 0.3 0.6 -0.2
v 0.4 0.8 -0.4
v 0.4 0.8 -0.5
v 0.4 1 -0.4
v 0.4 1 -0.5
v 0.5 0.8 -0.2
v 0.5 0.8 -0.3
v 0.5 0.8 -0.4
v 0.5 0.9 -0.2
v 0.5 0.9 -0.3
v 0.5 0.9 -0.4
v 0.5 1 0
v 0.5 1 -0.1
v 0.5 1.1 0
v 0.5 1.1 -0.1
v 0 1 0.1
v 0 1 0
v 0 1.1 0.1
v 0 1.1 0
v 0.1 1.1 0.1
v 0.1 1.1 0
v 0.1 1.2 0.1
v 0.1 1.2 0
v 0.2 0.4 -0.1
v 0.2 0.4 -0.3
v 0.2 0.5 -0.1
v 0.2 0.5 -0.2
v 0.2 0.5 -0.3
v 0.2 0.6 -0.1
v 0.2 0.6 -0.2
v 0.3 0.6 0
v 0.3 0.6 -0.1
v 0.3 0.7 0
v 0.3 0.7 -0.1
v 0.3 0.8 -0.3
v 0.3 0.8 -0.4
v 0.3 0.9 -0.3
v 0.3 0.9 -0.4
v 0.4 0.4 -0.1
v 0.4 0.4 -0.3
v 0.4 0.5 -0.1
v 0.4 0.5 -0.2
v 0.4 0.5 -0.3
v 0.4 0.6 -0.1
v 0.4 0.6 -0.2
v 0.4 0.6 -0.3
v 0.4 0.7 0
v 0.4 0.7 -0.1
v 0.4 0.7 -0.2
v 0.4 0.7 -0.3
v 0.4 0.8 0
v 0.4 0.8 -0.1
v 0.4 0.8 -0.2
v 0.4 0.8 -0.3
v 0.4 0.9 0.1
v 0.4 0.9 0
v 0.4 0.9 -0.1
v 0.4 0.9 -0.2
v 0.4 0.9 -0.3
v 0.4 1 0.1
v 0.4 1 0
v 0.4 1 -0.2
v 0.4 1 -0.3
v 0.4 1 -0.4
v 0.4 1.1 0
v 0.4 1.1 -0.2
v 0.4 1.1 -0.3
v 0.4 1.1 -0.4
v 0.4 1.2 0
v 0.4 1.2 -0.2
v 0.4 1.2 -0.3
v 0.4 1.3 0
v 0.4 1.3 -0.2
v 0.5 0.8 -0.1
v 0.5 0.8 -0.2
v 0.5 0.9 0
v 0.5 0.9 -0.1
v 0.5 0.9 -0.2
v 0.5 1 0
v 0.5 1 -0.1
v 0.5 1 -0.2
v 0.5 1 -0.3
v 0.5 1.1 0
v 0.5 1.1 -0.1
v 0.5 1.1 -0.2
v 0.5 1.1 -0.3
v 0.5 1.2 0
v 0.5 1.2 -0.2
v 0.6 0.8 -0.2
v 0.6 0.8 -0.3
v 0.6 0.8 -0.4
v 0.6 0.8 -0.5
v 0.6 0.9 -0.2
v 0.6 0.9 -0.3
v 0.6 0.9 -0.4
v 0.6 0.9 -0.5
v 0.6 1 0
v 0.6 1 -0.1
v 0.6 1 -0.4
v 0.6 1 -0.5
v 0.6 1.1 0
v 0.6 1.1 -0.1
v -0.1 1 0.1
v -0.1 1.1 0.1
v 0 1 0.1
v 0 1.1 0.1
v 0 1.2 0.1
v 0.1 0.9 0.1
v 0.1 1 0.1
v 0.1 1.1 0.1
v 0.1 1.2 0.1
v 0.4 0.9 0.1
v 0.4 1 0.1
v 0 0.9 0
v 0 1 0
v 0.1 0.7 0
v 0.1 0.8 0
v 0.1 0.9 0
v 0.1 1 0
v 0.1 1.1 0
v 0.1 1.2 0
v 0.1 1.3 0
v 0.2 0.6 0
v 0.2 0.7 0
v 0.2 0.8 0
v 0.2 0.9 0
v 0.3 0.6 0
v 0.3 0.7 0
v 0.3 0.8 0
v 0.3 1 0
v 0.3 1.3 0
v 0.4 0.7 0
v 0.4 0.8 0
v 0.4 0.9 0
v 0.4 1 0
v 0.4 1.1 0
v 0.4 1.2 0
v 0.4 1.3 0
v 0.5 0.9 0
v 0.5 1 0
v 0.5 1.1 0
v 0.5 1.2 0
v 0.6 1 0
v 0.6 1.1 0
v 0 0.6 -0.1
v 0 0.7 -0.1
v 0 0.8 -0.1
v 0 0.9 -0.1
v 0.1 0.4 -0.1
v 0.1 0.5 -0.1
v 0.1 0.6 -0.1
v 0.1 0.7 -0.1
v 0.1 0.8 -0.1
v 0.1 0.9 -0.1
v 0.2 0.4 -0.1
v 0.2 0.5 -0.1
v 0.2 0.6 -0.1
v 0.2 0.7 -0.1
v 0.3 0.4 -0.1
v 0.3 0.5 -0.1
v 0.3 0.6 -0.1
v 0.3 0.7 -0.1
v 0.4 0.4 -0.1
v 0.4 0.5 -0.1
v 0.4 0.6 -0.1
v 0.4 0.7 -0.1
v 0.4 0.8 -0.1
v 0.4 0.9 -0.1
v 0.5 0.8 -0.1
v 0.5 0.9 -0.1
v 0 1 -0.2
v 0 1.1 -0.2
v 0.1 1 -0.2
v 0.1 1.1 -0.2
v 0.4 1 -0.2
v 0.4 1.1 -0.2
v 0.5 0.8 -0.2
v 0.5 0.9 -0.2
v 0.5 1 -0.2
v 0.5 1.1 -0.2
v 0.6 0.8 -0.2
v 0.6 0.9 -0.2
v 0.4 0.8 -0.4
v 0.4 1 -0.4
v 0.5 0.8 -0.4
v 0.5 0.9 -0.4
v 0.6 0.9 -0.4
v 0.6 1 -0.4
v -0.1 1 0
v -0.1 1.1 0
v 0 1 0
v 0 1.1 0
v 0.5 1 -0.1
v 0.5 1.1 -0.1
v 0.6 1 -0.1
v 0.6 1.1 -0.1
v 0 0.6 -0.2
v 0 0.7 -0.2
v 0 0.8 -0.2
v 0 0.9 -0.2
v 0 1 -0.2
v 0 1.1 -0.2
v 0 1.2 -0.2
v 0.1 0.5 -0.2
v 0.1 0.6 -0.2
v 0.1 0.7 -0.2
v 0.1 0.8 -0.2
v 0.1 0.9 -0.2
v 0.1 1 -0.2
v 0.1 1.1 -0.2
v 0.1 1.2 -0.2
v 0.1 1.3 -0.2
v 0.2 0.5 -0.2
v 0.2 0.6 -0.2
v 0.2 1.2 -0.2
v 0.2 1.3 -0.2
v 0.3 0.5 -0.2
v 0.3 0.6 -0.2
v 0.3 1.2 -0.2
v 0.4 0.5 -0.2
v 0.4 0.6 -0.2
v 0.4 0.8 -0.2
v 0.4 0.9 -0.2
v 0.4 1 -0.2
v 0.4 1.1 -0.2
v 0.4 1.2 -0.2
v 0.4 1.3 -0.2
v 0.5 0.8 -0.2
v 0.5 0.9 -0.2
v 0.5 1 -0.2
v 0.5 1.1 -0.2
v 0.5 1.2 -0.2
v 0 1 -0.3
v 0 1.1 -0.3
v 0.1 0.4 -0.3
v 0.1 0.5 -0.3
v 0.1 0.6 -0.3
v 0.1 0.7 -0.3
v 0.1 0.8 -0.3
v 0.1 0.9 -0.3
v 0.1 1 -0.3
v 0.1 1.1 -0.3
v 0.1 1.2 -0.3
v 0.2 0.4 -0.3
v 0.2 0.5 -0.3
v 0.2 0.6 -0.3
v 0.2 0.7 -0.3
v 0.2 0.8 -0.3
v 0.2 0.9 -0.3
v 0.2 1 -0.3
v 0.2 1.1 -0.3
v 0.2 1.2 -0.3
v 0.3 0.4 -0.3
v 0.3 0.5 -0.3
v 0.3 0.6 -0.3
v 0.3 0.7 -0.3
v 0.3 0.8 -0.3
v 0.3 0.9 -0.3
v 0.3 1 -0.3
v 0.3 1.1 -0.3
v 0.3 1.2 -0.3
v 0.4 0.4 -0.3
v 0.4 0.5 -0.3
v 0.4 0.6 -0.3
v 0.4 0.7 -0.3
v 0.4 0.8 -0.3
v 0.4 0.9 -0.3
v 0.4 1 -0.3
v 0.4 1.1 -0.3
v 0.4 1.2 -0.3
v 0.5 1 -0.3
v 0.5 1.1 -0.3
v 0.1 1 -0.4
v 0.1 1.1 -0.4
v 0.2 0.8 -0.4
v 0.2 0.9 -0.4
v 0.3 0.8 -0.4
v 0.3 0.9 -0.4
v 0.4 1 -0.4
v 0.4 1.1 -0.4
v 0.4 0.8 -0.5
v 0.4 1 -0.5
v 0.5 0.8 -0.5
v 0.5 0.9 -0.5
v 0.6 0.8 -0.5
v 0.6 0.9 -0.5
v 0.6 1 -0.5
v 0.1 0.4 -0.1
v 0.2 0.4 -0.1
v 0.3 0.4 -0.1
v 0.4 0.4 -0.1
v 0.1 0.4 -0.3
v 0.2 0.4 -0.3
v 0.3 0.4 -0.3
v 0.4 0.4 -0.3
v 0.2 0.6 0
v 0.3 0.6 0
v 0 0.6 -0.1
v 0.1 0.6 -0.1
v 0.2 0.6 -0.1
v 0.3 0.6 -0.1
v 0 0.6 -0.2
v 0.1 0.6 -0.2
v 0.2 0.6 -0.2
v 0.3 0.6 -0.2
v 0.4 0.6 -0.2
v 0.1 0.6 -0.3
v 0.2 0.6 -0.3
v 0.3 0.6 -0.3
v 0.4 0.6 -0.3
v 0.1 0.7 0
v 0.2 0.7 0
v 0.3 0.7 0
v 0.4 0.7 0
v 0.1 0.7 -0.1
v 0.2 0.7 -0.1
v 0.3 0.7 -0.1
v 0.4 0.7 -0.1
v 0.4 0.8 -0.1
v 0.5 0.8 -0.1
v 0.4 0.8 -0.2
v 0.5 0.8 -0.2
v 0.6 0.8 -0.2
v 0.2 0.8 -0.3
v 0.3 0.8 -0.3
v 0.5 0.8 -0.3
v 0.6 0.8 -0.3
v 0.2 0.8 -0.4
v 0.3 0.8 -0.4
v 0.4 0.8 -0.4
v 0.5 0.8 -0.4
v 0.6 0.8 -0.4
v 0.4 0.8 -0.5
v 0.5 0.8 -0.5
v 0.6 0.8 -0.5
v 0.1 0.9 0.1
v 0.4 0.9 0.1
v 0 0.9 0
v 0.1 0.9 0
v 0.2 0.9 0
v 0.4 0.9 0
v 0.5 0.9 0
v 0 0.9 -0.1
v 0.1 0.9 -0.1
v 0.4 0.9 -0.1
v 0.5 0.9 -0.1
v -0.1 1 0.1
v 0 1 0.1
v -0.1 1 0
v 0 1 0
v 0.5 1 0
v 0.6 1 0
v 0.5 1 -0.1
v 0.6 1 -0.1
v 0 1 -0.2
v 0.1 1 -0.2
v 0.4 1 -0.2
v 0.5 1 -0.2
v 0 1 -0.3
v 0.1 1 -0.3
v 0.2 1 -0.3
v 0.3 1 -0.3
v 0.4 1 -0.3
v 0.5 1 -0.3
v 0.1 1 -0.4
v 0.4 1 -0.4
v 0 1.1 0.1
v 0.1 1.1 0.1
v 0 1.1 0
v 0.1 1.1 0
v 0.4 1.1 0
v 0.5 1.1 0
v 0.5 1.1 -0.1
v 0 1.1 -0.2
v 0.1 1.1 -0.2
v 0.4 1.1 -0.2
v 0.5 1.1 -0.2
v 0.1 0.5 -0.2
v 0.2 0.5 -0.2
v 0.3 0.5 -0.2
v 0.4 0.5 -0.2
v 0.1 0.5 -0.3
v 0.2 0.5 -0.3
v 0.3 0.5 -0.3
v 0.4 0.5 -0.3
v 0.5 0.9 -0.2
v 0.6 0.9 -0.2
v 0.2 0.9 -0.3
v 0.3 0.9 -0.3
v 0.5 0.9 -0.3
v 0.6 0.9 -0.3
v 0.2 0.9 -0.4
v 0.3 0.9 -0.4
v 0.5 0.9 -0.4
v 0.6 0.9 -0.4
v 0.1 1 0.1
v 0.4 1 0.1
v 0 1 0
v 0.1 1 0
v 0.3 1 0
v 0.4 1 0
v 0.5 1 0
v 0.5 1 -0.1
v 0 1 -0.2
v 0.1 1 -0.2
v 0.4 1 -0.2
v 0.5 1 -0.2
v 0.4 1 -0.4
v 0.6 1 -0.4
v 0.4 1 -0.5
v 0.6 1 -0.5
v -0.1 1.1 0.1
v 0 1.1 0.1
v -0.1 1.1 0
v 0 1.1 0
v 0.5 1.1 0
v 0.6 1.1 0
v 0.5 1.1 -0.1
v 0.6 1.1 -0.1
v 0 1.1 -0.2
v 0.1 1.1 -0.2
v 0.4 1.1 -0.2
v 0.5 1.1 -0.2
v 0 1.1 -0.3
v 0.1 1.1 -0.3
v 0.2 1.1 -0.3
v 0.3 1.1 -0.3
v 0.4 1.1 -0.3
v 0.5 1.1 -0.3
v 0.1 1.1 -0.4
v 0.4 1.1 -0.4
v 0 1.2 0.1
v 0.1 1.2 0.1
v 0.1 1.2 0
v 0.4 1.2 0
v 0.5 1.2 0
v 0 1.2 -0.2
v 0.1 1.2 -0.2
v 0.2 1.2 -0.2
v 0.3 1.2 -0.2
v 0.4 1.2 -0.2
v 0.5 1.2 -0.2
v 0.1 1.2 -0.3
v 0.2 1.2 -0.3
v 0.3 1.2 -0.3
v 0.4 1.2 -0.3
v 0.1 1.3 0
v 0.3 1.3 0
v 0.4 1.3 0
v 0.2 1.3 -0.1
v 0.3 1.3 -0.1
v 0.1 1.3 -0.2
v 0.2 1.3 -0.2
v 0.4 1.3 -0.2

# faces
f 3/12/1 2/12/1 1/12/1
f 4/12/1 2/12/1 3/12/1
f 7/10/1 6/10/1 5/10/1
f 8/10/1 6/10/1 7/10/1
f 9/11/1 8/11/1 7/11/1
f 10/11/1 8/11/1 9/11/1
f 12/1/1 10/1/1 9/1/1
f 13/1/1 10/1/1 12/1/1
f 14/12/1 12/12/1 11/12/1
f 14/12/1 13/12/1 12/12/1
f 15/12/1 13/12/1 14/12/1
f 19/12/1 16/12/1 15/12/1
f 20/12/1 16/12/1 19/12/1
f 21/3/1 18/3/1 17/3/1
f 21/3/1 19/3/1 18/3/1
f 22/3/1 19/3/1 21/3/1
f 25/10/1 24/10/1 23/10/1
f 26/10/1 24/10/1 25/10/1
f 27/10/1 24/10/1 26/10/1
f 28/9/1 26/9/1 25/9/1
f 29/9/1 26/9/1 28/9/1
f 33/1/1 30/1/1 29/1/1
f 34/1/1 30/1/1 33/1/1
f 35/1/1 32/1/1 31/1/1
f 36/1/1 32/1/1 35/1/1
f 37/6/1 34/6/1 33/6/1
f 38/6/1 34/6/1 37/6/1
f 40/11/1 36/11/1 35/11/1
f 41/11/1 36/11/1 40/11/1
f 42/5/1 38/5/1 37/5/1
f 43/5/1 38/5/1 42/5/1
f 44/12/1 40/12/1 39/12/1
f 45/12/1 40/12/1 44/12/1
f 46/14/1 43/14/1 42/14/1
f 47/14/1 43/14/1 46/14/1
f 49/3/1 46/3/1 45/3/1
f 50/3/1 46/3/1 49/3/1
f 51/12/1 48/12/1 47/12/1
f 52/12/1 48/12/1 51/12/1
f 54/12/1 51/12/1 50/12/1
f 55/12/1 51/12/1 54/12/1
f 56/3/1 54/3/1 53/3/1
f 57/3/1 54/3/1 56/3/1
f 60/11/1 59/11/1 58/11/1
f 61/11/1 59/11/1 60/11/1
f 64/5/1 63/5/1 62/5/1
f 65/5/1 63/5/1 64/5/1
f 68/10/1 67/10/1 66/10/1
f 69/10/1 67/10/1 68/10/1
f 70/10/1 67/10/1 69/10/1
f 71/9/1 69/9/1 68/9/1
f 72/9/1 69/9/1 71/9/1
f 75/7/1 74/7/1 73/7/1
f 76/7/1 74/7/1 75/7/1
f 80/1/1 78/1/1 77/1/1
f 81/11/1 79/11/1 78/11/1
f 81/1/1 78/1/1 80/1/1
f 82/11/1 79/11/1 81/11/1
f 85/12/1 84/12/1 83/12/1
f 86/12/1 84/12/1 85/12/1
f 87/12/2 88/12/2 89/12/2
f 89/12/2 88/12/2 90/12/2
f 91/3/2 92/3/2 93/3/2
f 93/3/2 92/3/2 94/3/2
f 95/10/2 96/10/2 97/10/2
f 97/10/2 96/10/2 98/10/2
f 98/10/2 96/10/2 99/10/2
f 97/9/2 98/9/2 100/9/2
f 100/9/2 98/9/2 101/9/2
f 102/11/2 103/11/2 104/11/2
f 104/11/2 103/11/2 105/11/2
f 106/5/2 107/5/2 108/5/2
f 108/5/2 107/5/2 109/5/2
f 110/10/2 111/10/2 112/10/2
f 112/10/2 111/10/2 113/10/2
f 113/10/2 111/10/2 114/10/2
f 112/9/2 113/9/2 115/9/2
f 115/9/2 113/9/2 116/9/2
f 115/1/2 116/1/2 119/1/2
f 116/1/2 117/1/2 119/1/2
f 119/1/2 117/1/2 120/1/2
f 120/1/2 117/1/2 121/1/2
f 118/11/2 119/11/2 122/11/2
f 119/1/2 120/1/2 123/1/2
f 122/11/2 119/11/2 123/11/2
f 120/6/2 121/6/2 124/6/2
f 123/1/2 120/1/2 124/1/2
f 124/6/2 121/6/2 125/6/2
f 122/1/2 123/1/2 127/1/2
f 127/1/2 123/1/2 128/1/2
f 124/5/2 125/5/2 129/5/2
f 129/5/2 125/5/2 130/5/2
f 126/12/2 127/12/2 131/12/2
f 131/12/2 127/12/2 132/12/2
f 129/14/2 130/14/2 133/14/2
f 133/14/2 130/14/2 134/14/2
f 132/2/2 133/2/2 136/2/2
f 136/2/2 133/2/2 137/2/2
f 134/12/2 135/12/2 138/12/2
f 138/12/2 135/12/2 139/12/2
f 137/12/2 138/12/2 141/12/2
f 141/12/2 138/12/2 142/12/2
f 140/2/2 141/2/2 143/2/2
f 143/2/2 141/2/2 144/2/2
f 145/11/2 146/11/2 148/11/2
f 148/11/2 146/11/2 149/11/2
f 147/12/2 148/12/2 150/12/2
f 148/12/2 149/12/2 150/12/2
f 150/12/2 149/12/2 151/12/2
f 151/12/2 149/12/2 152/12/2
f 152/12/2 153/12/2 156/12/2
f 156/12/2 153/12/2 157/12/2
f 154/2/2 155/2/2 158/2/2
f 155/2/2 156/2/2 158/2/2
f 158/2/2 156/2/2 159/2/2
f 160/1/2 161/1/2 164/1/2
f 161/11/2 162/11/2 165/11/2
f 164/1/2 161/1/2 165/1/2
f 162/10/2 163/10/2 166/10/2
f 165/11/2 162/11/2 166/11/2
f 166/10/2 163/10/2 167/10/2
f 166/7/2 167/7/2 170/7/2
f 170/7/2 167/7/2 171/7/2
f 168/12/2 169/12/2 172/12/2
f 172/12/2 169/12/2 173/12/2
f 176/12/3 175/12/3 174/12/3
f 177/12/3 175/12/3 176/12/3
f 181/3/3 178/3/3 177/3/3
f 182/3/3 178/3/3 181/3/3
f 183/12/3 180/12/3 179/12/3
f 184/12/3 180/12/3 183/12/3
f 189/12/3 186/12/3 185/12/3
f 190/12/3 186/12/3 189/12/3
f 195/1/3 188/1/3 187/1/3
f 196/11/3 189/11/3 188/11/3
f 196/1/3 188/1/3 195/1/3
f 197/11/3 189/11/3 196/11/3
f 198/11/3 195/11/3 194/11/3
f 199/1/3 196/1/3 195/1/3
f 199/11/3 195/11/3 198/11/3
f 199/1/3 197/1/3 196/1/3
f 200/1/3 197/1/3 199/1/3
f 201/3/3 192/3/3 191/3/3
f 201/3/3 193/3/3 192/3/3
f 201/3/3 191/3/3 190/3/3
f 202/3/3 193/3/3 201/3/3
f 203/11/3 200/11/3 199/11/3
f 204/1/3 197/1/3 200/1/3
f 204/11/3 200/11/3 203/11/3
f 205/1/3 197/1/3 204/1/3
f 206/2/3 202/2/3 201/2/3
f 207/2/3 202/2/3 206/2/3
f 208/2/3 202/2/3 207/2/3
f 209/2/3 202/2/3 208/2/3
f 210/12/3 206/12/3 205/12/3
f 211/12/3 206/12/3 210/12/3
f 212/2/3 208/2/3 207/2/3
f 213/2/3 208/2/3 212/2/3
f 214/12/3 212/12/3 211/12/3
f 215/12/3 212/12/3 214/12/3
f 222/10/3 217/10/3 216/10/3
f 223/11/3 218/11/3 217/11/3
f 223/10/3 217/10/3 222/10/3
f 224/1/3 219/1/3 218/1/3
f 224/11/3 218/11/3 223/11/3
f 225/1/3 219/1/3 224/1/3
f 226/10/3 221/10/3 220/10/3
f 227/9/3 222/9/3 221/9/3
f 227/10/3 221/10/3 226/10/3
f 228/1/3 223/1/3 222/1/3
f 228/9/3 222/9/3 227/9/3
f 229/1/3 223/1/3 228/1/3
f 234/10/3 231/10/3 230/10/3
f 235/9/3 232/9/3 231/9/3
f 235/10/3 231/10/3 234/10/3
f 236/1/3 233/1/3 232/1/3
f 236/9/3 232/9/3 235/9/3
f 237/1/3 233/1/3 236/1/3
f 240/11/3 239/11/3 238/11/3
f 241/11/3 239/11/3 240/11/3
f 244/12/3 243/12/3 242/12/3
f 245/12/3 243/12/3 244/12/3
f 250/12/3 247/12/3 246/12/3
f 251/12/3 247/12/3 250/12/3
f 252/1/3 249/1/3 248/1/3
f 253/1/3 249/1/3 252/1/3
f 256/7/3 255/7/3 254/7/3
f 257/7/3 255/7/3 256/7/3
f 258/7/3 255/7/3 257/7/3
f 259/7/3 255/7/3 258/7/3
f 260/12/4 261/12/4 262/12/4
f 262/12/4 261/12/4 263/12/4
f 264/12/4 265/12/4 266/12/4
f 266/12/4 265/12/4 267/12/4
f 268/10/4 269/10/4 276/10/4
f 269/11/4 270/11/4 277/11/4
f 276/10/4 269/10/4 277/10/4
f 270/1/4 271/1/4 278/1/4
f 277/11/4 270/11/4 278/11/4
f 271/12/4 272/12/4 279/12/4
f 278/1/4 271/1/4 279/1/4
f 279/12/4 272/12/4 280/12/4
f 273/3/4 274/3/4 281/3/4
f 281/3/4 274/3/4 282/3/4
f 275/9/4 276/9/4 284/9/4
f 284/9/4 276/9/4 285/9/4
f 282/3/4 283/3/4 286/3/4
f 286/3/4 283/3/4 287/3/4
f 286/2/4 287/2/4 290/2/4
f 288/9/4 289/9/4 291/9/4
f 291/9/4 289/9/4 292/9/4
f 290/2/4 287/2/4 297/2/4
f 297/2/4 287/2/4 298/2/4
f 293/11/4 294/11/4 299/11/4
f 294/12/4 295/12/4 300/12/4
f 299/11/4 294/11/4 300/11/4
f 300/12/4 295/12/4 301/12/4
f 296/2/4 297/2/4 302/2/4
f 302/2/4 297/2/4 303/2/4
f 304/12/4 305/12/4 312/12/4
f 312/12/4 305/12/4 313/12/4
f 306/10/4 307/10/4 315/10/4
f 315/10/4 307/10/4 316/10/4
f 308/1/4 309/1/4 317/1/4
f 309/6/4 310/6/4 318/6/4
f 317/1/4 309/1/4 318/1/4
f 310/5/4 311/5/4 319/5/4
f 318/6/4 310/6/4 319/6/4
f 311/14/4 312/14/4 320/14/4
f 319/5/4 311/5/4 320/5/4
f 320/14/4 312/14/4 321/14/4
f 313/12/4 314/12/4 322/12/4
f 322/12/4 314/12/4 323/12/4
f 317/6/4 318/6/4 326/6/4
f 318/5/4 319/5/4 327/5/4
f 326/6/4 318/6/4 327/6/4
f 327/5/4 319/5/4 328/5/4
f 320/5/4 321/5/4 329/5/4
f 329/5/4 321/5/4 330/5/4
f 322/2/4 323/2/4 331/2/4
f 331/2/4 323/2/4 332/2/4
f 324/10/4 325/10/4 333/10/4
f 333/10/4 325/10/4 334/10/4
f 326/1/4 327/1/4 335/1/4
f 327/6/4 328/6/4 336/6/4
f 335/1/4 327/1/4 336/1/4
f 328/5/4 329/5/4 337/5/4
f 336/6/4 328/6/4 337/6/4
f 329/14/4 330/14/4 338/14/4
f 337/5/4 329/5/4 338/5/4
f 338/14/4 330/14/4 339/14/4
f 331/12/4 332/12/4 340/12/4
f 340/12/4 332/12/4 341/12/4
f 339/12/4 340/12/4 342/12/4
f 342/12/4 340/12/4 343/12/4
f 346/5/4 347/5/4 348/5/4
f 348/5/4 347/5/4 349/5/4
f 344/12/4 345/12/4 350/12/4
f 350/12/4 345/12/4 351/12/4
f 352/7/4 353/7/4 354/7/4
f 354/7/4 353/7/4 355/7/4
f 354/10/4 355/10/4 356/10/4
f 355/7/4 353/7/4 357/7/4
f 356/10/4 355/10/4 357/10/4
f 357/7/4 353/7/4 358/7/4
f 363/10/5 360/10/5 359/10/5
f 364/10/5 360/10/5 363/10/5
f 365/10/5 362/10/5 361/10/5
f 366/10/5 362/10/5 365/10/5
f 371/11/5 368/11/5 367/11/5
f 372/11/5 368/11/5 371/11/5
f 373/10/5 370/10/5 369/10/5
f 374/10/5 370/10/5 373/10/5
f 375/1/5 372/1/5 371/1/5
f 376/1/5 372/1/5 375/1/5
f 378/1/5 375/1/5 374/1/5
f 379/6/5 376/6/5 375/6/5
f 379/1/5 375/1/5 378/1/5
f 380/1/5 377/1/5 376/1/5
f 380/6/5 376/6/5 379/6/5
f 381/1/5 377/1/5 380/1/5
f 386/1/5 383/1/5 382/1/5
f 387/1/5 383/1/5 386/1/5
f 388/11/5 385/11/5 384/11/5
f 389/11/5 385/11/5 388/11/5
f 392/11/5 391/11/5 390/11/5
f 393/11/5 391/11/5 392/11/5
f 397/1/5 394/1/5 393/1/5
f 398/1/5 394/1/5 397/1/5
f 399/5/5 396/5/5 395/5/5
f 400/5/5 396/5/5 399/5/5
f 402/11/5 398/11/5 397/11/5
f 403/11/5 398/11/5 402/11/5
f 404/7/5 402/7/5 401/7/5
f 405/10/5 403/10/5 402/10/5
f 405/7/5 402/7/5 404/7/5
f 406/10/5 403/10/5 405/10/5
f 410/12/5 408/12/5 407/12/5
f 411/12/5 408/12/5 410/12/5
f 412/12/5 408/12/5 411/12/5
f 414/12/5 410/12/5 409/12/5
f 415/12/5 410/12/5 414/12/5
f 416/12/5 413/12/5 412/12/5
f 417/12/5 413/12/5 416/12/5
f 420/12/5 419/12/5 418/12/5
f 421/12/5 419/12/5 420/12/5
f 424/12/5 423/12/5 422/12/5
f 425/12/5 423/12/5 424/12/5
f 430/12/5 427/12/5 426/12/5
f 431/12/5 427/12/5 430/12/5
f 434/12/5 429/12/5 428/12/5
f 435/12/5 429/12/5 434/12/5
f 436/12/5 433/12/5 432/12/5
f 436/12/5 434/12/5 433/12/5
f 436/12/5 432/12/5 431/12/5
f 437/12/5 434/12/5 436/12/5
f 440/3/5 439/3/5 438/3/5
f 441/3/5 439/3/5 440/3/5
f 444/2/5 443/2/5 442/2/5
f 445/3/5 441/3/5 440/3/5
f 446/3/5 441/3/5 445/3/5
f 447/2/5 444/2/5 442/2/5
f 448/2/5 444/2/5 447/2/5
f 449/10/6 450/10/6 453/10/6
f 453/10/6 450/10/6 454/10/6
f 451/10/6 452/10/6 455/10/6
f 455/10/6 452/10/6 456/10/6
f 457/1/6 458/1/6 461/1/6
f 461/1/6 458/1/6 462/1/6
f 459/5/6 460/5/6 463/5/6
f 463/5/6 460/5/6 464/5/6
f 461/11/6 462/11/6 465/11/6
f 465/11/6 462/11/6 466/11/6
f 467/12/6 468/12/6 470/12/6
f 470/12/6 468/12/6 471/12/6
f 471/12/6 468/12/6 472/12/6
f 472/12/6 473/12/6 474/12/6
f 469/12/6 470/12/6 475/12/6
f 475/12/6 470/12/6 476/12/6
f 472/12/6 474/12/6 477/12/6
f 477/12/6 474/12/6 478/12/6
f 479/7/6 480/7/6 481/7/6
f 481/7/6 480/7/6 482/7/6
f 483/12/6 484/12/6 485/12/6
f 485/12/6 484/12/6 486/12/6
f 487/12/6 488/12/6 489/12/6
f 489/12/6 488/12/6 490/12/6
f 491/12/6 492/12/6 495/12/6
f 495/12/6 492/12/6 496/12/6
f 493/12/6 494/12/6 499/12/6
f 499/12/6 494/12/6 500/12/6
f 497/12/6 498/12/6 501/12/6
f 498/12/6 499/12/6 501/12/6
f 496/12/6 497/12/6 501/12/6
f 501/12/6 499/12/6 502/12/6
f 503/3/6 504/3/6 505/3/6
f 503/3/6 505/3/6 508/3/6
f 508/3/6 505/3/6 509/3/6
f 506/2/6 507/2/6 512/2/6
f 512/2/6 507/2/6 513/2/6
f 509/12/6 510/12/6 514/12/6
f 510/2/6 511/2/6 515/2/6
f 514/12/6 510/12/6 515/12/6
f 511/12/6 512/12/6 516/12/6
f 515/2/6 511/2/6 516/2/6
f 516/12/6 512/12/6 517/12/6
f 518/3/6 519/3/6 521/3/6
f 519/2/6 520/2/6 522/2/6
f 521/3/6 519/3/6 522/3/6
f 518/3/6 521/3/6 523/3/6
f 521/2/6 522/2/6 524/2/6
f 523/3/6 521/3/6 524/3/6
f 522/2/6 520/2/6 525/2/6
f 524/2/6 522/2/6 525/2/6
