# MagicaVoxel @ Ephtracy

# group
o GnomeBase

# material
mtllib DedKnight.mtl
usemtl palette

# normals
vn -1 0 0
vn 1 0 0
vn 0 0 1
vn 0 0 -1
vn 0 -1 0
vn 0 1 0

# texcoords
vt 0.0410156 0.5
vt 0.115234 0.5
vt 0.119141 0.5
vt 0.306641 0.5
vt 0.369141 0.5
vt 0.373047 0.5
vt 0.396484 0.5
vt 0.541016 0.5
vt 0.556641 0.5
vt 0.806641 0.5
vt 0.904297 0.5
vt 0.970703 0.5

# verts
v -0.1 0.9 -0.1
v -0.1 0.9 -0.2
v -0.1 1 -0.1
v -0.1 1 -0.2
v -0.1 1.1 -0.1
v -0.1 1.1 -0.2
v 0 0.7 0
v 0 0.7 -0.3
v 0 0.8 0
v 0 0.8 -0.1
v 0 0.8 -0.2
v 0 0.8 -0.3
v 0 0.9 -0.1
v 0 0.9 -0.2
v 0.1 0.4 -0.1
v 0.1 0.4 -0.3
v 0.1 0.5 -0.1
v 0.1 0.5 -0.2
v 0.1 0.5 -0.3
v 0.1 0.6 0
v 0.1 0.6 -0.1
v 0.1 0.6 -0.2
v 0.1 0.6 -0.4
v 0.1 0.7 0
v 0.1 0.7 -0.1
v 0.1 0.7 -0.3
v 0.1 0.7 -0.4
v 0.1 0.8 0.1
v 0.1 0.8 0
v 0.1 0.8 -0.1
v 0.1 0.8 -0.2
v 0.1 0.8 -0.3
v 0.1 0.8 -0.4
v 0.1 0.9 0.1
v 0.1 0.9 0
v 0.1 0.9 -0.1
v 0.1 0.9 -0.2
v 0.1 1 -0.1
v 0.1 1 -0.2
v 0.1 1 -0.3
v 0.1 1.1 -0.2
v 0.1 1.1 -0.3
v 0.1 1.2 -0.1
v 0.1 1.2 -0.2
v 0.1 1.2 -0.3
v 0.1 1.3 0
v 0.1 1.3 -0.2
v 0.2 0.7 0.1
v 0.2 0.7 0
v 0.2 0.8 0.1
v 0.2 0.8 0
v 0.3 0.4 -0.1
v 0.3 0.4 -0.3
v 0.3 0.5 -0.1
v 0.3 0.5 -0.2
v 0.3 0.5 -0.3
v 0.3 0.6 -0.1
v 0.3 0.6 -0.2
v 0.4 0.4 0.2
v 0.4 0.4 0
v 0.4 0.5 0.1
v 0.4 0.5 0
v 0.4 0.5 -0.1
v 0.4 0.5 -0.2
v 0.4 0.5 -0.3
v 0.4 0.6 0.2
v 0.4 0.6 0.1
v 0.4 0.6 0
v 0.4 0.6 -0.1
v 0.4 0.6 -0.2
v 0.4 0.6 -0.3
v 0.4 0.7 0.1
v 0.4 0.7 0
v 0.5 0.9 -0.2
v 0.5 0.9 -0.3
v 0.5 1 -0.2
v 0.5 1 -0.3
v 0.5 1 -0.4
v 0.5 1.1 -0.3
v 0.5 1.1 -0.4
v 0 1 -0.1
v 0 1 -0.2
v 0 1.1 -0.1
v 0 1.1 -0.2
v 0.2 0.4 -0.1
v 0.2 0.4 -0.3
v 0.2 0.5 -0.1
v 0.2 0.5 -0.2
v 0.2 0.5 -0.3
v 0.2 0.6 -0.1
v 0.2 0.6 -0.2
v 0.3 0.7 0.1
v 0.3 0.7 0
v 0.3 0.8 0.1
v 0.3 0.8 0
v 0.4 0.4 -0.1
v 0.4 0.4 -0.3
v 0.4 0.5 -0.1
v 0.4 0.5 -0.2
v 0.4 0.5 -0.3
v 0.4 0.6 -0.1
v 0.4 0.6 -0.2
v 0.4 0.6 -0.3
v 0.4 0.6 -0.4
v 0.4 0.7 -0.3
v 0.4 0.7 -0.4
v 0.4 0.8 -0.3
v 0.4 0.8 -0.4
v 0.4 0.9 0
v 0.4 0.9 -0.1
v 0.4 0.9 -0.2
v 0.4 0.9 -0.3
v 0.4 1 -0.1
v 0.4 1 -0.2
v 0.4 1 -0.3
v 0.4 1.1 -0.1
v 0.4 1.1 -0.2
v 0.4 1.1 -0.3
v 0.4 1.2 -0.2
v 0.4 1.2 -0.3
v 0.4 1.3 0
v 0.4 1.3 -0.2
v 0.5 0.4 0.2
v 0.5 0.4 0
v 0.5 0.5 0.1
v 0.5 0.5 0
v 0.5 0.5 -0.1
v 0.5 0.5 -0.2
v 0.5 0.5 -0.3
v 0.5 0.6 0.2
v 0.5 0.6 0.1
v 0.5 0.6 -0.1
v 0.5 0.6 -0.2
v 0.5 0.7 0.1
v 0.5 0.7 0
v 0.5 0.7 -0.1
v 0.5 0.7 -0.2
v 0.5 0.7 -0.3
v 0.5 0.8 0.1
v 0.5 0.8 0
v 0.5 0.8 -0.1
v 0.5 0.8 -0.2
v 0.5 0.8 -0.3
v 0.5 0.9 0.1
v 0.5 0.9 -0.1
v 0.5 0.9 -0.2
v 0.5 0.9 -0.3
v 0.5 1 -0.1
v 0.5 1 -0.2
v 0.6 0.9 -0.2
v 0.6 0.9 -0.3
v 0.6 1 -0.2
v 0.6 1 -0.3
v 0.6 1 -0.4
v 0.6 1.1 -0.3
v 0.6 1.1 -0.4
v 0.4 0.4 0.2
v 0.4 0.6 0.2
v 0.5 0.4 0.2
v 0.5 0.6 0.2
v 0.1 0.8 0.1
v 0.1 0.9 0.1
v 0.2 0.7 0.1
v 0.2 0.8 0.1
v 0.3 0.7 0.1
v 0.3 0.8 0.1
v 0.4 0.6 0.1
v 0.4 0.7 0.1
v 0.4 0.8 0.1
v 0.4 0.9 0.1
v 0.5 0.6 0.1
v 0.5 0.7 0.1
v 0.5 0.8 0.1
v 0.5 0.9 0.1
v 0 0.7 0
v 0 0.8 0
v 0.1 0.6 0
v 0.1 0.7 0
v 0.1 0.8 0
v 0.1 0.9 0
v 0.1 1.3 0
v 0.2 0.7 0
v 0.2 0.8 0
v 0.2 0.9 0
v 0.2 1 0
v 0.3 0.7 0
v 0.3 0.8 0
v 0.3 0.9 0
v 0.3 1 0
v 0.4 0.6 0
v 0.4 0.7 0
v 0.4 0.8 0
v 0.4 0.9 0
v 0.4 1.3 0
v 0.5 0.7 0
v 0.5 0.8 0
v -0.1 0.9 -0.1
v -0.1 1 -0.1
v -0.1 1.1 -0.1
v 0 0.8 -0.1
v 0 0.9 -0.1
v 0 1 -0.1
v 0 1.1 -0.1
v 0.1 0.4 -0.1
v 0.1 0.5 -0.1
v 0.1 0.6 -0.1
v 0.1 0.8 -0.1
v 0.1 0.9 -0.1
v 0.1 1 -0.1
v 0.2 0.4 -0.1
v 0.2 0.5 -0.1
v 0.2 0.6 -0.1
v 0.3 0.4 -0.1
v 0.3 0.5 -0.1
v 0.3 0.6 -0.1
v 0.4 0.4 -0.1
v 0.4 0.5 -0.1
v 0.4 0.6 -0.1
v 0.4 0.9 -0.1
v 0.4 1 -0.1
v 0.5 0.9 -0.1
v 0.5 1 -0.1
v 0.4 0.5 -0.2
v 0.4 0.6 -0.2
v 0.5 0.5 -0.2
v 0.5 0.6 -0.2
v 0.5 0.9 -0.2
v 0.5 1 -0.2
v 0.6 0.9 -0.2
v 0.6 1 -0.2
v 0.5 1 -0.3
v 0.5 1.1 -0.3
v 0.6 1 -0.3
v 0.6 1.1 -0.3
v 0.4 0.4 0
v 0.4 0.5 0
v 0.5 0.4 0
v 0.5 0.5 0
v 0.4 0.5 -0.1
v 0.4 0.6 -0.1
v 0.5 0.5 -0.1
v 0.5 0.6 -0.1
v -0.1 0.9 -0.2
v -0.1 1 -0.2
v -0.1 1.1 -0.2
v 0 0.8 -0.2
v 0 0.9 -0.2
v 0 1 -0.2
v 0 1.1 -0.2
v 0.1 0.5 -0.2
v 0.1 0.6 -0.2
v 0.1 0.8 -0.2
v 0.1 0.9 -0.2
v 0.1 1 -0.2
v 0.1 1.2 -0.2
v 0.1 1.3 -0.2
v 0.2 0.5 -0.2
v 0.2 0.6 -0.2
v 0.2 1.2 -0.2
v 0.2 1.3 -0.2
v 0.3 0.5 -0.2
v 0.3 0.6 -0.2
v 0.3 1.2 -0.2
v 0.3 1.3 -0.2
v 0.4 0.5 -0.2
v 0.4 0.6 -0.2
v 0.4 0.9 -0.2
v 0.4 1 -0.2
v 0.4 1.2 -0.2
v 0.4 1.3 -0.2
v 0.5 0.9 -0.2
v 0.5 1 -0.2
v 0 0.7 -0.3
v 0 0.8 -0.3
v 0.1 0.4 -0.3
v 0.1 0.5 -0.3
v 0.1 0.7 -0.3
v 0.1 0.8 -0.3
v 0.1 1 -0.3
v 0.1 1.1 -0.3
v 0.1 1.2 -0.3
v 0.2 0.4 -0.3
v 0.2 0.5 -0.3
v 0.2 0.8 -0.3
v 0.2 0.9 -0.3
v 0.2 1 -0.3
v 0.2 1.1 -0.3
v 0.3 0.4 -0.3
v 0.3 0.5 -0.3
v 0.3 0.8 -0.3
v 0.3 0.9 -0.3
v 0.3 1 -0.3
v 0.3 1.1 -0.3
v 0.4 0.4 -0.3
v 0.4 0.5 -0.3
v 0.4 0.6 -0.3
v 0.4 0.7 -0.3
v 0.4 0.8 -0.3
v 0.4 0.9 -0.3
v 0.4 1 -0.3
v 0.4 1.1 -0.3
v 0.4 1.2 -0.3
v 0.5 0.5 -0.3
v 0.5 0.7 -0.3
v 0.5 0.8 -0.3
v 0.5 0.9 -0.3
v 0.5 1 -0.3
v 0.6 0.9 -0.3
v 0.6 1 -0.3
v 0.1 0.6 -0.4
v 0.1 0.7 -0.4
v 0.1 0.8 -0.4
v 0.4 0.6 -0.4
v 0.4 0.7 -0.4
v 0.4 0.8 -0.4
v 0.5 1 -0.4
v 0.5 1.1 -0.4
v 0.6 1 -0.4
v 0.6 1.1 -0.4
v 0.4 0.4 0.2
v 0.5 0.4 0.2
v 0.4 0.4 0
v 0.5 0.4 0
v 0.1 0.4 -0.1
v 0.2 0.4 -0.1
v 0.3 0.4 -0.1
v 0.4 0.4 -0.1
v 0.1 0.4 -0.3
v 0.2 0.4 -0.3
v 0.3 0.4 -0.3
v 0.4 0.4 -0.3
v 0.4 0.5 0
v 0.5 0.5 0
v 0.4 0.5 -0.1
v 0.5 0.5 -0.1
v 0.4 0.5 -0.2
v 0.5 0.5 -0.2
v 0.4 0.5 -0.3
v 0.5 0.5 -0.3
v 0.1 0.6 0
v 0.4 0.6 0
v 0.1 0.6 -0.1
v 0.2 0.6 -0.1
v 0.3 0.6 -0.1
v 0.4 0.6 -0.1
v 0.5 0.6 -0.1
v 0.1 0.6 -0.2
v 0.2 0.6 -0.2
v 0.3 0.6 -0.2
v 0.4 0.6 -0.2
v 0.5 0.6 -0.2
v 0.2 0.6 -0.3
v 0.3 0.6 -0.3
v 0.4 0.6 -0.3
v 0.1 0.6 -0.4
v 0.4 0.6 -0.4
v 0.2 0.7 0.1
v 0.3 0.7 0.1
v 0 0.7 0
v 0.1 0.7 0
v 0.2 0.7 0
v 0.3 0.7 0
v 0.1 0.7 -0.1
v 0 0.7 -0.3
v 0.1 0.7 -0.3
v 0.1 0.8 0.1
v 0.2 0.8 0.1
v 0.3 0.8 0.1
v 0.4 0.8 0.1
v 0.5 0.8 0.1
v 0.1 0.8 0
v 0.2 0.8 0
v 0.3 0.8 0
v 0.4 0.8 0
v 0.5 0.8 0
v -0.1 0.9 -0.1
v 0 0.9 -0.1
v -0.1 0.9 -0.2
v 0 0.9 -0.2
v 0.5 0.9 -0.2
v 0.6 0.9 -0.2
v 0.5 0.9 -0.3
v 0.6 0.9 -0.3
v 0.5 1 -0.3
v 0.6 1 -0.3
v 0.5 1 -0.4
v 0.6 1 -0.4
v 0.1 0.5 -0.2
v 0.2 0.5 -0.2
v 0.3 0.5 -0.2
v 0.4 0.5 -0.2
v 0.1 0.5 -0.3
v 0.2 0.5 -0.3
v 0.3 0.5 -0.3
v 0.4 0.5 -0.3
v 0.4 0.6 0.2
v 0.5 0.6 0.2
v 0.4 0.6 0.1
v 0.5 0.6 0.1
v 0.4 0.7 0.1
v 0.5 0.7 0.1
v 0.4 0.7 0
v 0.5 0.7 0
v 0 0.8 0
v 0.1 0.8 0
v 0 0.8 -0.1
v 0.1 0.8 -0.1
v 0 0.8 -0.2
v 0.1 0.8 -0.2
v 0 0.8 -0.3
v 0.1 0.8 -0.3
v 0.2 0.8 -0.3
v 0.3 0.8 -0.3
v 0.4 0.8 -0.3
v 0.1 0.8 -0.4
v 0.4 0.8 -0.4
v 0.1 0.9 0.1
v 0.4 0.9 0.1
v 0.5 0.9 0.1
v 0.1 0.9 0
v 0.2 0.9 0
v 0.3 0.9 0
v 0.4 0.9 0
v 0.4 0.9 -0.1
v 0.5 0.9 -0.1
v 0.4 0.9 -0.2
v 0.5 0.9 -0.2
v 0.4 0.9 -0.3
v 0.5 0.9 -0.3
v 0 1 -0.1
v 0.1 1 -0.1
v 0.4 1 -0.1
v 0.5 1 -0.1
v 0 1 -0.2
v 0.1 1 -0.2
v 0.4 1 -0.2
v 0.5 1 -0.2
v 0.6 1 -0.2
v 0.5 1 -0.3
v 0.6 1 -0.3
v -0.1 1.1 -0.1
v 0 1.1 -0.1
v -0.1 1.1 -0.2
v 0 1.1 -0.2
v 0.5 1.1 -0.3
v 0.6 1.1 -0.3
v 0.5 1.1 -0.4
v 0.6 1.1 -0.4
v 0.1 1.2 -0.2
v 0.2 1.2 -0.2
v 0.3 1.2 -0.2
v 0.4 1.2 -0.2
v 0.1 1.2 -0.3
v 0.4 1.2 -0.3
v 0.1 1.3 0
v 0.4 1.3 0
v 0.2 1.3 -0.1
v 0.3 1.3 -0.1
v 0.1 1.3 -0.2
v 0.2 1.3 -0.2
v 0.3 1.3 -0.2
v 0.4 1.3 -0.2

# faces
f 3/7/1 2/7/1 1/7/1
f 4/7/1 2/7/1 3/7/1
f 5/2/1 4/2/1 3/2/1
f 6/2/1 4/2/1 5/2/1
f 9/6/1 8/6/1 7/6/1
f 10/6/1 8/6/1 9/6/1
f 11/6/1 8/6/1 10/6/1
f 12/6/1 8/6/1 11/6/1
f 13/7/1 11/7/1 10/7/1
f 14/7/1 11/7/1 13/7/1
f 17/10/1 16/10/1 15/10/1
f 18/10/1 16/10/1 17/10/1
f 19/10/1 16/10/1 18/10/1
f 21/5/1 18/5/1 17/5/1
f 22/5/1 18/5/1 21/5/1
f 24/6/1 21/6/1 20/6/1
f 25/5/1 22/5/1 21/5/1
f 25/6/1 21/6/1 24/6/1
f 25/5/1 23/5/1 22/5/1
f 26/5/1 23/5/1 25/5/1
f 27/5/1 23/5/1 26/5/1
f 32/6/1 27/6/1 26/6/1
f 33/6/1 27/6/1 32/6/1
f 34/6/1 30/6/1 29/6/1
f 34/6/1 29/6/1 28/6/1
f 35/6/1 30/6/1 34/6/1
f 36/6/1 30/6/1 35/6/1
f 37/12/1 32/12/1 31/12/1
f 38/12/1 36/12/1 35/12/1
f 39/12/1 32/12/1 37/12/1
f 40/12/1 32/12/1 39/12/1
f 41/11/1 39/11/1 38/11/1
f 41/1/1 40/1/1 39/1/1
f 42/1/1 40/1/1 41/1/1
f 43/12/1 38/12/1 35/12/1
f 43/11/1 41/11/1 38/11/1
f 43/11/1 42/11/1 41/11/1
f 44/11/1 42/11/1 43/11/1
f 45/11/1 42/11/1 44/11/1
f 46/12/1 43/12/1 35/12/1
f 46/12/1 44/12/1 43/12/1
f 47/12/1 44/12/1 46/12/1
f 50/6/1 49/6/1 48/6/1
f 51/6/1 49/6/1 50/6/1
f 54/10/1 53/10/1 52/10/1
f 55/10/1 53/10/1 54/10/1
f 56/10/1 53/10/1 55/10/1
f 57/5/1 55/5/1 54/5/1
f 58/5/1 55/5/1 57/5/1
f 61/9/1 60/9/1 59/9/1
f 62/9/1 60/9/1 61/9/1
f 66/9/1 61/9/1 59/9/1
f 67/3/1 62/3/1 61/3/1
f 67/9/1 61/9/1 66/9/1
f 67/3/1 63/3/1 62/3/1
f 68/3/1 63/3/1 67/3/1
f 69/3/1 63/3/1 68/3/1
f 70/9/1 65/9/1 64/9/1
f 71/9/1 65/9/1 70/9/1
f 72/3/1 68/3/1 67/3/1
f 73/3/1 68/3/1 72/3/1
f 76/7/1 75/7/1 74/7/1
f 77/7/1 75/7/1 76/7/1
f 79/2/1 78/2/1 77/2/1
f 80/2/1 78/2/1 79/2/1
f 81/2/2 82/2/2 83/2/2
f 83/2/2 82/2/2 84/2/2
f 85/10/2 86/10/2 87/10/2
f 87/10/2 86/10/2 88/10/2
f 88/10/2 86/10/2 89/10/2
f 87/5/2 88/5/2 90/5/2
f 90/5/2 88/5/2 91/5/2
f 92/6/2 93/6/2 94/6/2
f 94/6/2 93/6/2 95/6/2
f 96/10/2 97/10/2 98/10/2
f 98/10/2 97/10/2 99/10/2
f 99/10/2 97/10/2 100/10/2
f 98/5/2 99/5/2 101/5/2
f 101/5/2 99/5/2 102/5/2
f 103/5/2 104/5/2 105/5/2
f 105/5/2 104/5/2 106/5/2
f 105/6/2 106/6/2 107/6/2
f 107/6/2 106/6/2 108/6/2
f 109/12/2 110/12/2 113/12/2
f 111/12/2 112/12/2 114/12/2
f 114/12/2 112/12/2 115/12/2
f 109/12/2 113/12/2 116/12/2
f 113/11/2 114/11/2 116/11/2
f 114/1/2 115/1/2 117/1/2
f 116/11/2 114/11/2 117/11/2
f 117/1/2 115/1/2 118/1/2
f 116/12/2 117/12/2 119/12/2
f 117/11/2 118/11/2 119/11/2
f 119/11/2 118/11/2 120/11/2
f 109/12/2 116/12/2 121/12/2
f 116/12/2 119/12/2 121/12/2
f 121/12/2 119/12/2 122/12/2
f 123/9/2 124/9/2 125/9/2
f 125/9/2 124/9/2 126/9/2
f 123/9/2 125/9/2 130/9/2
f 125/3/2 126/3/2 131/3/2
f 130/9/2 125/9/2 131/9/2
f 126/3/2 127/3/2 131/3/2
f 131/3/2 127/3/2 132/3/2
f 128/9/2 129/9/2 133/9/2
f 131/3/2 132/3/2 134/3/2
f 134/3/2 132/3/2 135/3/2
f 132/9/2 133/9/2 136/9/2
f 135/3/2 132/3/2 136/3/2
f 133/9/2 129/9/2 137/9/2
f 136/9/2 133/9/2 137/9/2
f 137/9/2 129/9/2 138/9/2
f 135/9/2 136/9/2 140/9/2
f 136/8/2 137/8/2 141/8/2
f 140/9/2 136/9/2 141/9/2
f 137/6/2 138/6/2 142/6/2
f 141/8/2 137/8/2 142/8/2
f 142/6/2 138/6/2 143/6/2
f 140/9/2 141/9/2 144/9/2
f 139/9/2 140/9/2 144/9/2
f 141/7/2 142/7/2 145/7/2
f 144/9/2 141/9/2 145/9/2
f 142/9/2 143/9/2 146/9/2
f 145/7/2 142/7/2 146/7/2
f 146/9/2 143/9/2 147/9/2
f 145/6/2 146/6/2 148/6/2
f 148/6/2 146/6/2 149/6/2
f 150/7/2 151/7/2 152/7/2
f 152/7/2 151/7/2 153/7/2
f 153/2/2 154/2/2 155/2/2
f 155/2/2 154/2/2 156/2/2
f 159/9/3 158/9/3 157/9/3
f 160/9/3 158/9/3 159/9/3
f 164/6/3 162/6/3 161/6/3
f 165/6/3 164/6/3 163/6/3
f 166/6/3 162/6/3 164/6/3
f 166/6/3 164/6/3 165/6/3
f 169/6/3 162/6/3 166/6/3
f 170/6/3 162/6/3 169/6/3
f 171/3/3 168/3/3 167/3/3
f 172/3/3 168/3/3 171/3/3
f 173/9/3 170/9/3 169/9/3
f 174/9/3 170/9/3 173/9/3
f 178/6/3 176/6/3 175/6/3
f 179/6/3 176/6/3 178/6/3
f 182/6/3 178/6/3 177/6/3
f 182/6/3 179/6/3 178/6/3
f 183/6/3 179/6/3 182/6/3
f 184/12/3 181/12/3 180/12/3
f 185/12/3 181/12/3 184/12/3
f 186/6/3 182/6/3 177/6/3
f 188/11/3 185/11/3 184/11/3
f 189/12/3 181/12/3 185/12/3
f 189/11/3 185/11/3 188/11/3
f 190/6/3 187/6/3 186/6/3
f 190/6/3 186/6/3 177/6/3
f 191/6/3 187/6/3 190/6/3
f 192/6/3 187/6/3 191/6/3
f 193/12/3 189/12/3 188/12/3
f 194/12/3 181/12/3 189/12/3
f 194/12/3 189/12/3 193/12/3
f 195/9/3 192/9/3 191/9/3
f 196/9/3 192/9/3 195/9/3
f 201/7/3 198/7/3 197/7/3
f 202/2/3 199/2/3 198/2/3
f 202/7/3 198/7/3 201/7/3
f 203/2/3 199/2/3 202/2/3
f 207/7/3 201/7/3 200/7/3
f 208/6/3 202/6/3 201/6/3
f 208/7/3 201/7/3 207/7/3
f 209/6/3 202/6/3 208/6/3
f 210/10/3 205/10/3 204/10/3
f 211/5/3 206/5/3 205/5/3
f 211/10/3 205/10/3 210/10/3
f 212/5/3 206/5/3 211/5/3
f 216/10/3 214/10/3 213/10/3
f 217/5/3 215/5/3 214/5/3
f 217/10/3 214/10/3 216/10/3
f 218/5/3 215/5/3 217/5/3
f 221/6/3 220/6/3 219/6/3
f 222/6/3 220/6/3 221/6/3
f 225/9/3 224/9/3 223/9/3
f 226/9/3 224/9/3 225/9/3
f 229/7/3 228/7/3 227/7/3
f 230/7/3 228/7/3 229/7/3
f 233/2/3 232/2/3 231/2/3
f 234/2/3 232/2/3 233/2/3
f 235/9/4 236/9/4 237/9/4
f 237/9/4 236/9/4 238/9/4
f 239/3/4 240/3/4 241/3/4
f 241/3/4 240/3/4 242/3/4
f 243/7/4 244/7/4 247/7/4
f 244/2/4 245/2/4 248/2/4
f 247/7/4 244/7/4 248/7/4
f 248/2/4 245/2/4 249/2/4
f 246/7/4 247/7/4 252/7/4
f 247/6/4 248/6/4 253/6/4
f 252/7/4 247/7/4 253/7/4
f 253/6/4 248/6/4 254/6/4
f 250/5/4 251/5/4 257/5/4
f 257/5/4 251/5/4 258/5/4
f 255/12/4 256/12/4 259/12/4
f 259/12/4 256/12/4 260/12/4
f 259/11/4 260/11/4 263/11/4
f 263/11/4 260/11/4 264/11/4
f 261/5/4 262/5/4 265/5/4
f 265/5/4 262/5/4 266/5/4
f 263/12/4 264/12/4 269/12/4
f 269/12/4 264/12/4 270/12/4
f 267/6/4 268/6/4 271/6/4
f 271/6/4 268/6/4 272/6/4
f 273/6/4 274/6/4 277/6/4
f 277/6/4 274/6/4 278/6/4
f 275/10/4 276/10/4 282/10/4
f 282/10/4 276/10/4 283/10/4
f 278/12/4 279/12/4 284/12/4
f 284/12/4 279/12/4 285/12/4
f 279/1/4 280/1/4 286/1/4
f 285/12/4 279/12/4 286/12/4
f 280/11/4 281/11/4 287/11/4
f 286/1/4 280/1/4 287/1/4
f 284/11/4 285/11/4 290/11/4
f 285/12/4 286/12/4 291/12/4
f 290/11/4 285/11/4 291/11/4
f 286/11/4 287/11/4 292/11/4
f 291/12/4 286/12/4 292/12/4
f 287/11/4 281/11/4 293/11/4
f 292/11/4 287/11/4 293/11/4
f 288/10/4 289/10/4 294/10/4
f 294/10/4 289/10/4 295/10/4
f 291/12/4 292/12/4 298/12/4
f 290/12/4 291/12/4 298/12/4
f 298/12/4 292/12/4 299/12/4
f 292/1/4 293/1/4 300/1/4
f 299/12/4 292/12/4 300/12/4
f 293/11/4 281/11/4 301/11/4
f 300/1/4 293/1/4 301/1/4
f 301/11/4 281/11/4 302/11/4
f 296/9/4 297/9/4 303/9/4
f 295/9/4 296/9/4 303/9/4
f 297/6/4 298/6/4 304/6/4
f 303/9/4 297/9/4 304/9/4
f 298/9/4 299/9/4 305/9/4
f 304/6/4 298/6/4 305/6/4
f 305/9/4 299/9/4 306/9/4
f 306/7/4 307/7/4 308/7/4
f 308/7/4 307/7/4 309/7/4
f 310/5/4 311/5/4 313/5/4
f 311/6/4 312/6/4 314/6/4
f 313/5/4 311/5/4 314/5/4
f 314/6/4 312/6/4 315/6/4
f 316/2/4 317/2/4 318/2/4
f 318/2/4 317/2/4 319/2/4
f 322/9/5 321/9/5 320/9/5
f 323/9/5 321/9/5 322/9/5
f 328/10/5 325/10/5 324/10/5
f 329/10/5 325/10/5 328/10/5
f 330/10/5 327/10/5 326/10/5
f 331/10/5 327/10/5 330/10/5
f 334/3/5 333/3/5 332/3/5
f 335/3/5 333/3/5 334/3/5
f 338/9/5 337/9/5 336/9/5
f 339/9/5 337/9/5 338/9/5
f 342/6/5 341/6/5 340/6/5
f 343/6/5 341/6/5 342/6/5
f 344/6/5 341/6/5 343/6/5
f 345/6/5 341/6/5 344/6/5
f 348/10/5 344/10/5 343/10/5
f 349/10/5 344/10/5 348/10/5
f 350/9/5 346/9/5 345/9/5
f 351/9/5 346/9/5 350/9/5
f 352/6/5 349/6/5 348/6/5
f 352/5/5 348/5/5 347/5/5
f 353/5/5 350/5/5 349/5/5
f 353/6/5 349/6/5 352/6/5
f 354/5/5 350/5/5 353/5/5
f 355/5/5 352/5/5 347/5/5
f 355/5/5 353/5/5 352/5/5
f 355/5/5 354/5/5 353/5/5
f 356/5/5 354/5/5 355/5/5
f 361/6/5 358/6/5 357/6/5
f 362/6/5 358/6/5 361/6/5
f 363/6/5 360/6/5 359/6/5
f 364/6/5 363/6/5 359/6/5
f 365/6/5 363/6/5 364/6/5
f 371/6/5 367/6/5 366/6/5
f 372/6/5 367/6/5 371/6/5
f 373/6/5 369/6/5 368/6/5
f 374/9/5 370/9/5 369/9/5
f 374/6/5 369/6/5 373/6/5
f 375/9/5 370/9/5 374/9/5
f 378/7/5 377/7/5 376/7/5
f 379/7/5 377/7/5 378/7/5
f 382/7/5 381/7/5 380/7/5
f 383/7/5 381/7/5 382/7/5
f 386/2/5 385/2/5 384/2/5
f 387/2/5 385/2/5 386/2/5
f 388/10/6 389/10/6 392/10/6
f 392/10/6 389/10/6 393/10/6
f 390/10/6 391/10/6 394/10/6
f 394/10/6 391/10/6 395/10/6
f 396/9/6 397/9/6 398/9/6
f 398/9/6 397/9/6 399/9/6
f 400/3/6 401/3/6 402/3/6
f 402/3/6 401/3/6 403/3/6
f 404/6/6 405/6/6 406/6/6
f 406/6/6 405/6/6 407/6/6
f 408/6/6 409/6/6 410/6/6
f 410/6/6 409/6/6 411/6/6
f 413/6/6 414/6/6 415/6/6
f 412/6/6 413/6/6 415/6/6
f 411/6/6 412/6/6 415/6/6
f 415/6/6 414/6/6 416/6/6
f 417/6/6 418/6/6 420/6/6
f 420/6/6 418/6/6 421/6/6
f 421/6/6 418/6/6 422/6/6
f 418/9/6 419/9/6 423/9/6
f 422/6/6 418/6/6 423/6/6
f 423/9/6 419/9/6 424/9/6
f 424/9/6 419/9/6 425/9/6
f 426/9/6 427/9/6 428/9/6
f 428/9/6 427/9/6 429/9/6
f 430/6/6 431/6/6 434/6/6
f 434/6/6 431/6/6 435/6/6
f 432/6/6 433/6/6 436/6/6
f 436/6/6 433/6/6 437/6/6
f 437/7/6 438/7/6 439/7/6
f 439/7/6 438/7/6 440/7/6
f 441/2/6 442/2/6 443/2/6
f 443/2/6 442/2/6 444/2/6
f 445/2/6 446/2/6 447/2/6
f 447/2/6 446/2/6 448/2/6
f 449/11/6 450/11/6 453/11/6
f 451/11/6 452/11/6 453/11/6
f 450/11/6 451/11/6 453/11/6
f 453/11/6 452/11/6 454/11/6
f 455/12/6 456/12/6 457/12/6
f 457/12/6 456/12/6 458/12/6
f 455/12/6 457/12/6 459/12/6
f 457/11/6 458/11/6 460/11/6
f 459/12/6 457/12/6 460/12/6
f 458/12/6 456/12/6 461/12/6
f 460/11/6 458/11/6 461/11/6
f 461/12/6 456/12/6 462/12/6
