# MagicaVoxel @ Ephtracy

# group
o GnomeBase

# material
mtllib Shevtsov.mtl
usemtl palette

# normals
vn -1 0 0
vn 1 0 0
vn 0 0 1
vn 0 0 -1
vn 0 -1 0
vn 0 1 0

# texcoords
vt 0.00585938 0.5
vt 0.0410156 0.5
vt 0.123047 0.5
vt 0.291016 0.5
vt 0.302734 0.5
vt 0.306641 0.5
vt 0.662109 0.5
vt 0.806641 0.5
vt 0.865234 0.5
vt 0.873047 0.5
vt 0.900391 0.5
vt 0.908203 0.5
vt 0.939453 0.5
vt 0.962891 0.5

# verts
v -0.2 0.4 0
v -0.2 0.4 -0.1
v -0.2 0.4 -0.2
v -0.2 0.4 -0.3
v -0.2 0.5 -0.1
v -0.2 0.5 -0.2
v -0.2 0.5 -0.3
v -0.2 0.5 -0.4
v -0.2 0.6 -0.3
v -0.2 0.6 -0.4
v -0.2 0.7 0
v -0.2 0.7 -0.3
v -0.2 0.7 -0.4
v -0.2 0.8 -0.3
v -0.2 0.8 -0.4
v -0.1 0.6 0.1
v -0.1 0.6 0
v -0.1 0.7 0.1
v -0.1 0.7 0
v 0 0.4 0
v 0 0.4 -0.1
v 0 0.4 -0.2
v 0 0.4 -0.3
v 0 0.5 0
v 0 0.5 -0.1
v 0 0.5 -0.2
v 0 0.5 -0.3
v 0 0.7 -0.3
v 0 0.7 -0.4
v 0 0.8 -0.3
v 0 0.8 -0.4
v 0.1 0.7 -0.2
v 0.1 0.7 -0.3
v 0.1 0.8 -0.2
v 0.1 0.8 -0.3
v 0.2 0.4 -0.1
v 0.2 0.4 -0.3
v 0.2 0.5 -0.1
v 0.2 0.5 -0.2
v 0.2 0.5 -0.3
v 0.2 0.6 0
v 0.2 0.6 -0.1
v 0.2 0.6 -0.2
v 0.2 0.6 -0.3
v 0.2 0.7 -0.2
v 0.2 0.7 -0.3
v 0.2 0.8 0
v 0.2 0.8 -0.1
v 0.2 0.8 -0.2
v 0.2 0.8 -0.3
v 0.2 0.9 0
v 0.2 0.9 -0.1
v 0.2 0.9 -0.2
v 0.2 0.9 -0.3
v 0.2 0.9 -0.4
v 0.2 1 0
v 0.2 1 -0.1
v 0.2 1 -0.2
v 0.2 1 -0.4
v 0.2 1.1 -0.1
v 0.2 1.1 -0.2
v 0.3 1 0
v 0.3 1 -0.1
v 0.3 1 -0.2
v 0.3 1 -0.3
v 0.3 1.1 0
v 0.3 1.1 -0.1
v 0.3 1.1 -0.2
v 0.3 1.1 -0.3
v 0.4 0.4 -0.1
v 0.4 0.4 -0.3
v 0.4 0.5 -0.1
v 0.4 0.5 -0.2
v 0.4 0.5 -0.3
v 0.4 0.6 -0.1
v 0.4 0.6 -0.2
v 0.5 0.6 -0.3
v 0.5 0.6 -0.4
v 0.5 0.7 -0.3
v 0.5 0.7 -0.4
v -0.1 0.4 0
v -0.1 0.4 -0.1
v -0.1 0.4 -0.2
v -0.1 0.4 -0.3
v -0.1 0.5 0
v -0.1 0.5 -0.1
v -0.1 0.5 -0.2
v -0.1 0.5 -0.3
v -0.1 0.7 -0.3
v -0.1 0.7 -0.4
v -0.1 0.8 -0.3
v -0.1 0.8 -0.4
v 0 0.6 0.1
v 0 0.6 0
v 0 0.7 0.1
v 0 0.7 0
v 0.1 0.4 0
v 0.1 0.4 -0.1
v 0.1 0.4 -0.2
v 0.1 0.4 -0.3
v 0.1 0.5 -0.1
v 0.1 0.5 -0.2
v 0.1 0.5 -0.3
v 0.1 0.5 -0.4
v 0.1 0.6 -0.3
v 0.1 0.6 -0.4
v 0.1 0.7 0
v 0.1 0.7 -0.2
v 0.1 0.7 -0.3
v 0.1 0.7 -0.4
v 0.2 0.7 -0.3
v 0.2 0.7 -0.4
v 0.2 0.8 -0.3
v 0.2 0.8 -0.4
v 0.3 0.4 -0.1
v 0.3 0.4 -0.3
v 0.3 0.5 -0.1
v 0.3 0.5 -0.2
v 0.3 0.5 -0.3
v 0.3 0.6 -0.1
v 0.3 0.6 -0.2
v 0.4 1 0
v 0.4 1 -0.1
v 0.4 1 -0.2
v 0.4 1 -0.3
v 0.4 1.1 0
v 0.4 1.1 -0.1
v 0.4 1.1 -0.2
v 0.4 1.1 -0.3
v 0.5 0.4 -0.1
v 0.5 0.4 -0.3
v 0.5 0.5 -0.1
v 0.5 0.5 -0.2
v 0.5 0.5 -0.3
v 0.5 0.6 0
v 0.5 0.6 -0.1
v 0.5 0.6 -0.2
v 0.5 0.7 -0.2
v 0.5 0.7 -0.3
v 0.5 0.8 0
v 0.5 0.8 -0.1
v 0.5 0.8 -0.2
v 0.5 0.8 -0.3
v 0.5 0.9 0
v 0.5 0.9 -0.1
v 0.5 0.9 -0.2
v 0.5 0.9 -0.3
v 0.5 0.9 -0.4
v 0.5 1 0
v 0.5 1 -0.1
v 0.5 1 -0.2
v 0.5 1 -0.4
v 0.5 1.1 -0.1
v 0.5 1.1 -0.2
v 0.6 0.6 -0.1
v 0.6 0.6 -0.2
v 0.6 0.6 -0.3
v 0.6 0.6 -0.4
v 0.6 0.7 -0.2
v 0.6 0.7 -0.3
v 0.6 0.7 -0.4
v 0.6 0.8 -0.1
v 0.6 0.8 -0.2
v -0.1 0.6 0.1
v -0.1 0.7 0.1
v 0 0.6 0.1
v 0 0.7 0.1
v -0.2 0.4 0
v -0.2 0.7 0
v -0.1 0.4 0
v -0.1 0.5 0
v -0.1 0.6 0
v -0.1 0.7 0
v 0 0.4 0
v 0 0.5 0
v 0 0.6 0
v 0 0.7 0
v 0.1 0.4 0
v 0.1 0.7 0
v 0.2 0.6 0
v 0.2 0.8 0
v 0.2 0.9 0
v 0.2 1 0
v 0.3 1 0
v 0.3 1.1 0
v 0.4 1 0
v 0.4 1.1 0
v 0.5 0.6 0
v 0.5 0.8 0
v 0.5 0.9 0
v 0.5 1 0
v 0.2 0.4 -0.1
v 0.2 0.5 -0.1
v 0.2 0.6 -0.1
v 0.2 1 -0.1
v 0.2 1.1 -0.1
v 0.3 0.4 -0.1
v 0.3 0.5 -0.1
v 0.3 0.6 -0.1
v 0.3 1 -0.1
v 0.3 1.1 -0.1
v 0.4 0.4 -0.1
v 0.4 0.5 -0.1
v 0.4 0.6 -0.1
v 0.4 1 -0.1
v 0.4 1.1 -0.1
v 0.5 0.4 -0.1
v 0.5 0.5 -0.1
v 0.5 0.6 -0.1
v 0.5 0.8 -0.1
v 0.5 1 -0.1
v 0.5 1.1 -0.1
v 0.6 0.6 -0.1
v 0.6 0.8 -0.1
v -0.2 0.4 -0.2
v -0.2 0.5 -0.2
v -0.1 0.4 -0.2
v -0.1 0.5 -0.2
v 0 0.4 -0.2
v 0 0.5 -0.2
v 0.1 0.4 -0.2
v 0.1 0.5 -0.2
v 0.1 0.7 -0.2
v 0.1 0.8 -0.2
v 0.2 0.7 -0.2
v 0.2 0.8 -0.2
v -0.2 0.7 -0.3
v -0.2 0.8 -0.3
v -0.1 0.7 -0.3
v -0.1 0.8 -0.3
v 0 0.7 -0.3
v 0 0.8 -0.3
v 0.1 0.7 -0.3
v 0.1 0.8 -0.3
v -0.2 0.4 -0.1
v -0.2 0.5 -0.1
v -0.1 0.4 -0.1
v -0.1 0.5 -0.1
v 0 0.4 -0.1
v 0 0.5 -0.1
v 0.1 0.4 -0.1
v 0.1 0.5 -0.1
v 0.2 0.5 -0.2
v 0.2 0.6 -0.2
v 0.2 1 -0.2
v 0.2 1.1 -0.2
v 0.3 0.5 -0.2
v 0.3 0.6 -0.2
v 0.3 1 -0.2
v 0.3 1.1 -0.2
v 0.4 0.5 -0.2
v 0.4 0.6 -0.2
v 0.4 1 -0.2
v 0.4 1.1 -0.2
v 0.5 0.5 -0.2
v 0.5 0.6 -0.2
v 0.5 0.7 -0.2
v 0.5 0.8 -0.2
v 0.5 1 -0.2
v 0.5 1.1 -0.2
v 0.6 0.7 -0.2
v 0.6 0.8 -0.2
v -0.2 0.4 -0.3
v -0.2 0.5 -0.3
v -0.1 0.4 -0.3
v -0.1 0.5 -0.3
v 0 0.4 -0.3
v 0 0.5 -0.3
v 0.1 0.4 -0.3
v 0.1 0.5 -0.3
v 0.2 0.4 -0.3
v 0.2 0.5 -0.3
v 0.2 0.6 -0.3
v 0.2 0.7 -0.3
v 0.2 0.8 -0.3
v 0.2 0.9 -0.3
v 0.3 0.4 -0.3
v 0.3 0.5 -0.3
v 0.3 0.8 -0.3
v 0.3 0.9 -0.3
v 0.3 1 -0.3
v 0.3 1.1 -0.3
v 0.4 0.4 -0.3
v 0.4 0.5 -0.3
v 0.4 0.8 -0.3
v 0.4 0.9 -0.3
v 0.4 1 -0.3
v 0.4 1.1 -0.3
v 0.5 0.4 -0.3
v 0.5 0.5 -0.3
v 0.5 0.6 -0.3
v 0.5 0.7 -0.3
v 0.5 0.8 -0.3
v 0.5 0.9 -0.3
v -0.2 0.5 -0.4
v -0.2 0.6 -0.4
v -0.2 0.7 -0.4
v -0.2 0.8 -0.4
v -0.1 0.5 -0.4
v -0.1 0.6 -0.4
v -0.1 0.7 -0.4
v -0.1 0.8 -0.4
v 0 0.5 -0.4
v 0 0.6 -0.4
v 0 0.7 -0.4
v 0 0.8 -0.4
v 0.1 0.5 -0.4
v 0.1 0.6 -0.4
v 0.1 0.7 -0.4
v 0.1 0.8 -0.4
v 0.2 0.7 -0.4
v 0.2 0.8 -0.4
v 0.2 0.9 -0.4
v 0.2 1 -0.4
v 0.5 0.6 -0.4
v 0.5 0.7 -0.4
v 0.5 0.9 -0.4
v 0.5 1 -0.4
v 0.6 0.6 -0.4
v 0.6 0.7 -0.4
v -0.2 0.4 0
v -0.1 0.4 0
v 0 0.4 0
v 0.1 0.4 0
v -0.2 0.4 -0.1
v -0.1 0.4 -0.1
v 0 0.4 -0.1
v 0.1 0.4 -0.1
v 0.2 0.4 -0.1
v 0.3 0.4 -0.1
v 0.4 0.4 -0.1
v 0.5 0.4 -0.1
v -0.2 0.4 -0.2
v -0.1 0.4 -0.2
v 0 0.4 -0.2
v 0.1 0.4 -0.2
v -0.2 0.4 -0.3
v -0.1 0.4 -0.3
v 0 0.4 -0.3
v 0.1 0.4 -0.3
v 0.2 0.4 -0.3
v 0.3 0.4 -0.3
v 0.4 0.4 -0.3
v 0.5 0.4 -0.3
v -0.1 0.5 0
v 0 0.5 0
v -0.2 0.5 -0.1
v -0.1 0.5 -0.1
v 0 0.5 -0.1
v 0.1 0.5 -0.1
v -0.2 0.5 -0.2
v -0.1 0.5 -0.2
v 0 0.5 -0.2
v 0.1 0.5 -0.2
v -0.2 0.5 -0.3
v -0.1 0.5 -0.3
v 0 0.5 -0.3
v 0.1 0.5 -0.3
v -0.2 0.5 -0.4
v -0.1 0.5 -0.4
v 0 0.5 -0.4
v 0.1 0.5 -0.4
v -0.1 0.6 0.1
v 0 0.6 0.1
v -0.1 0.6 0
v 0 0.6 0
v 0.2 0.6 0
v 0.5 0.6 0
v 0.2 0.6 -0.1
v 0.3 0.6 -0.1
v 0.4 0.6 -0.1
v 0.5 0.6 -0.1
v 0.6 0.6 -0.1
v 0.2 0.6 -0.2
v 0.3 0.6 -0.2
v 0.4 0.6 -0.2
v 0.5 0.6 -0.2
v 0.6 0.6 -0.2
v 0.2 0.6 -0.3
v 0.5 0.6 -0.3
v 0.6 0.6 -0.3
v 0.5 0.6 -0.4
v 0.6 0.6 -0.4
v 0.1 0.7 -0.2
v 0.2 0.7 -0.2
v 0.1 0.7 -0.3
v 0.2 0.7 -0.3
v 0.1 0.7 -0.4
v 0.2 0.7 -0.4
v 0.2 0.9 -0.3
v 0.3 0.9 -0.3
v 0.4 0.9 -0.3
v 0.5 0.9 -0.3
v 0.2 0.9 -0.4
v 0.5 0.9 -0.4
v 0.2 0.5 -0.2
v 0.3 0.5 -0.2
v 0.4 0.5 -0.2
v 0.5 0.5 -0.2
v 0.2 0.5 -0.3
v 0.3 0.5 -0.3
v 0.4 0.5 -0.3
v 0.5 0.5 -0.3
v -0.1 0.7 0.1
v 0 0.7 0.1
v -0.2 0.7 0
v -0.1 0.7 0
v 0 0.7 0
v 0.1 0.7 0
v 0.1 0.7 -0.2
v 0.5 0.7 -0.2
v 0.6 0.7 -0.2
v -0.2 0.7 -0.3
v -0.1 0.7 -0.3
v 0 0.7 -0.3
v 0.1 0.7 -0.3
v 0.5 0.7 -0.3
v 0.6 0.7 -0.3
v -0.1 0.7 -0.4
v 0 0.7 -0.4
v 0.5 0.7 -0.4
v 0.6 0.7 -0.4
v 0.5 0.8 -0.1
v 0.6 0.8 -0.1
v 0.1 0.8 -0.2
v 0.2 0.8 -0.2
v 0.5 0.8 -0.2
v 0.6 0.8 -0.2
v -0.2 0.8 -0.3
v -0.1 0.8 -0.3
v 0 0.8 -0.3
v 0.1 0.8 -0.3
v 0.2 0.8 -0.3
v -0.2 0.8 -0.4
v -0.1 0.8 -0.4
v 0 0.8 -0.4
v 0.1 0.8 -0.4
v 0.2 0.8 -0.4
v 0.2 1 0
v 0.3 1 0
v 0.4 1 0
v 0.5 1 0
v 0.2 1 -0.1
v 0.3 1 -0.1
v 0.4 1 -0.1
v 0.5 1 -0.1
v 0.2 1 -0.2
v 0.3 1 -0.2
v 0.4 1 -0.2
v 0.5 1 -0.2
v 0.3 1 -0.3
v 0.4 1 -0.3
v 0.2 1 -0.4
v 0.5 1 -0.4
v 0.3 1.1 0
v 0.4 1.1 0
v 0.2 1.1 -0.1
v 0.3 1.1 -0.1
v 0.4 1.1 -0.1
v 0.5 1.1 -0.1
v 0.2 1.1 -0.2
v 0.3 1.1 -0.2
v 0.4 1.1 -0.2
v 0.5 1.1 -0.2
v 0.3 1.1 -0.3
v 0.4 1.1 -0.3

# faces
f 5/4/1 2/4/1 1/4/1
f 6/4/1 4/4/1 3/4/1
f 7/4/1 4/4/1 6/4/1
f 9/4/1 6/4/1 5/4/1
f 9/4/1 8/4/1 7/4/1
f 9/4/1 7/4/1 6/4/1
f 10/4/1 8/4/1 9/4/1
f 11/4/1 5/4/1 1/4/1
f 11/4/1 9/4/1 5/4/1
f 12/10/1 10/10/1 9/10/1
f 12/4/1 9/4/1 11/4/1
f 13/10/1 10/10/1 12/10/1
f 14/13/1 13/13/1 12/13/1
f 15/13/1 13/13/1 14/13/1
f 18/4/1 17/4/1 16/4/1
f 19/4/1 17/4/1 18/4/1
f 24/4/1 21/4/1 20/4/1
f 25/4/1 21/4/1 24/4/1
f 26/4/1 23/4/1 22/4/1
f 27/4/1 23/4/1 26/4/1
f 30/13/1 29/13/1 28/13/1
f 31/13/1 29/13/1 30/13/1
f 34/1/1 33/1/1 32/1/1
f 35/1/1 33/1/1 34/1/1
f 38/9/1 37/9/1 36/9/1
f 39/9/1 37/9/1 38/9/1
f 40/9/1 37/9/1 39/9/1
f 42/7/1 39/7/1 38/7/1
f 43/7/1 39/7/1 42/7/1
f 45/14/1 42/14/1 41/14/1
f 45/14/1 44/14/1 43/14/1
f 45/14/1 43/14/1 42/14/1
f 46/14/1 44/14/1 45/14/1
f 47/14/1 45/14/1 41/14/1
f 48/14/1 45/14/1 47/14/1
f 49/14/1 45/14/1 48/14/1
f 51/12/1 48/12/1 47/12/1
f 52/11/1 49/11/1 48/11/1
f 52/12/1 48/12/1 51/12/1
f 53/2/1 50/2/1 49/2/1
f 53/11/1 49/11/1 52/11/1
f 54/2/1 50/2/1 53/2/1
f 56/14/1 54/14/1 53/14/1
f 56/14/1 55/14/1 54/14/1
f 56/14/1 53/14/1 52/14/1
f 56/14/1 52/14/1 51/14/1
f 57/14/1 55/14/1 56/14/1
f 58/14/1 55/14/1 57/14/1
f 59/14/1 55/14/1 58/14/1
f 60/14/1 58/14/1 57/14/1
f 61/14/1 58/14/1 60/14/1
f 66/14/1 63/14/1 62/14/1
f 67/14/1 63/14/1 66/14/1
f 68/14/1 65/14/1 64/14/1
f 69/14/1 65/14/1 68/14/1
f 72/9/1 71/9/1 70/9/1
f 73/9/1 71/9/1 72/9/1
f 74/9/1 71/9/1 73/9/1
f 75/7/1 73/7/1 72/7/1
f 76/7/1 73/7/1 75/7/1
f 79/3/1 78/3/1 77/3/1
f 80/3/1 78/3/1 79/3/1
f 81/4/2 82/4/2 85/4/2
f 85/4/2 82/4/2 86/4/2
f 83/4/2 84/4/2 87/4/2
f 87/4/2 84/4/2 88/4/2
f 89/13/2 90/13/2 91/13/2
f 91/13/2 90/13/2 92/13/2
f 93/4/2 94/4/2 95/4/2
f 95/4/2 94/4/2 96/4/2
f 97/4/2 98/4/2 101/4/2
f 99/4/2 100/4/2 102/4/2
f 102/4/2 100/4/2 103/4/2
f 101/4/2 102/4/2 105/4/2
f 103/4/2 104/4/2 105/4/2
f 102/4/2 103/4/2 105/4/2
f 105/4/2 104/4/2 106/4/2
f 97/4/2 101/4/2 107/4/2
f 101/4/2 105/4/2 107/4/2
f 107/4/2 105/4/2 108/4/2
f 105/10/2 106/10/2 109/10/2
f 108/4/2 105/4/2 109/4/2
f 109/10/2 106/10/2 110/10/2
f 111/3/2 112/3/2 113/3/2
f 113/3/2 112/3/2 114/3/2
f 115/9/2 116/9/2 117/9/2
f 117/9/2 116/9/2 118/9/2
f 118/9/2 116/9/2 119/9/2
f 117/7/2 118/7/2 120/7/2
f 120/7/2 118/7/2 121/7/2
f 122/14/2 123/14/2 126/14/2
f 126/14/2 123/14/2 127/14/2
f 124/14/2 125/14/2 128/14/2
f 128/14/2 125/14/2 129/14/2
f 130/9/2 131/9/2 132/9/2
f 132/9/2 131/9/2 133/9/2
f 133/9/2 131/9/2 134/9/2
f 132/7/2 133/7/2 136/7/2
f 136/7/2 133/7/2 137/7/2
f 135/14/2 136/14/2 140/14/2
f 140/14/2 136/14/2 141/14/2
f 138/11/2 139/11/2 142/11/2
f 142/11/2 139/11/2 143/11/2
f 140/12/2 141/12/2 144/12/2
f 141/11/2 142/11/2 145/11/2
f 144/12/2 141/12/2 145/12/2
f 142/2/2 143/2/2 146/2/2
f 145/11/2 142/11/2 146/11/2
f 146/2/2 143/2/2 147/2/2
f 146/14/2 147/14/2 149/14/2
f 147/14/2 148/14/2 149/14/2
f 144/14/2 145/14/2 149/14/2
f 145/14/2 146/14/2 149/14/2
f 149/14/2 148/14/2 150/14/2
f 150/14/2 148/14/2 151/14/2
f 151/14/2 148/14/2 152/14/2
f 150/14/2 151/14/2 153/14/2
f 153/14/2 151/14/2 154/14/2
f 155/14/2 156/14/2 159/14/2
f 156/1/2 157/1/2 159/1/2
f 157/3/2 158/3/2 160/3/2
f 159/1/2 157/1/2 160/1/2
f 160/3/2 158/3/2 161/3/2
f 155/14/2 159/14/2 162/14/2
f 162/14/2 159/14/2 163/14/2
f 166/4/3 165/4/3 164/4/3
f 167/4/3 165/4/3 166/4/3
f 170/4/3 169/4/3 168/4/3
f 171/4/3 169/4/3 170/4/3
f 172/4/3 169/4/3 171/4/3
f 173/4/3 169/4/3 172/4/3
f 175/5/3 172/5/3 171/5/3
f 176/5/3 172/5/3 175/5/3
f 178/4/3 175/4/3 174/4/3
f 178/4/3 177/4/3 176/4/3
f 178/4/3 176/4/3 175/4/3
f 179/4/3 177/4/3 178/4/3
f 184/14/3 183/14/3 182/14/3
f 186/14/3 184/14/3 182/14/3
f 186/14/3 185/14/3 184/14/3
f 187/14/3 185/14/3 186/14/3
f 188/14/3 181/14/3 180/14/3
f 189/12/3 182/12/3 181/12/3
f 189/14/3 181/14/3 188/14/3
f 190/14/3 186/14/3 182/14/3
f 190/12/3 182/12/3 189/12/3
f 191/14/3 186/14/3 190/14/3
f 197/9/3 193/9/3 192/9/3
f 198/7/3 194/7/3 193/7/3
f 198/9/3 193/9/3 197/9/3
f 199/7/3 194/7/3 198/7/3
f 200/14/3 196/14/3 195/14/3
f 201/14/3 196/14/3 200/14/3
f 207/9/3 203/9/3 202/9/3
f 208/7/3 204/7/3 203/7/3
f 208/9/3 203/9/3 207/9/3
f 209/7/3 204/7/3 208/7/3
f 211/14/3 206/14/3 205/14/3
f 212/14/3 206/14/3 211/14/3
f 213/14/3 210/14/3 209/14/3
f 214/14/3 210/14/3 213/14/3
f 217/4/3 216/4/3 215/4/3
f 218/4/3 216/4/3 217/4/3
f 221/4/3 220/4/3 219/4/3
f 222/4/3 220/4/3 221/4/3
f 225/1/3 224/1/3 223/1/3
f 226/1/3 224/1/3 225/1/3
f 229/13/3 228/13/3 227/13/3
f 230/13/3 228/13/3 229/13/3
f 233/13/3 232/13/3 231/13/3
f 234/13/3 232/13/3 233/13/3
f 235/4/4 236/4/4 237/4/4
f 237/4/4 236/4/4 238/4/4
f 239/4/4 240/4/4 241/4/4
f 241/4/4 240/4/4 242/4/4
f 243/7/4 244/7/4 247/7/4
f 247/7/4 244/7/4 248/7/4
f 245/14/4 246/14/4 249/14/4
f 249/14/4 246/14/4 250/14/4
f 251/7/4 252/7/4 255/7/4
f 255/7/4 252/7/4 256/7/4
f 253/14/4 254/14/4 259/14/4
f 259/14/4 254/14/4 260/14/4
f 257/14/4 258/14/4 261/14/4
f 261/14/4 258/14/4 262/14/4
f 263/4/4 264/4/4 265/4/4
f 265/4/4 264/4/4 266/4/4
f 267/4/4 268/4/4 269/4/4
f 269/4/4 268/4/4 270/4/4
f 271/9/4 272/9/4 277/9/4
f 277/9/4 272/9/4 278/9/4
f 275/2/4 276/2/4 279/2/4
f 274/11/4 275/11/4 279/11/4
f 279/2/4 276/2/4 280/2/4
f 274/11/4 279/11/4 285/11/4
f 279/11/4 280/11/4 285/11/4
f 285/11/4 280/11/4 286/11/4
f 281/14/4 282/14/4 287/14/4
f 287/14/4 282/14/4 288/14/4
f 283/9/4 284/9/4 289/9/4
f 289/9/4 284/9/4 290/9/4
f 273/14/4 274/14/4 291/14/4
f 274/11/4 285/11/4 292/11/4
f 291/14/4 274/14/4 292/14/4
f 285/2/4 286/2/4 293/2/4
f 292/11/4 285/11/4 293/11/4
f 293/2/4 286/2/4 294/2/4
f 295/4/4 296/4/4 299/4/4
f 296/10/4 297/10/4 300/10/4
f 299/4/4 296/4/4 300/4/4
f 297/13/4 298/13/4 301/13/4
f 300/10/4 297/10/4 301/10/4
f 301/13/4 298/13/4 302/13/4
f 299/13/4 300/13/4 303/13/4
f 300/4/4 301/4/4 304/4/4
f 303/13/4 300/13/4 304/13/4
f 304/4/4 301/4/4 305/4/4
f 303/4/4 304/4/4 307/4/4
f 304/10/4 305/10/4 308/10/4
f 307/4/4 304/4/4 308/4/4
f 305/13/4 306/13/4 309/13/4
f 308/10/4 305/10/4 309/10/4
f 309/13/4 306/13/4 310/13/4
f 309/3/4 310/3/4 311/3/4
f 311/3/4 310/3/4 312/3/4
f 313/14/4 314/14/4 317/14/4
f 317/14/4 314/14/4 318/14/4
f 315/3/4 316/3/4 319/3/4
f 319/3/4 316/3/4 320/3/4
f 325/4/5 322/4/5 321/4/5
f 326/4/5 322/4/5 325/4/5
f 327/4/5 324/4/5 323/4/5
f 328/4/5 324/4/5 327/4/5
f 337/4/5 334/4/5 333/4/5
f 338/4/5 334/4/5 337/4/5
f 339/4/5 336/4/5 335/4/5
f 340/4/5 336/4/5 339/4/5
f 341/9/5 330/9/5 329/9/5
f 342/9/5 330/9/5 341/9/5
f 343/9/5 332/9/5 331/9/5
f 344/9/5 332/9/5 343/9/5
f 348/5/5 346/5/5 345/5/5
f 349/5/5 346/5/5 348/5/5
f 351/4/5 348/4/5 347/4/5
f 352/5/5 349/5/5 348/5/5
f 352/4/5 348/4/5 351/4/5
f 353/4/5 350/4/5 349/4/5
f 353/5/5 349/5/5 352/5/5
f 354/4/5 350/4/5 353/4/5
f 356/5/5 353/5/5 352/5/5
f 357/5/5 353/5/5 356/5/5
f 359/4/5 356/4/5 355/4/5
f 360/13/5 357/13/5 356/13/5
f 360/4/5 356/4/5 359/4/5
f 361/4/5 358/4/5 357/4/5
f 361/13/5 357/13/5 360/13/5
f 362/4/5 358/4/5 361/4/5
f 365/4/5 364/4/5 363/4/5
f 366/4/5 364/4/5 365/4/5
f 369/14/5 368/14/5 367/14/5
f 370/14/5 368/14/5 369/14/5
f 371/14/5 368/14/5 370/14/5
f 372/14/5 368/14/5 371/14/5
f 375/14/5 371/14/5 370/14/5
f 376/14/5 371/14/5 375/14/5
f 377/14/5 373/14/5 372/14/5
f 378/14/5 373/14/5 377/14/5
f 379/14/5 376/14/5 375/14/5
f 379/14/5 375/14/5 374/14/5
f 379/14/5 377/14/5 376/14/5
f 380/1/5 378/1/5 377/1/5
f 380/14/5 377/14/5 379/14/5
f 381/1/5 378/1/5 380/1/5
f 382/3/5 381/3/5 380/3/5
f 383/3/5 381/3/5 382/3/5
f 386/1/5 385/1/5 384/1/5
f 387/1/5 385/1/5 386/1/5
f 388/3/5 387/3/5 386/3/5
f 389/3/5 387/3/5 388/3/5
f 394/14/5 391/14/5 390/14/5
f 394/14/5 393/14/5 392/14/5
f 394/14/5 392/14/5 391/14/5
f 395/14/5 393/14/5 394/14/5
f 396/9/6 397/9/6 400/9/6
f 400/9/6 397/9/6 401/9/6
f 398/9/6 399/9/6 402/9/6
f 402/9/6 399/9/6 403/9/6
f 404/4/6 405/4/6 407/4/6
f 407/4/6 405/4/6 408/4/6
f 406/4/6 407/4/6 410/4/6
f 408/4/6 409/4/6 410/4/6
f 407/4/6 408/4/6 410/4/6
f 406/4/6 410/4/6 413/4/6
f 413/4/6 410/4/6 414/4/6
f 414/4/6 410/4/6 415/4/6
f 415/4/6 410/4/6 416/4/6
f 411/1/6 412/1/6 417/1/6
f 417/1/6 412/1/6 418/1/6
f 414/4/6 415/4/6 419/4/6
f 419/4/6 415/4/6 420/4/6
f 417/3/6 418/3/6 421/3/6
f 421/3/6 418/3/6 422/3/6
f 423/14/6 424/14/6 427/14/6
f 427/14/6 424/14/6 428/14/6
f 425/1/6 426/1/6 432/1/6
f 432/1/6 426/1/6 433/1/6
f 429/13/6 430/13/6 434/13/6
f 434/13/6 430/13/6 435/13/6
f 431/13/6 432/13/6 436/13/6
f 432/3/6 433/3/6 437/3/6
f 436/13/6 432/13/6 437/13/6
f 437/3/6 433/3/6 438/3/6
f 439/14/6 440/14/6 443/14/6
f 443/14/6 440/14/6 444/14/6
f 441/14/6 442/14/6 445/14/6
f 445/14/6 442/14/6 446/14/6
f 447/14/6 448/14/6 451/14/6
f 449/14/6 450/14/6 452/14/6
f 447/14/6 451/14/6 453/14/6
f 451/14/6 452/14/6 453/14/6
f 452/14/6 450/14/6 454/14/6
f 453/14/6 452/14/6 454/14/6
f 455/14/6 456/14/6 458/14/6
f 458/14/6 456/14/6 459/14/6
f 457/14/6 458/14/6 461/14/6
f 459/14/6 460/14/6 461/14/6
f 458/14/6 459/14/6 461/14/6
f 461/14/6 460/14/6 462/14/6
f 462/14/6 460/14/6 463/14/6
f 463/14/6 460/14/6 464/14/6
f 462/14/6 463/14/6 465/14/6
f 465/14/6 463/14/6 466/14/6
