# MagicaVoxel @ Ephtracy

# group
o GnomeBase

# material
mtllib Slonik.mtl
usemtl palette

# normals
vn -1 0 0
vn 1 0 0
vn 0 0 1
vn 0 0 -1
vn 0 -1 0
vn 0 1 0

# texcoords
vt 0.0800781 0.5
vt 0.0839844 0.5
vt 0.283203 0.5
vt 0.306641 0.5
vt 0.310547 0.5
vt 0.365234 0.5
vt 0.509766 0.5
vt 0.744141 0.5
vt 0.748047 0.5
vt 0.904297 0.5

# verts
v 0 0.7 0.1
v 0 0.7 0
v 0 0.7 -0.1
v 0 0.8 0.1
v 0 0.8 0
v 0 1 0
v 0 1 -0.1
v 0.1 0.5 0.1
v 0.1 0.5 0
v 0.1 0.6 0
v 0.1 0.6 -0.2
v 0.1 0.6 -0.3
v 0.1 0.7 0.1
v 0.1 0.7 0
v 0.1 0.7 -0.1
v 0.1 0.7 -0.2
v 0.1 0.9 -0.2
v 0.1 0.9 -0.3
v 0.1 1 0
v 0.1 1 -0.1
v 0.1 1 -0.2
v 0.1 1 -0.3
v 0.1 1.1 0
v 0.1 1.1 -0.1
v 0.1 1.1 -0.2
v 0.1 1.1 -0.3
v 0.1 1.2 -0.1
v 0.1 1.2 -0.2
v 0.1 1.2 -0.3
v 0.1 1.3 0
v 0.1 1.3 -0.2
v 0.1 1.3 -0.3
v 0.3 0.4 -0.2
v 0.3 0.4 -0.4
v 0.3 0.5 -0.2
v 0.3 0.5 -0.3
v 0.3 0.5 -0.4
v 0.3 0.6 -0.2
v 0.3 0.6 -0.3
v 0.4 0.9 -0.3
v 0.4 0.9 -0.4
v 0.4 0.9 -0.5
v 0.4 1 -0.3
v 0.4 1 -0.4
v 0.4 1 -0.5
v 0.1 0.7 0.1
v 0.1 0.7 0
v 0.1 0.8 0.1
v 0.1 0.8 0
v 0.2 0.5 0.1
v 0.2 0.5 0
v 0.2 0.6 0
v 0.2 0.6 -0.1
v 0.2 0.7 0.1
v 0.2 0.7 0
v 0.2 0.7 -0.1
v 0.4 0.4 -0.2
v 0.4 0.4 -0.4
v 0.4 0.5 -0.2
v 0.4 0.5 -0.3
v 0.4 0.5 -0.4
v 0.4 0.6 -0.1
v 0.4 0.6 -0.2
v 0.4 0.7 0
v 0.4 0.7 -0.1
v 0.4 0.7 -0.3
v 0.4 0.9 -0.1
v 0.4 0.9 -0.3
v 0.4 1 0
v 0.4 1 -0.1
v 0.4 1 -0.3
v 0.4 1.1 0
v 0.4 1.1 -0.1
v 0.4 1.1 -0.2
v 0.4 1.1 -0.3
v 0.4 1.2 -0.1
v 0.4 1.2 -0.2
v 0.4 1.2 -0.3
v 0.4 1.3 0
v 0.4 1.3 -0.2
v 0.4 1.3 -0.3
v 0.5 0.9 -0.1
v 0.5 0.9 -0.4
v 0.5 0.9 -0.5
v 0.5 1 -0.1
v 0.5 1 -0.4
v 0.5 1 -0.5
v 0 0.7 0.1
v 0 0.8 0.1
v 0.1 0.5 0.1
v 0.1 0.7 0.1
v 0.1 0.8 0.1
v 0.2 0.5 0.1
v 0.2 0.7 0.1
v 0 0.8 0
v 0 1 0
v 0.1 0.7 0
v 0.1 0.8 0
v 0.1 1 0
v 0.1 1.1 0
v 0.1 1.3 0
v 0.2 0.7 0
v 0.2 0.8 0
v 0.2 1 0
v 0.2 1.1 0
v 0.3 1 0
v 0.3 1.1 0
v 0.4 0.7 0
v 0.4 1 0
v 0.4 1.1 0
v 0.4 1.3 0
v 0.2 0.6 -0.1
v 0.2 0.7 -0.1
v 0.4 0.6 -0.1
v 0.4 0.7 -0.1
v 0.4 0.9 -0.1
v 0.4 1 -0.1
v 0.5 0.9 -0.1
v 0.5 1 -0.1
v 0.3 0.4 -0.2
v 0.3 0.5 -0.2
v 0.3 0.6 -0.2
v 0.4 0.4 -0.2
v 0.4 0.5 -0.2
v 0.4 0.6 -0.2
v 0.1 0.5 0
v 0.1 0.6 0
v 0.2 0.5 0
v 0.2 0.6 0
v 0 0.7 -0.1
v 0 1 -0.1
v 0.1 0.7 -0.1
v 0.1 1 -0.1
v 0.1 0.6 -0.3
v 0.1 0.9 -0.3
v 0.1 1 -0.3
v 0.1 1.1 -0.3
v 0.1 1.2 -0.3
v 0.1 1.3 -0.3
v 0.2 0.6 -0.3
v 0.2 0.8 -0.3
v 0.2 0.9 -0.3
v 0.2 1 -0.3
v 0.2 1.1 -0.3
v 0.2 1.2 -0.3
v 0.3 0.5 -0.3
v 0.3 0.6 -0.3
v 0.3 0.7 -0.3
v 0.3 0.8 -0.3
v 0.3 0.9 -0.3
v 0.3 1 -0.3
v 0.3 1.1 -0.3
v 0.3 1.2 -0.3
v 0.4 0.5 -0.3
v 0.4 0.7 -0.3
v 0.4 0.9 -0.3
v 0.4 1 -0.3
v 0.4 1.1 -0.3
v 0.4 1.2 -0.3
v 0.4 1.3 -0.3
v 0.3 0.4 -0.4
v 0.3 0.5 -0.4
v 0.4 0.4 -0.4
v 0.4 0.5 -0.4
v 0.4 0.9 -0.5
v 0.4 1 -0.5
v 0.5 0.9 -0.5
v 0.5 1 -0.5
v 0.3 0.4 -0.2
v 0.4 0.4 -0.2
v 0.3 0.4 -0.4
v 0.4 0.4 -0.4
v 0.1 0.5 0.1
v 0.2 0.5 0.1
v 0.1 0.5 0
v 0.2 0.5 0
v 0.1 0.6 0
v 0.2 0.6 0
v 0.2 0.6 -0.1
v 0.4 0.6 -0.1
v 0.1 0.6 -0.2
v 0.2 0.6 -0.2
v 0.3 0.6 -0.2
v 0.4 0.6 -0.2
v 0.1 0.6 -0.3
v 0.2 0.6 -0.3
v 0.3 0.6 -0.3
v 0 0.7 0.1
v 0.1 0.7 0.1
v 0 0.7 0
v 0.1 0.7 0
v 0.2 0.7 0
v 0.4 0.7 0
v 0 0.7 -0.1
v 0.1 0.7 -0.1
v 0.2 0.7 -0.1
v 0.4 0.7 -0.1
v 0.4 0.9 -0.1
v 0.5 0.9 -0.1
v 0.4 0.9 -0.3
v 0.4 0.9 -0.4
v 0.5 0.9 -0.4
v 0.4 0.9 -0.5
v 0.5 0.9 -0.5
v 0.3 0.5 -0.3
v 0.4 0.5 -0.3
v 0.3 0.5 -0.4
v 0.4 0.5 -0.4
v 0.1 0.7 0.1
v 0.2 0.7 0.1
v 0.1 0.7 0
v 0.2 0.7 0
v 0 0.8 0.1
v 0.1 0.8 0.1
v 0 0.8 0
v 0.1 0.8 0
v 0 1 0
v 0.1 1 0
v 0 1 -0.1
v 0.1 1 -0.1
v 0.4 1 -0.1
v 0.5 1 -0.1
v 0.4 1 -0.3
v 0.4 1 -0.4
v 0.5 1 -0.4
v 0.4 1 -0.5
v 0.5 1 -0.5
v 0.1 1.3 0
v 0.4 1.3 0
v 0.1 1.3 -0.2
v 0.4 1.3 -0.2
v 0.1 1.3 -0.3
v 0.4 1.3 -0.3

# faces
f 4/2/1 2/2/1 1/2/1
f 5/8/1 3/8/1 2/8/1
f 5/2/1 2/2/1 4/2/1
f 6/8/1 3/8/1 5/8/1
f 7/8/1 3/8/1 6/8/1
f 10/1/1 9/1/1 8/1/1
f 13/1/1 10/1/1 8/1/1
f 14/9/1 11/9/1 10/9/1
f 14/1/1 10/1/1 13/1/1
f 15/9/1 11/9/1 14/9/1
f 16/8/1 12/8/1 11/8/1
f 16/9/1 11/9/1 15/9/1
f 17/8/1 12/8/1 16/8/1
f 17/8/1 16/8/1 15/8/1
f 18/8/1 12/8/1 17/8/1
f 20/8/1 17/8/1 15/8/1
f 21/6/1 18/6/1 17/6/1
f 21/8/1 17/8/1 20/8/1
f 22/6/1 18/6/1 21/6/1
f 23/3/1 20/3/1 19/3/1
f 23/3/1 21/3/1 20/3/1
f 23/3/1 22/3/1 21/3/1
f 24/3/1 22/3/1 23/3/1
f 25/3/1 22/3/1 24/3/1
f 26/3/1 22/3/1 25/3/1
f 27/10/1 24/10/1 23/10/1
f 27/2/1 25/2/1 24/2/1
f 28/5/1 26/5/1 25/5/1
f 28/2/1 25/2/1 27/2/1
f 29/5/1 26/5/1 28/5/1
f 30/10/1 27/10/1 23/10/1
f 30/10/1 28/10/1 27/10/1
f 31/2/1 29/2/1 28/2/1
f 31/10/1 28/10/1 30/10/1
f 32/2/1 29/2/1 31/2/1
f 35/1/1 34/1/1 33/1/1
f 36/1/1 34/1/1 35/1/1
f 37/1/1 34/1/1 36/1/1
f 38/9/1 36/9/1 35/9/1
f 39/9/1 36/9/1 38/9/1
f 43/8/1 41/8/1 40/8/1
f 44/2/1 42/2/1 41/2/1
f 44/8/1 41/8/1 43/8/1
f 45/2/1 42/2/1 44/2/1
f 46/2/2 47/2/2 48/2/2
f 48/2/2 47/2/2 49/2/2
f 50/1/2 51/1/2 52/1/2
f 50/1/2 52/1/2 54/1/2
f 52/9/2 53/9/2 55/9/2
f 54/1/2 52/1/2 55/1/2
f 55/9/2 53/9/2 56/9/2
f 57/1/2 58/1/2 59/1/2
f 59/1/2 58/1/2 60/1/2
f 60/1/2 58/1/2 61/1/2
f 59/9/2 60/9/2 63/9/2
f 62/9/2 63/9/2 65/9/2
f 63/9/2 60/9/2 66/9/2
f 65/9/2 63/9/2 66/9/2
f 64/8/2 65/8/2 67/8/2
f 65/8/2 66/8/2 67/8/2
f 67/8/2 66/8/2 68/8/2
f 64/8/2 67/8/2 69/8/2
f 69/8/2 67/8/2 70/8/2
f 69/3/2 70/3/2 72/3/2
f 70/3/2 71/3/2 72/3/2
f 72/3/2 71/3/2 73/3/2
f 73/3/2 71/3/2 74/3/2
f 74/3/2 71/3/2 75/3/2
f 72/10/2 73/10/2 76/10/2
f 73/2/2 74/2/2 76/2/2
f 74/5/2 75/5/2 77/5/2
f 76/2/2 74/2/2 77/2/2
f 77/5/2 75/5/2 78/5/2
f 72/10/2 76/10/2 79/10/2
f 76/10/2 77/10/2 79/10/2
f 77/2/2 78/2/2 80/2/2
f 79/10/2 77/10/2 80/10/2
f 80/2/2 78/2/2 81/2/2
f 82/8/2 83/8/2 85/8/2
f 83/2/2 84/2/2 86/2/2
f 85/8/2 83/8/2 86/8/2
f 86/2/2 84/2/2 87/2/2
f 91/2/3 89/2/3 88/2/3
f 92/2/3 89/2/3 91/2/3
f 93/1/3 91/1/3 90/1/3
f 94/1/3 91/1/3 93/1/3
f 98/8/3 96/8/3 95/8/3
f 99/8/3 96/8/3 98/8/3
f 102/9/3 98/9/3 97/9/3
f 103/8/3 99/8/3 98/8/3
f 103/9/3 98/9/3 102/9/3
f 104/3/3 100/3/3 99/3/3
f 104/8/3 99/8/3 103/8/3
f 105/10/3 101/10/3 100/10/3
f 105/3/3 100/3/3 104/3/3
f 106/8/3 104/8/3 103/8/3
f 106/8/3 103/8/3 102/8/3
f 106/2/3 105/2/3 104/2/3
f 107/10/3 101/10/3 105/10/3
f 107/2/3 105/2/3 106/2/3
f 108/8/3 106/8/3 102/8/3
f 109/3/3 107/3/3 106/3/3
f 109/8/3 106/8/3 108/8/3
f 110/10/3 101/10/3 107/10/3
f 110/3/3 107/3/3 109/3/3
f 111/10/3 101/10/3 110/10/3
f 114/9/3 113/9/3 112/9/3
f 115/9/3 113/9/3 114/9/3
f 118/8/3 117/8/3 116/8/3
f 119/8/3 117/8/3 118/8/3
f 123/1/3 121/1/3 120/1/3
f 124/9/3 122/9/3 121/9/3
f 124/1/3 121/1/3 123/1/3
f 125/9/3 122/9/3 124/9/3
f 126/1/4 127/1/4 128/1/4
f 128/1/4 127/1/4 129/1/4
f 130/8/4 131/8/4 132/8/4
f 132/8/4 131/8/4 133/8/4
f 134/8/4 135/8/4 140/8/4
f 140/8/4 135/8/4 141/8/4
f 135/6/4 136/6/4 142/6/4
f 141/8/4 135/8/4 142/8/4
f 136/3/4 137/3/4 143/3/4
f 142/6/4 136/6/4 143/6/4
f 137/5/4 138/5/4 144/5/4
f 143/3/4 137/3/4 144/3/4
f 138/2/4 139/2/4 145/2/4
f 144/5/4 138/5/4 145/5/4
f 140/9/4 141/9/4 147/9/4
f 147/9/4 141/9/4 148/9/4
f 141/2/4 142/2/4 149/2/4
f 148/9/4 141/9/4 149/9/4
f 142/2/4 143/2/4 149/2/4
f 149/2/4 143/2/4 150/2/4
f 143/7/4 144/7/4 151/7/4
f 150/2/4 143/2/4 151/2/4
f 144/2/4 145/2/4 152/2/4
f 151/7/4 144/7/4 152/7/4
f 145/2/4 139/2/4 153/2/4
f 152/2/4 145/2/4 153/2/4
f 147/9/4 148/9/4 154/9/4
f 146/9/4 147/9/4 154/9/4
f 149/8/4 150/8/4 155/8/4
f 154/9/4 148/9/4 155/9/4
f 148/8/4 149/8/4 155/8/4
f 150/6/4 151/6/4 156/6/4
f 155/8/4 150/8/4 156/8/4
f 151/3/4 152/3/4 157/3/4
f 156/6/4 151/6/4 157/6/4
f 152/5/4 153/5/4 158/5/4
f 157/3/4 152/3/4 158/3/4
f 153/2/4 139/2/4 159/2/4
f 158/5/4 153/5/4 159/5/4
f 159/2/4 139/2/4 160/2/4
f 161/1/4 162/1/4 163/1/4
f 163/1/4 162/1/4 164/1/4
f 165/2/4 166/2/4 167/2/4
f 167/2/4 166/2/4 168/2/4
f 171/1/5 170/1/5 169/1/5
f 172/1/5 170/1/5 171/1/5
f 175/1/5 174/1/5 173/1/5
f 176/1/5 174/1/5 175/1/5
f 179/9/5 178/9/5 177/9/5
f 181/9/5 179/9/5 177/9/5
f 181/9/5 180/9/5 179/9/5
f 182/9/5 180/9/5 181/9/5
f 183/9/5 180/9/5 182/9/5
f 184/9/5 180/9/5 183/9/5
f 185/8/5 182/8/5 181/8/5
f 186/9/5 183/9/5 182/9/5
f 186/8/5 182/8/5 185/8/5
f 187/9/5 183/9/5 186/9/5
f 190/2/5 189/2/5 188/2/5
f 191/2/5 189/2/5 190/2/5
f 194/8/5 191/8/5 190/8/5
f 195/8/5 191/8/5 194/8/5
f 196/8/5 193/8/5 192/8/5
f 197/8/5 193/8/5 196/8/5
f 200/8/5 199/8/5 198/8/5
f 201/8/5 199/8/5 200/8/5
f 202/8/5 199/8/5 201/8/5
f 203/2/5 202/2/5 201/2/5
f 204/2/5 202/2/5 203/2/5
f 205/1/6 206/1/6 207/1/6
f 207/1/6 206/1/6 208/1/6
f 209/1/6 210/1/6 211/1/6
f 211/1/6 210/1/6 212/1/6
f 213/2/6 214/2/6 215/2/6
f 215/2/6 214/2/6 216/2/6
f 217/8/6 218/8/6 219/8/6
f 219/8/6 218/8/6 220/8/6
f 221/8/6 222/8/6 223/8/6
f 223/8/6 222/8/6 224/8/6
f 224/8/6 222/8/6 225/8/6
f 224/2/6 225/2/6 226/2/6
f 226/2/6 225/2/6 227/2/6
f 228/10/6 229/10/6 230/10/6
f 230/10/6 229/10/6 231/10/6
f 230/2/6 231/2/6 232/2/6
f 232/2/6 231/2/6 233/2/6
