# MagicaVoxel @ Ephtracy

# group
o GnomeBase

# material
mtllib UmniyChelovek.mtl
usemtl palette

# normals
vn -1 0 0
vn 1 0 0
vn 0 0 1
vn 0 0 -1
vn 0 -1 0
vn 0 1 0

# texcoords
vt 0.0488281 0.5
vt 0.228516 0.5
vt 0.306641 0.5
vt 0.333984 0.5
vt 0.416016 0.5
vt 0.458984 0.5
vt 0.501953 0.5
vt 0.513672 0.5
vt 0.806641 0.5
vt 0.982422 0.5

# verts
v 0 0.6 -0.1
v 0 0.6 -0.2
v 0 0.7 -0.1
v 0 0.7 -0.2
v 0 0.9 0
v 0 0.9 -0.1
v 0 0.9 -0.2
v 0 0.9 -0.3
v 0 0.9 -0.4
v 0 1 -0.1
v 0 1 -0.3
v 0 1.1 0
v 0 1.1 -0.3
v 0 1.2 -0.3
v 0 1.2 -0.4
v 0.1 0.4 -0.1
v 0.1 0.4 -0.2
v 0.1 0.5 -0.1
v 0.1 0.5 -0.2
v 0.1 0.6 0
v 0.1 0.6 -0.1
v 0.1 0.6 -0.2
v 0.1 0.6 -0.3
v 0.1 0.7 0.1
v 0.1 0.7 0
v 0.1 0.7 -0.1
v 0.1 0.7 -0.2
v 0.1 0.8 0
v 0.1 0.8 -0.1
v 0.1 0.9 0.1
v 0.1 0.9 0
v 0.1 0.9 -0.1
v 0.1 0.9 -0.2
v 0.1 0.9 -0.3
v 0.1 1 -0.1
v 0.1 1 -0.3
v 0.1 1.1 0
v 0.1 1.1 -0.3
v 0.1 1.2 0
v 0.1 1.2 -0.3
v 0.2 1 -0.3
v 0.2 1 -0.4
v 0.2 1.1 -0.3
v 0.2 1.1 -0.4
v 0.3 0.4 -0.1
v 0.3 0.4 -0.2
v 0.3 0.5 -0.1
v 0.3 0.5 -0.2
v 0.3 0.6 -0.1
v 0.3 0.6 -0.2
v 0.3 0.9 -0.3
v 0.3 0.9 -0.4
v 0.3 1 -0.3
v 0.3 1 -0.4
v 0.4 1 -0.3
v 0.4 1 -0.4
v 0.4 1.1 -0.3
v 0.4 1.1 -0.4
v 0.1 1 -0.3
v 0.1 1 -0.4
v 0.1 1.1 -0.3
v 0.1 1.1 -0.4
v 0.2 0.4 -0.1
v 0.2 0.4 -0.2
v 0.2 0.5 -0.1
v 0.2 0.5 -0.2
v 0.2 0.6 -0.1
v 0.2 0.6 -0.2
v 0.2 0.9 -0.3
v 0.2 0.9 -0.4
v 0.2 1 -0.3
v 0.2 1 -0.4
v 0.3 1 -0.3
v 0.3 1 -0.4
v 0.3 1.1 -0.3
v 0.3 1.1 -0.4
v 0.4 0.4 -0.1
v 0.4 0.4 -0.2
v 0.4 0.5 -0.1
v 0.4 0.5 -0.2
v 0.4 0.6 0
v 0.4 0.6 -0.1
v 0.4 0.6 -0.2
v 0.4 0.6 -0.3
v 0.4 0.7 0.1
v 0.4 0.7 0
v 0.4 0.7 -0.1
v 0.4 0.7 -0.2
v 0.4 0.8 0
v 0.4 0.8 -0.1
v 0.4 0.9 0.1
v 0.4 0.9 0
v 0.4 0.9 -0.1
v 0.4 0.9 -0.2
v 0.4 0.9 -0.3
v 0.4 1 -0.1
v 0.4 1 -0.3
v 0.4 1.1 0
v 0.4 1.1 -0.3
v 0.4 1.2 0
v 0.4 1.2 -0.3
v 0.5 0.6 -0.1
v 0.5 0.6 -0.2
v 0.5 0.7 -0.1
v 0.5 0.7 -0.2
v 0.5 0.9 0
v 0.5 0.9 -0.1
v 0.5 0.9 -0.2
v 0.5 0.9 -0.3
v 0.5 0.9 -0.4
v 0.5 1 -0.1
v 0.5 1 -0.3
v 0.5 1.1 0
v 0.5 1.1 -0.3
v 0.5 1.2 -0.3
v 0.5 1.2 -0.4
v 0.1 0.7 0.1
v 0.1 0.9 0.1
v 0.4 0.7 0.1
v 0.4 0.9 0.1
v 0 0.9 0
v 0 1.1 0
v 0.1 0.6 0
v 0.1 0.7 0
v 0.1 0.9 0
v 0.1 1.1 0
v 0.1 1.2 0
v 0.4 0.6 0
v 0.4 0.7 0
v 0.4 0.9 0
v 0.4 1.1 0
v 0.4 1.2 0
v 0.5 0.9 0
v 0.5 1.1 0
v 0 0.6 -0.1
v 0 0.7 -0.1
v 0 0.9 -0.1
v 0.1 0.4 -0.1
v 0.1 0.5 -0.1
v 0.1 0.6 -0.1
v 0.1 0.7 -0.1
v 0.1 0.8 -0.1
v 0.1 0.9 -0.1
v 0.2 0.4 -0.1
v 0.2 0.5 -0.1
v 0.2 0.6 -0.1
v 0.3 0.4 -0.1
v 0.3 0.5 -0.1
v 0.3 0.6 -0.1
v 0.4 0.4 -0.1
v 0.4 0.5 -0.1
v 0.4 0.6 -0.1
v 0.4 0.7 -0.1
v 0.4 0.8 -0.1
v 0.4 0.9 -0.1
v 0.5 0.6 -0.1
v 0.5 0.7 -0.1
v 0.5 0.9 -0.1
v 0 0.9 -0.3
v 0 1 -0.3
v 0 1.1 -0.3
v 0 1.2 -0.3
v 0.1 0.9 -0.3
v 0.1 1 -0.3
v 0.1 1.1 -0.3
v 0.1 1.2 -0.3
v 0.4 0.9 -0.3
v 0.4 1 -0.3
v 0.4 1.1 -0.3
v 0.4 1.2 -0.3
v 0.5 0.9 -0.3
v 0.5 1 -0.3
v 0.5 1.1 -0.3
v 0.5 1.2 -0.3
v 0 0.9 -0.1
v 0 1 -0.1
v 0.1 0.9 -0.1
v 0.1 1 -0.1
v 0.4 0.9 -0.1
v 0.4 1 -0.1
v 0.5 0.9 -0.1
v 0.5 1 -0.1
v 0 0.6 -0.2
v 0 0.7 -0.2
v 0 0.9 -0.2
v 0.1 0.4 -0.2
v 0.1 0.5 -0.2
v 0.1 0.6 -0.2
v 0.1 0.7 -0.2
v 0.1 0.9 -0.2
v 0.2 0.4 -0.2
v 0.2 0.5 -0.2
v 0.2 0.6 -0.2
v 0.3 0.4 -0.2
v 0.3 0.5 -0.2
v 0.3 0.6 -0.2
v 0.4 0.4 -0.2
v 0.4 0.5 -0.2
v 0.4 0.6 -0.2
v 0.4 0.7 -0.2
v 0.4 0.9 -0.2
v 0.5 0.6 -0.2
v 0.5 0.7 -0.2
v 0.5 0.9 -0.2
v 0.1 0.6 -0.3
v 0.1 0.9 -0.3
v 0.1 1 -0.3
v 0.1 1.1 -0.3
v 0.2 0.6 -0.3
v 0.2 0.7 -0.3
v 0.2 0.9 -0.3
v 0.2 1 -0.3
v 0.2 1.1 -0.3
v 0.3 0.6 -0.3
v 0.3 0.7 -0.3
v 0.3 0.9 -0.3
v 0.3 1 -0.3
v 0.3 1.1 -0.3
v 0.4 0.6 -0.3
v 0.4 0.9 -0.3
v 0.4 1 -0.3
v 0.4 1.1 -0.3
v 0 0.9 -0.4
v 0 1.2 -0.4
v 0.1 1 -0.4
v 0.1 1.1 -0.4
v 0.2 0.9 -0.4
v 0.2 1 -0.4
v 0.2 1.1 -0.4
v 0.3 0.9 -0.4
v 0.3 1 -0.4
v 0.3 1.1 -0.4
v 0.4 1 -0.4
v 0.4 1.1 -0.4
v 0.5 0.9 -0.4
v 0.5 1.2 -0.4
v 0.1 0.4 -0.1
v 0.2 0.4 -0.1
v 0.3 0.4 -0.1
v 0.4 0.4 -0.1
v 0.1 0.4 -0.2
v 0.2 0.4 -0.2
v 0.3 0.4 -0.2
v 0.4 0.4 -0.2
v 0.1 0.6 0
v 0.4 0.6 0
v 0 0.6 -0.1
v 0.1 0.6 -0.1
v 0.2 0.6 -0.1
v 0.3 0.6 -0.1
v 0.4 0.6 -0.1
v 0.5 0.6 -0.1
v 0 0.6 -0.2
v 0.1 0.6 -0.2
v 0.2 0.6 -0.2
v 0.3 0.6 -0.2
v 0.4 0.6 -0.2
v 0.5 0.6 -0.2
v 0.1 0.6 -0.3
v 0.2 0.6 -0.3
v 0.3 0.6 -0.3
v 0.4 0.6 -0.3
v 0.1 0.7 0.1
v 0.4 0.7 0.1
v 0.1 0.7 0
v 0.4 0.7 0
v 0 0.9 0
v 0.1 0.9 0
v 0.4 0.9 0
v 0.5 0.9 0
v 0 0.9 -0.1
v 0.1 0.9 -0.1
v 0.4 0.9 -0.1
v 0.5 0.9 -0.1
v 0 0.9 -0.3
v 0.1 0.9 -0.3
v 0.2 0.9 -0.3
v 0.3 0.9 -0.3
v 0.4 0.9 -0.3
v 0.5 0.9 -0.3
v 0 0.9 -0.4
v 0.2 0.9 -0.4
v 0.3 0.9 -0.4
v 0.5 0.9 -0.4
v 0 1 -0.1
v 0.1 1 -0.1
v 0.4 1 -0.1
v 0.5 1 -0.1
v 0 1 -0.3
v 0.1 1 -0.3
v 0.2 1 -0.3
v 0.3 1 -0.3
v 0.4 1 -0.3
v 0.5 1 -0.3
v 0.2 1 -0.4
v 0.3 1 -0.4
v 0.1 1.1 -0.3
v 0.2 1.1 -0.3
v 0.3 1.1 -0.3
v 0.4 1.1 -0.3
v 0.1 1.1 -0.4
v 0.2 1.1 -0.4
v 0.3 1.1 -0.4
v 0.4 1.1 -0.4
v 0.1 0.9 0.1
v 0.4 0.9 0.1
v 0.1 0.9 0
v 0.4 0.9 0
v 0 0.9 -0.1
v 0.1 0.9 -0.1
v 0.4 0.9 -0.1
v 0.5 0.9 -0.1
v 0 0.9 -0.2
v 0.1 0.9 -0.2
v 0.4 0.9 -0.2
v 0.5 0.9 -0.2
v 0.1 1 -0.3
v 0.2 1 -0.3
v 0.3 1 -0.3
v 0.4 1 -0.3
v 0.1 1 -0.4
v 0.2 1 -0.4
v 0.3 1 -0.4
v 0.4 1 -0.4
v 0 1.1 0
v 0.1 1.1 0
v 0.4 1.1 0
v 0.5 1.1 0
v 0 1.1 -0.3
v 0.1 1.1 -0.3
v 0.4 1.1 -0.3
v 0.5 1.1 -0.3
v 0.1 1.2 0
v 0.4 1.2 0
v 0 1.2 -0.3
v 0.1 1.2 -0.3
v 0.4 1.2 -0.3
v 0.5 1.2 -0.3
v 0 1.2 -0.4
v 0.5 1.2 -0.4

# faces
f 3/3/1 2/3/1 1/3/1
f 4/3/1 2/3/1 3/3/1
f 6/2/1 4/2/1 3/2/1
f 7/2/1 4/2/1 6/2/1
f 10/5/1 6/5/1 5/5/1
f 11/5/1 9/5/1 8/5/1
f 12/5/1 10/5/1 5/5/1
f 12/5/1 11/5/1 10/5/1
f 13/5/1 9/5/1 11/5/1
f 13/5/1 11/5/1 12/5/1
f 14/5/1 9/5/1 13/5/1
f 15/5/1 9/5/1 14/5/1
f 18/6/1 17/6/1 16/6/1
f 19/6/1 17/6/1 18/6/1
f 21/8/1 19/8/1 18/8/1
f 22/8/1 19/8/1 21/8/1
f 25/8/1 21/8/1 20/8/1
f 26/8/1 21/8/1 25/8/1
f 27/2/1 23/2/1 22/2/1
f 28/2/1 26/2/1 25/2/1
f 28/7/1 25/7/1 24/7/1
f 29/2/1 26/2/1 28/2/1
f 30/7/1 28/7/1 24/7/1
f 30/7/1 29/7/1 28/7/1
f 31/7/1 29/7/1 30/7/1
f 32/7/1 29/7/1 31/7/1
f 33/2/1 23/2/1 27/2/1
f 34/2/1 23/2/1 33/2/1
f 35/3/1 34/3/1 33/3/1
f 35/3/1 33/3/1 32/3/1
f 36/3/1 34/3/1 35/3/1
f 39/10/1 38/10/1 37/10/1
f 40/10/1 38/10/1 39/10/1
f 43/5/1 42/5/1 41/5/1
f 44/5/1 42/5/1 43/5/1
f 47/6/1 46/6/1 45/6/1
f 48/6/1 46/6/1 47/6/1
f 49/8/1 48/8/1 47/8/1
f 50/8/1 48/8/1 49/8/1
f 53/5/1 52/5/1 51/5/1
f 54/5/1 52/5/1 53/5/1
f 57/5/1 56/5/1 55/5/1
f 58/5/1 56/5/1 57/5/1
f 59/5/2 60/5/2 61/5/2
f 61/5/2 60/5/2 62/5/2
f 63/6/2 64/6/2 65/6/2
f 65/6/2 64/6/2 66/6/2
f 65/8/2 66/8/2 67/8/2
f 67/8/2 66/8/2 68/8/2
f 69/5/2 70/5/2 71/5/2
f 71/5/2 70/5/2 72/5/2
f 73/5/2 74/5/2 75/5/2
f 75/5/2 74/5/2 76/5/2
f 77/6/2 78/6/2 79/6/2
f 79/6/2 78/6/2 80/6/2
f 79/8/2 80/8/2 82/8/2
f 82/8/2 80/8/2 83/8/2
f 81/8/2 82/8/2 86/8/2
f 86/8/2 82/8/2 87/8/2
f 83/2/2 84/2/2 88/2/2
f 86/2/2 87/2/2 89/2/2
f 85/7/2 86/7/2 89/7/2
f 89/2/2 87/2/2 90/2/2
f 85/7/2 89/7/2 91/7/2
f 89/7/2 90/7/2 91/7/2
f 91/7/2 90/7/2 92/7/2
f 92/7/2 90/7/2 93/7/2
f 88/2/2 84/2/2 94/2/2
f 94/2/2 84/2/2 95/2/2
f 94/3/2 95/3/2 96/3/2
f 93/3/2 94/3/2 96/3/2
f 96/3/2 95/3/2 97/3/2
f 98/10/2 99/10/2 100/10/2
f 100/10/2 99/10/2 101/10/2
f 102/3/2 103/3/2 104/3/2
f 104/3/2 103/3/2 105/3/2
f 104/2/2 105/2/2 107/2/2
f 107/2/2 105/2/2 108/2/2
f 106/5/2 107/5/2 111/5/2
f 109/5/2 110/5/2 112/5/2
f 106/5/2 111/5/2 113/5/2
f 111/5/2 112/5/2 113/5/2
f 112/5/2 110/5/2 114/5/2
f 113/5/2 112/5/2 114/5/2
f 114/5/2 110/5/2 115/5/2
f 115/5/2 110/5/2 116/5/2
f 119/7/3 118/7/3 117/7/3
f 120/7/3 118/7/3 119/7/3
f 125/5/3 122/5/3 121/5/3
f 126/5/3 122/5/3 125/5/3
f 128/8/3 124/8/3 123/8/3
f 129/8/3 124/8/3 128/8/3
f 130/3/3 126/3/3 125/3/3
f 131/10/3 127/10/3 126/10/3
f 131/3/3 126/3/3 130/3/3
f 132/10/3 127/10/3 131/10/3
f 133/5/3 131/5/3 130/5/3
f 134/5/3 131/5/3 133/5/3
f 140/3/3 136/3/3 135/3/3
f 141/2/3 137/2/3 136/2/3
f 141/3/3 136/3/3 140/3/3
f 142/2/3 137/2/3 141/2/3
f 143/2/3 137/2/3 142/2/3
f 144/6/3 139/6/3 138/6/3
f 145/8/3 140/8/3 139/8/3
f 145/6/3 139/6/3 144/6/3
f 146/8/3 140/8/3 145/8/3
f 150/6/3 148/6/3 147/6/3
f 151/8/3 149/8/3 148/8/3
f 151/6/3 148/6/3 150/6/3
f 152/8/3 149/8/3 151/8/3
f 156/3/3 153/3/3 152/3/3
f 157/2/3 155/2/3 154/2/3
f 157/3/3 153/3/3 156/3/3
f 157/2/3 154/2/3 153/2/3
f 158/2/3 155/2/3 157/2/3
f 163/5/3 160/5/3 159/5/3
f 164/5/3 160/5/3 163/5/3
f 165/5/3 162/5/3 161/5/3
f 166/5/3 162/5/3 165/5/3
f 171/5/3 168/5/3 167/5/3
f 172/5/3 168/5/3 171/5/3
f 173/5/3 170/5/3 169/5/3
f 174/5/3 170/5/3 173/5/3
f 175/5/4 176/5/4 177/5/4
f 177/5/4 176/5/4 178/5/4
f 179/5/4 180/5/4 181/5/4
f 181/5/4 180/5/4 182/5/4
f 183/3/4 184/3/4 188/3/4
f 184/2/4 185/2/4 189/2/4
f 188/3/4 184/3/4 189/3/4
f 189/2/4 185/2/4 190/2/4
f 186/6/4 187/6/4 191/6/4
f 187/8/4 188/8/4 192/8/4
f 191/6/4 187/6/4 192/6/4
f 192/8/4 188/8/4 193/8/4
f 194/6/4 195/6/4 197/6/4
f 195/8/4 196/8/4 198/8/4
f 197/6/4 195/6/4 198/6/4
f 198/8/4 196/8/4 199/8/4
f 199/3/4 200/3/4 202/3/4
f 200/2/4 201/2/4 203/2/4
f 202/3/4 200/3/4 203/3/4
f 203/2/4 201/2/4 204/2/4
f 205/2/4 206/2/4 209/2/4
f 209/2/4 206/2/4 210/2/4
f 210/2/4 206/2/4 211/2/4
f 207/4/4 208/4/4 212/4/4
f 212/4/4 208/4/4 213/4/4
f 209/8/4 210/8/4 214/8/4
f 210/1/4 211/1/4 215/1/4
f 214/8/4 210/8/4 215/8/4
f 211/3/4 212/3/4 216/3/4
f 215/1/4 211/1/4 216/1/4
f 216/3/4 212/3/4 217/3/4
f 214/2/4 215/2/4 219/2/4
f 215/2/4 216/2/4 219/2/4
f 219/2/4 216/2/4 220/2/4
f 217/4/4 218/4/4 221/4/4
f 221/4/4 218/4/4 222/4/4
f 223/5/4 224/5/4 225/5/4
f 225/5/4 224/5/4 226/5/4
f 223/5/4 225/5/4 227/5/4
f 227/5/4 225/5/4 228/5/4
f 226/5/4 224/5/4 229/5/4
f 228/5/4 229/5/4 231/5/4
f 229/5/4 224/5/4 232/5/4
f 231/5/4 229/5/4 232/5/4
f 230/5/4 231/5/4 233/5/4
f 232/5/4 224/5/4 234/5/4
f 230/5/4 233/5/4 235/5/4
f 233/5/4 234/5/4 235/5/4
f 234/5/4 224/5/4 236/5/4
f 235/5/4 234/5/4 236/5/4
f 241/6/5 238/6/5 237/6/5
f 242/6/5 238/6/5 241/6/5
f 243/6/5 240/6/5 239/6/5
f 244/6/5 240/6/5 243/6/5
f 248/8/5 246/8/5 245/8/5
f 249/8/5 246/8/5 248/8/5
f 250/8/5 246/8/5 249/8/5
f 251/8/5 246/8/5 250/8/5
f 253/3/5 248/3/5 247/3/5
f 254/3/5 248/3/5 253/3/5
f 255/8/5 250/8/5 249/8/5
f 256/8/5 250/8/5 255/8/5
f 257/3/5 252/3/5 251/3/5
f 258/3/5 252/3/5 257/3/5
f 259/2/5 255/2/5 254/2/5
f 260/8/5 256/8/5 255/8/5
f 260/2/5 255/2/5 259/2/5
f 261/2/5 257/2/5 256/2/5
f 261/8/5 256/8/5 260/8/5
f 262/2/5 257/2/5 261/2/5
f 265/7/5 264/7/5 263/7/5
f 266/7/5 264/7/5 265/7/5
f 271/5/5 268/5/5 267/5/5
f 272/5/5 268/5/5 271/5/5
f 273/5/5 270/5/5 269/5/5
f 274/5/5 270/5/5 273/5/5
f 281/5/5 276/5/5 275/5/5
f 281/5/5 277/5/5 276/5/5
f 282/5/5 277/5/5 281/5/5
f 283/5/5 280/5/5 279/5/5
f 283/5/5 279/5/5 278/5/5
f 284/5/5 280/5/5 283/5/5
f 289/5/5 286/5/5 285/5/5
f 290/5/5 286/5/5 289/5/5
f 293/5/5 288/5/5 287/5/5
f 294/5/5 288/5/5 293/5/5
f 295/5/5 292/5/5 291/5/5
f 296/5/5 292/5/5 295/5/5
f 301/5/5 298/5/5 297/5/5
f 302/5/5 298/5/5 301/5/5
f 303/5/5 300/5/5 299/5/5
f 304/5/5 300/5/5 303/5/5
f 305/7/6 306/7/6 307/7/6
f 307/7/6 306/7/6 308/7/6
f 309/2/6 310/2/6 313/2/6
f 313/2/6 310/2/6 314/2/6
f 311/2/6 312/2/6 315/2/6
f 315/2/6 312/2/6 316/2/6
f 317/5/6 318/5/6 321/5/6
f 321/5/6 318/5/6 322/5/6
f 319/5/6 320/5/6 323/5/6
f 323/5/6 320/5/6 324/5/6
f 325/5/6 326/5/6 329/5/6
f 329/5/6 326/5/6 330/5/6
f 327/5/6 328/5/6 331/5/6
f 331/5/6 328/5/6 332/5/6
f 333/10/6 334/10/6 336/10/6
f 336/10/6 334/10/6 337/10/6
f 335/5/6 336/5/6 339/5/6
f 337/5/6 338/5/6 339/5/6
f 336/5/6 337/5/6 339/5/6
f 339/5/6 338/5/6 340/5/6
